<?xml version="1.0" encoding="UTF-8" standalone="no"?>
<!DOCTYPE svg PUBLIC "-//W3C//DTD SVG 1.1//EN" "http://www.w3.org/Graphics/SVG/1.1/DTD/svg11.dtd">
<svg width="100%" height="100%" viewBox="0 0 513 513" version="1.1" xmlns="http://www.w3.org/2000/svg" xmlns:xlink="http://www.w3.org/1999/xlink" xml:space="preserve" xmlns:serif="http://www.serif.com/" style="fill-rule:evenodd;clip-rule:evenodd;stroke-linecap:round;stroke-linejoin:round;stroke-miterlimit:1.5;">
    <g transform="matrix(1,0,0,1,-84,-2607)">
        <g transform="matrix(1,0,0,1,70.72487,183.800857)">
            <g id="color_black_name" transform="matrix(0.917475,0,0,0.917475,13.40884,874.32124)">
                <rect x="0" y="1688.681" width="558.053" height="558.053" style="fill:none;"/>
                <g id="_--Colored" serif:id="- Colored" transform="matrix(0.435982,0,0,0.435982,61.039999,1704.306671)">
                    <g>
                        <g id="CENTER">
                            <g id="Base" transform="matrix(0.706682,0,0,1,146.659184,0)">
                                <g transform="matrix(0.566026,0,0,0.4,-2047.123134,-100)">
                                    <path d="M4312.626,1500L4500.013,1234.835L4687.4,1500L4500.013,1765.165L4312.626,1500Z" style="fill:rgb(0,4,70);"/>
                                </g>
                                <g id="NW" transform="matrix(-3.3927,3.3927,-1.352041,-1.352041,2451.437897,-357.016049)">
                                    <path d="M413.897,404.729L429.528,443.954L398.265,443.954L413.897,404.729Z" style="fill:url(#_Radial1);"/>
                                </g>
                                <g id="SW" transform="matrix(3.3927,3.3927,-1.352041,1.352041,-357.016049,-1451.437897)">
                                    <path d="M413.897,404.729L429.528,443.954L398.265,443.954L413.897,404.729Z" style="fill:url(#_Radial2);"/>
                                </g>
                                <g id="SE" transform="matrix(3.3927,-3.3927,1.352041,1.352041,-1451.437897,1357.016049)">
                                    <path d="M413.897,404.729L429.528,443.954L398.265,443.954L413.897,404.729Z" style="fill:url(#_Radial3);"/>
                                </g>
                                <g id="NE" transform="matrix(-3.3927,-3.3927,1.352041,-1.352041,1357.016049,2451.437897)">
                                    <path d="M413.897,404.729L429.528,443.954L398.265,443.954L413.897,404.729Z" style="fill:url(#_Radial4);"/>
                                </g>
                            </g>
                            <g id="Highlight" transform="matrix(0.4,0,0,0.4,0,0)">
                                <g id="NW1" serif:id="NW" transform="matrix(-5.993896,8.481749,-2.388657,-3.380103,4697.613293,-892.540123)">
                                    <path d="M413.897,404.729L429.528,443.954L398.265,443.954L413.897,404.729ZM413.969,405.788L399.062,443.194L428.876,443.194L413.969,405.788Z" style="fill:url(#_Radial5);"/>
                                </g>
                                <g id="SW1" serif:id="SW" transform="matrix(5.993896,8.481749,-2.388657,3.380103,-264.09375,-3628.594743)">
                                    <path d="M413.897,404.729L429.528,443.954L398.265,443.954L413.897,404.729ZM413.824,405.788L398.917,443.194L428.731,443.194L413.824,405.788Z" style="fill:url(#_Radial6);"/>
                                </g>
                                <g id="SW2" serif:id="SW" transform="matrix(5.993896,8.481749,-2.388657,3.380103,-264.09375,-3628.594743)">
                                    <path d="M413.897,404.729L429.528,443.954L398.265,443.954L413.897,404.729ZM413.824,405.788L398.917,443.194L428.731,443.194L413.824,405.788Z" style="fill:url(#_Radial7);"/>
                                </g>
                                <g id="SE1" serif:id="SE" transform="matrix(5.993896,-8.481749,2.388657,3.380103,-2197.613293,3392.540123)">
                                    <path d="M413.897,404.729L429.528,443.954L398.265,443.954L413.897,404.729ZM413.969,405.788L399.062,443.194L428.876,443.194L413.969,405.788Z" style="fill:url(#_Radial8);"/>
                                </g>
                                <g id="SE2" serif:id="SE" transform="matrix(5.993896,-8.481749,2.388657,3.380103,-2197.613293,3392.540123)">
                                    <path d="M413.897,404.729L429.528,443.954L398.265,443.954L413.897,404.729ZM413.969,405.788L399.062,443.194L428.876,443.194L413.969,405.788Z" style="fill:url(#_Radial9);"/>
                                </g>
                                <g id="NE1" serif:id="NE" transform="matrix(-5.993896,-8.481749,2.388657,-3.380103,2764.09375,6128.594743)">
                                    <path d="M413.897,404.729L429.528,443.954L398.265,443.954L413.897,404.729ZM413.824,405.788L398.917,443.194L428.731,443.194L413.824,405.788Z" style="fill:url(#_Radial10);"/>
                                </g>
                            </g>
                        </g>
                        <g id="NW2" serif:id="NW" transform="matrix(0.4,0,0,0.4,0,0)">
                            <g id="Base1" serif:id="Base" transform="matrix(-1,0,0,-1,2499.966757,2500.007835)">
                                <g id="Base2" serif:id="Base" transform="matrix(1.767767,1.767767,-1.767767,1.767767,1249.999999,-517.766953)">
                                    <path d="M960.91,500.031C936.776,500.064 800.198,588.551 748.051,585.159C696.842,581.828 656.816,546.771 619.061,524.952C747.836,564.407 787.53,500.149 839.456,500C787.663,500.166 739.981,439.535 611.121,478.751C648.707,457.07 696.837,418.696 748.152,414.888C800.121,411.032 936.895,500.039 960.91,500.031Z" style="fill:rgb(0,4,70);"/>
                                </g>
                                <g id="Base3" serif:id="Base" transform="matrix(1.767767,1.767767,-1.767767,1.767767,1249.999999,-517.766953)">
                                    <path d="M960.91,500.031C936.776,500.064 800.198,588.551 748.051,585.159C696.842,581.828 656.816,546.771 619.061,524.952C747.836,564.407 787.53,500.149 839.456,500C787.663,500.166 739.981,439.535 611.121,478.751C648.707,457.07 696.837,418.696 748.152,414.888C800.121,411.032 936.895,500.039 960.91,500.031Z" style="fill:url(#_Radial11);"/>
                                </g>
                                <g id="Base4" serif:id="Base" transform="matrix(1.767767,1.767767,-1.767767,1.767767,1249.999999,-517.766953)">
                                    <path d="M960.91,500.031C936.776,500.064 800.198,588.551 748.051,585.159C696.842,581.828 656.816,546.771 619.061,524.952C747.836,564.407 787.53,500.149 839.456,500C787.663,500.166 739.981,439.535 611.121,478.751C648.707,457.07 696.837,418.696 748.152,414.888C800.121,411.032 936.895,500.039 960.91,500.031Z" style="fill:url(#_Radial12);"/>
                                </g>
                                <g id="Base5" serif:id="Base" transform="matrix(1.767767,1.767767,-1.767767,1.767767,1249.999999,-517.766953)">
                                    <path d="M960.91,500.031C936.776,500.064 800.198,588.551 748.051,585.159C696.842,581.828 656.816,546.771 619.061,524.952C747.836,564.407 787.53,500.149 839.456,500C787.663,500.166 739.981,439.535 611.121,478.751C648.707,457.07 696.837,418.696 748.152,414.888C800.121,411.032 936.895,500.039 960.91,500.031Z" style="fill:url(#_Radial13);"/>
                                </g>
                            </g>
                            <g id="Highlights" transform="matrix(-1,0,0,-1,2499.966757,2500.007835)">
                                <g id="Top-Border" serif:id="Top Border" transform="matrix(1,0,0,-1,-248.482971,2751.930008)">
                                    <path d="M2041.853,940.597C1942.772,988.941 1795.159,1003.026 1664.847,1247.35C1692.962,1142.578 1704.234,1008.312 1788.217,910.867C1873.269,812.182 2270.758,729.653 2313.197,687.185C2270.592,729.908 2187.218,1125.857 2089.037,1212.046C1992.624,1296.684 1837.798,1314.887 1732.483,1343.057C1978.186,1212.606 2005.394,1059.317 2058.99,958.077C2070.256,936.796 2082.696,917.811 2098.586,901.819C2082.378,918.12 2063.246,930.158 2041.853,940.597ZM2060.806,959.93C2046.308,987.433 2035.233,1016.984 2019.655,1050.643C1979.176,1138.103 1916.996,1243.021 1751.207,1335.704C1854.947,1310.374 1997.023,1289.495 2087.388,1210.167C2110.757,1189.652 2133.31,1151.293 2154.774,1104.312C2187.202,1033.332 2217.011,942.719 2242.849,863.555C2263,801.816 2280.746,747.023 2295.431,713.831C2298.548,706.786 2299.904,702.611 2302.761,697.607C2295.23,701.886 2286.877,704.573 2274.865,709.439C2227.808,728.505 2149.361,752.211 2068.301,779.359C1998.985,802.573 1927.753,828.306 1872.689,855.823C1836.276,874.021 1806.956,892.954 1790.111,912.499C1711.444,1003.775 1696.719,1127.726 1672.158,1228.786C1765.054,1063.453 1867.314,1008.215 1952.692,973.405C1984.924,960.263 2013.483,951.621 2040.032,938.739C2045.172,936.77 2051.945,933.08 2059.3,928.52C2067.733,923.597 2075.723,918.238 2083.218,912.239C2089.231,907.825 2094.9,903.43 2099.667,899.507C2103.987,895.952 2107.566,892.784 2109.986,890.344C2107.603,892.924 2104.48,896.553 2100.949,900.859C2096.788,905.934 2092.06,911.949 2087.309,918.299C2082.7,924.098 2078.393,930.199 2074.306,936.577C2068.467,945.293 2063.518,953.578 2060.806,959.93Z" style="fill:url(#_Radial14);"/>
                                </g>
                                <g id="Top-Border1" serif:id="Top Border" transform="matrix(1,0,0,-1,-248.482971,2751.930008)">
                                    <path d="M2041.853,940.597C1942.772,988.941 1795.159,1003.026 1664.847,1247.35C1692.962,1142.578 1704.234,1008.312 1788.217,910.867C1873.269,812.182 2270.758,729.653 2313.197,687.185C2270.592,729.908 2187.218,1125.857 2089.037,1212.046C1992.624,1296.684 1837.798,1314.887 1732.483,1343.057C1978.186,1212.606 2005.394,1059.317 2058.99,958.077C2070.256,936.796 2082.696,917.811 2098.586,901.819C2082.378,918.12 2063.246,930.158 2041.853,940.597ZM2060.806,959.93C2046.308,987.433 2035.233,1016.984 2019.655,1050.643C1979.176,1138.103 1916.996,1243.021 1751.207,1335.704C1854.947,1310.374 1997.023,1289.495 2087.388,1210.167C2110.757,1189.652 2133.31,1151.293 2154.774,1104.312C2187.202,1033.332 2217.011,942.719 2242.849,863.555C2263,801.816 2280.746,747.023 2295.431,713.831C2298.548,706.786 2299.904,702.611 2302.761,697.607C2295.23,701.886 2286.877,704.573 2274.865,709.439C2227.808,728.505 2149.361,752.211 2068.301,779.359C1998.985,802.573 1927.753,828.306 1872.689,855.823C1836.276,874.021 1806.956,892.954 1790.111,912.499C1711.444,1003.775 1696.719,1127.726 1672.158,1228.786C1765.054,1063.453 1867.314,1008.215 1952.692,973.405C1984.924,960.263 2013.483,951.621 2040.032,938.739C2045.172,936.77 2051.945,933.08 2059.3,928.52C2067.733,923.597 2075.723,918.238 2083.218,912.239C2089.231,907.825 2094.9,903.43 2099.667,899.507C2103.987,895.952 2107.566,892.784 2109.986,890.344C2107.603,892.924 2104.48,896.553 2100.949,900.859C2096.788,905.934 2092.06,911.949 2087.309,918.299C2082.7,924.098 2078.393,930.199 2074.306,936.577C2068.467,945.293 2063.518,953.578 2060.806,959.93Z" style="fill:url(#_Radial15);"/>
                                </g>
                                <g id="Top-Border2" serif:id="Top Border" transform="matrix(1,0,0,-1,-248.482971,2751.930008)">
                                    <path d="M2041.853,940.597C1942.772,988.941 1795.159,1003.026 1664.847,1247.35C1692.962,1142.578 1704.234,1008.312 1788.217,910.867C1873.269,812.182 2270.758,729.653 2313.197,687.185C2270.592,729.908 2187.218,1125.857 2089.037,1212.046C1992.624,1296.684 1837.798,1314.887 1732.483,1343.057C1978.186,1212.606 2005.394,1059.317 2058.99,958.077C2070.256,936.796 2082.696,917.811 2098.586,901.819C2082.378,918.12 2063.246,930.158 2041.853,940.597ZM2060.806,959.93C2046.308,987.433 2035.233,1016.984 2019.655,1050.643C1979.176,1138.103 1916.996,1243.021 1751.207,1335.704C1854.947,1310.374 1997.023,1289.495 2087.388,1210.167C2110.757,1189.652 2133.31,1151.293 2154.774,1104.312C2187.202,1033.332 2217.011,942.719 2242.849,863.555C2263,801.816 2280.746,747.023 2295.431,713.831C2298.548,706.786 2299.904,702.611 2302.761,697.607C2295.23,701.886 2286.877,704.573 2274.865,709.439C2227.808,728.505 2149.361,752.211 2068.301,779.359C1998.985,802.573 1927.753,828.306 1872.689,855.823C1836.276,874.021 1806.956,892.954 1790.111,912.499C1711.444,1003.775 1696.719,1127.726 1672.158,1228.786C1765.054,1063.453 1867.314,1008.215 1952.692,973.405C1984.924,960.263 2013.483,951.621 2040.032,938.739C2045.172,936.77 2051.945,933.08 2059.3,928.52C2067.733,923.597 2075.723,918.238 2083.218,912.239C2089.231,907.825 2094.9,903.43 2099.667,899.507C2103.987,895.952 2107.566,892.784 2109.986,890.344C2107.603,892.924 2104.48,896.553 2100.949,900.859C2096.788,905.934 2092.06,911.949 2087.309,918.299C2082.7,924.098 2078.393,930.199 2074.306,936.577C2068.467,945.293 2063.518,953.578 2060.806,959.93Z" style="fill:url(#_Radial16);"/>
                                </g>
                                <g id="Top-Border3" serif:id="Top Border" transform="matrix(1,0,0,-1,-248.482971,2751.930008)">
                                    <path d="M2041.853,940.597C1942.772,988.941 1795.159,1003.026 1664.847,1247.35C1692.962,1142.578 1704.234,1008.312 1788.217,910.867C1873.269,812.182 2270.758,729.653 2313.197,687.185C2270.592,729.908 2187.218,1125.857 2089.037,1212.046C1992.624,1296.684 1837.798,1314.887 1732.483,1343.057C1978.186,1212.606 2005.394,1059.317 2058.99,958.077C2070.256,936.796 2082.696,917.811 2098.586,901.819C2082.378,918.12 2063.246,930.158 2041.853,940.597ZM2060.806,959.93C2046.308,987.433 2035.233,1016.984 2019.655,1050.643C1979.176,1138.103 1916.996,1243.021 1751.207,1335.704C1854.947,1310.374 1997.023,1289.495 2087.388,1210.167C2110.757,1189.652 2133.31,1151.293 2154.774,1104.312C2187.202,1033.332 2217.011,942.719 2242.849,863.555C2263,801.816 2280.746,747.023 2295.431,713.831C2298.548,706.786 2299.904,702.611 2302.761,697.607C2295.23,701.886 2286.877,704.573 2274.865,709.439C2227.808,728.505 2149.361,752.211 2068.301,779.359C1998.985,802.573 1927.753,828.306 1872.689,855.823C1836.276,874.021 1806.956,892.954 1790.111,912.499C1711.444,1003.775 1696.719,1127.726 1672.158,1228.786C1765.054,1063.453 1867.314,1008.215 1952.692,973.405C1984.924,960.263 2013.483,951.621 2040.032,938.739C2045.172,936.77 2051.945,933.08 2059.3,928.52C2067.733,923.597 2075.723,918.238 2083.218,912.239C2089.231,907.825 2094.9,903.43 2099.667,899.507C2103.987,895.952 2107.566,892.784 2109.986,890.344C2107.603,892.924 2104.48,896.553 2100.949,900.859C2096.788,905.934 2092.06,911.949 2087.309,918.299C2082.7,924.098 2078.393,930.199 2074.306,936.577C2068.467,945.293 2063.518,953.578 2060.806,959.93Z" style="fill:url(#_Radial17);"/>
                                </g>
                            </g>
                        </g>
                        <g id="W" transform="matrix(-0.4,0,0,0.4,999.989735,0)">
                            <g id="Base6" serif:id="Base">
                                <g id="Base7" serif:id="Base" transform="matrix(2.5,0,-0,2.5,67.504047,0.020699)">
                                    <path d="M957.985,499.992C957.985,499.992 831.3,564.544 746.279,589.719L588.74,532.311C648.917,532.526 780.247,520.24 812.436,499.989C781.302,478.431 648.557,467.642 588.775,467.689L746.185,410.434C831.316,435.536 957.985,499.992 957.985,499.992Z" style="fill:rgb(0,4,70);"/>
                                </g>
                                <g id="Full" transform="matrix(2.5,0,-0,2.5,67.504047,0.020699)">
                                    <path d="M957.985,499.992C957.985,499.992 831.3,564.544 746.279,589.719L588.74,532.311C648.917,532.526 780.247,520.24 812.436,499.989C781.302,478.431 648.557,467.642 588.775,467.689L746.185,410.434C831.316,435.536 957.985,499.992 957.985,499.992Z" style="fill:url(#_Radial18);"/>
                                </g>
                                <g id="Full1" serif:id="Full" transform="matrix(2.5,0,-0,2.5,67.504047,0.020699)">
                                    <path d="M957.985,499.992C957.985,499.992 831.3,564.544 746.279,589.719L588.74,532.311C648.917,532.526 780.247,520.24 812.436,499.989C781.302,478.431 648.557,467.642 588.775,467.689L746.185,410.434C831.316,435.536 957.985,499.992 957.985,499.992Z" style="fill:url(#_Radial19);"/>
                                </g>
                                <g id="Full2" serif:id="Full" transform="matrix(2.5,0,-0,2.5,67.504047,0.020699)">
                                    <path d="M957.985,499.992C957.985,499.992 831.3,564.544 746.279,589.719L588.74,532.311C648.917,532.526 780.247,520.24 812.436,499.989C781.302,478.431 648.557,467.642 588.775,467.689L746.185,410.434C831.316,435.536 957.985,499.992 957.985,499.992Z" style="fill:url(#_Radial20);"/>
                                </g>
                            </g>
                            <g id="Blend" transform="matrix(-1,0,0,1,2749.974339,-250)">
                                <g id="Botom" transform="matrix(-2.5,0,0,2.5,2682.470292,250.020699)">
                                    <clipPath id="_clip21">
                                        <path d="M955.761,499.992C944.429,505.719 827.146,565.221 746.295,589.193L591.576,532.812C634.271,532.696 709.098,526.75 761.393,516.432C784.374,511.898 803.013,506.508 812.703,500.413C812.845,500.323 812.932,500.168 812.936,500C812.94,499.832 812.859,499.674 812.721,499.578C803.345,493.086 784.795,487.55 761.791,483.006C709.469,472.67 634.06,467.392 591.598,467.194L746.201,410.96C827.156,434.863 944.43,494.261 955.761,499.992Z"/>
                                    </clipPath>
                                    <g clip-path="url(#_clip21)">
                                        <path d="M957.849,499.992C957.939,500.037 957.985,500.061 957.985,500.061C957.985,500.061 831.3,564.544 746.279,589.719L588.74,532.311C648.915,532.526 780.236,520.241 812.433,499.992L957.849,499.992Z" style="fill:url(#_Radial22);"/>
                                    </g>
                                </g>
                                <g id="Bend" transform="matrix(-1,0,0,1,2749.237753,604.13697)">
                                    <path d="M2099.105,895.885L2458.964,896.042" style="fill:none;stroke:url(#_Radial23);stroke-width:2.96px;"/>
                                </g>
                            </g>
                            <g id="Highlights1" serif:id="Highlights">
                                <g id="Border" transform="matrix(2.5,0,-0,2.5,67.504047,0.020699)">
                                    <path d="M957.985,499.992C957.985,499.992 831.316,435.536 746.185,410.434L588.775,467.689C648.557,467.642 781.302,478.431 812.436,499.989C780.247,520.24 648.917,532.526 588.74,532.311L746.279,589.719C831.3,564.544 957.985,499.992 957.985,499.992ZM955.621,499.992C939.638,508.051 825.179,565.178 746.313,588.597L594.74,533.36C637.916,532.971 710.442,527.063 761.502,516.988C784.572,512.437 803.277,507.011 813.004,500.892C813.308,500.701 813.495,500.371 813.503,500.013C813.511,499.655 813.338,499.316 813.043,499.112C803.627,492.592 785.004,487.014 761.901,482.45C710.818,472.358 637.743,467.085 594.748,466.651L746.221,411.556C825.186,434.907 939.637,491.945 955.621,499.992Z" style="fill:url(#_Radial24);"/>
                                </g>
                                <g id="Border1" serif:id="Border" transform="matrix(2.5,0,-0,2.5,67.504047,0.020699)">
                                    <path d="M957.985,499.992C957.985,499.992 831.316,435.536 746.185,410.434L588.775,467.689C648.557,467.642 781.302,478.431 812.436,499.989C780.247,520.24 648.917,532.526 588.74,532.311L746.279,589.719C831.3,564.544 957.985,499.992 957.985,499.992ZM955.621,499.992C939.638,508.051 825.179,565.178 746.313,588.597L594.74,533.36C637.916,532.971 710.442,527.063 761.502,516.988C784.572,512.437 803.277,507.011 813.004,500.892C813.308,500.701 813.495,500.371 813.503,500.013C813.511,499.655 813.338,499.316 813.043,499.112C803.627,492.592 785.004,487.014 761.901,482.45C710.818,472.358 637.743,467.085 594.748,466.651L746.221,411.556C825.186,434.907 939.637,491.945 955.621,499.992Z" style="fill:url(#_Radial25);"/>
                                </g>
                                <g id="Border2" serif:id="Border" transform="matrix(2.5,0,-0,2.5,67.504047,0.020699)">
                                    <path d="M957.985,499.992C957.985,499.992 831.316,435.536 746.185,410.434L588.775,467.689C648.557,467.642 781.302,478.431 812.436,499.989C780.247,520.24 648.917,532.526 588.74,532.311L746.279,589.719C831.3,564.544 957.985,499.992 957.985,499.992ZM955.621,499.992C939.638,508.051 825.179,565.178 746.313,588.597L594.74,533.36C637.916,532.971 710.442,527.063 761.502,516.988C784.572,512.437 803.277,507.011 813.004,500.892C813.308,500.701 813.495,500.371 813.503,500.013C813.511,499.655 813.338,499.316 813.043,499.112C803.627,492.592 785.004,487.014 761.901,482.45C710.818,472.358 637.743,467.085 594.748,466.651L746.221,411.556C825.186,434.907 939.637,491.945 955.621,499.992Z" style="fill:url(#_Radial26);"/>
                                </g>
                                <g id="Border3" serif:id="Border" transform="matrix(2.5,0,-0,2.5,67.504047,0.020699)">
                                    <path d="M957.985,499.992C957.985,499.992 831.316,435.536 746.185,410.434L588.775,467.689C648.557,467.642 781.302,478.431 812.436,499.989C780.247,520.24 648.917,532.526 588.74,532.311L746.279,589.719C831.3,564.544 957.985,499.992 957.985,499.992ZM955.621,499.992C939.638,508.051 825.179,565.178 746.313,588.597L594.74,533.36C637.916,532.971 710.442,527.063 761.502,516.988C784.572,512.437 803.277,507.011 813.004,500.892C813.308,500.701 813.495,500.371 813.503,500.013C813.511,499.655 813.338,499.316 813.043,499.112C803.627,492.592 785.004,487.014 761.901,482.45C710.818,472.358 637.743,467.085 594.748,466.651L746.221,411.556C825.186,434.907 939.637,491.945 955.621,499.992Z" style="fill:url(#_Radial27);"/>
                                </g>
                            </g>
                        </g>
                        <g id="SW3" serif:id="SW" transform="matrix(0.4,0,0,0.4,0,0)">
                            <g id="Base8" serif:id="Base" transform="matrix(-1,0,0,1,2499.966757,0)">
                                <g id="Base9" serif:id="Base" transform="matrix(1.767767,1.767767,-1.767767,1.767767,1249.999999,-517.766953)">
                                    <path d="M960.91,500.031C936.776,500.064 800.198,588.551 748.051,585.159C696.842,581.828 656.816,546.771 619.061,524.952C747.836,564.407 787.53,500.149 839.456,500C787.663,500.166 739.981,439.535 611.121,478.751C648.707,457.07 696.837,418.696 748.152,414.888C800.121,411.032 936.895,500.039 960.91,500.031Z" style="fill:rgb(0,4,70);"/>
                                </g>
                                <g id="Base10" serif:id="Base" transform="matrix(1.767767,1.767767,-1.767767,1.767767,1249.999999,-517.766953)">
                                    <path d="M960.91,500.031C936.776,500.064 800.198,588.551 748.051,585.159C696.842,581.828 656.816,546.771 619.061,524.952C747.836,564.407 787.53,500.149 839.456,500C787.663,500.166 739.981,439.535 611.121,478.751C648.707,457.07 696.837,418.696 748.152,414.888C800.121,411.032 936.895,500.039 960.91,500.031Z" style="fill:url(#_Radial28);"/>
                                </g>
                                <g id="Base11" serif:id="Base" transform="matrix(1.767767,1.767767,-1.767767,1.767767,1249.999999,-517.766953)">
                                    <path d="M960.91,500.031C936.776,500.064 800.198,588.551 748.051,585.159C696.842,581.828 656.816,546.771 619.061,524.952C747.836,564.407 787.53,500.149 839.456,500C787.663,500.166 739.981,439.535 611.121,478.751C648.707,457.07 696.837,418.696 748.152,414.888C800.121,411.032 936.895,500.039 960.91,500.031Z" style="fill:url(#_Radial29);"/>
                                </g>
                                <g id="Base12" serif:id="Base" transform="matrix(1.767767,1.767767,-1.767767,1.767767,1249.999999,-517.766953)">
                                    <path d="M960.91,500.031C936.776,500.064 800.198,588.551 748.051,585.159C696.842,581.828 656.816,546.771 619.061,524.952C747.836,564.407 787.53,500.149 839.456,500C787.663,500.166 739.981,439.535 611.121,478.751C648.707,457.07 696.837,418.696 748.152,414.888C800.121,411.032 936.895,500.039 960.91,500.031Z" style="fill:url(#_Radial30);"/>
                                </g>
                                <g id="Base13" serif:id="Base" transform="matrix(1.767767,1.767767,-1.767767,1.767767,1249.999999,-517.766953)">
                                    <path d="M960.91,500.031C936.776,500.064 800.198,588.551 748.051,585.159C696.842,581.828 656.816,546.771 619.061,524.952C747.836,564.407 787.53,500.149 839.456,500C787.663,500.166 739.981,439.535 611.121,478.751C648.707,457.07 696.837,418.696 748.152,414.888C800.121,411.032 936.895,500.039 960.91,500.031Z" style="fill:url(#_Radial31);"/>
                                </g>
                            </g>
                            <g id="Highlights2" serif:id="Highlights" transform="matrix(-1,0,0,1,2499.966757,0)">
                                <g id="Top-Border4" serif:id="Top Border" transform="matrix(1,0,0,-1,-248.482971,2751.930008)">
                                    <path d="M2041.853,940.597C1942.772,988.941 1795.159,1003.026 1664.847,1247.35C1692.962,1142.578 1704.234,1008.312 1788.217,910.867C1873.269,812.182 2270.758,729.653 2313.197,687.185C2270.592,729.908 2187.218,1125.857 2089.037,1212.046C1992.624,1296.684 1837.798,1314.887 1732.483,1343.057C1978.186,1212.606 2005.394,1059.317 2058.99,958.077C2070.256,936.796 2082.696,917.811 2098.586,901.819C2082.378,918.12 2063.246,930.158 2041.853,940.597ZM2060.806,959.93C2046.308,987.433 2035.233,1016.984 2019.655,1050.643C1979.176,1138.103 1916.996,1243.021 1751.207,1335.704C1854.947,1310.374 1997.023,1289.495 2087.388,1210.167C2110.757,1189.652 2133.31,1151.293 2154.774,1104.312C2187.202,1033.332 2217.011,942.719 2242.849,863.555C2263,801.816 2280.746,747.023 2295.431,713.831C2298.548,706.786 2299.904,702.611 2302.761,697.607C2295.23,701.886 2286.877,704.573 2274.865,709.439C2227.808,728.505 2149.361,752.211 2068.301,779.359C1998.985,802.573 1927.753,828.306 1872.689,855.823C1836.276,874.021 1806.956,892.954 1790.111,912.499C1711.444,1003.775 1696.719,1127.726 1672.158,1228.786C1765.054,1063.453 1867.314,1008.215 1952.692,973.405C1984.924,960.263 2013.483,951.621 2040.032,938.739C2045.172,936.77 2051.945,933.08 2059.3,928.52C2067.733,923.597 2075.723,918.238 2083.218,912.239C2089.231,907.825 2094.9,903.43 2099.667,899.507C2103.987,895.952 2107.566,892.784 2109.986,890.344C2107.603,892.924 2104.48,896.553 2100.949,900.859C2096.788,905.934 2092.06,911.949 2087.309,918.299C2082.7,924.098 2078.393,930.199 2074.306,936.577C2068.467,945.293 2063.518,953.578 2060.806,959.93Z" style="fill:url(#_Radial32);"/>
                                </g>
                                <g id="Top-Border5" serif:id="Top Border" transform="matrix(1,0,0,-1,-248.482971,2751.930008)">
                                    <path d="M2041.853,940.597C1942.772,988.941 1795.159,1003.026 1664.847,1247.35C1692.962,1142.578 1704.234,1008.312 1788.217,910.867C1873.269,812.182 2270.758,729.653 2313.197,687.185C2270.592,729.908 2187.218,1125.857 2089.037,1212.046C1992.624,1296.684 1837.798,1314.887 1732.483,1343.057C1978.186,1212.606 2005.394,1059.317 2058.99,958.077C2070.256,936.796 2082.696,917.811 2098.586,901.819C2082.378,918.12 2063.246,930.158 2041.853,940.597ZM2060.806,959.93C2046.308,987.433 2035.233,1016.984 2019.655,1050.643C1979.176,1138.103 1916.996,1243.021 1751.207,1335.704C1854.947,1310.374 1997.023,1289.495 2087.388,1210.167C2110.757,1189.652 2133.31,1151.293 2154.774,1104.312C2187.202,1033.332 2217.011,942.719 2242.849,863.555C2263,801.816 2280.746,747.023 2295.431,713.831C2298.548,706.786 2299.904,702.611 2302.761,697.607C2295.23,701.886 2286.877,704.573 2274.865,709.439C2227.808,728.505 2149.361,752.211 2068.301,779.359C1998.985,802.573 1927.753,828.306 1872.689,855.823C1836.276,874.021 1806.956,892.954 1790.111,912.499C1711.444,1003.775 1696.719,1127.726 1672.158,1228.786C1765.054,1063.453 1867.314,1008.215 1952.692,973.405C1984.924,960.263 2013.483,951.621 2040.032,938.739C2045.172,936.77 2051.945,933.08 2059.3,928.52C2067.733,923.597 2075.723,918.238 2083.218,912.239C2089.231,907.825 2094.9,903.43 2099.667,899.507C2103.987,895.952 2107.566,892.784 2109.986,890.344C2107.603,892.924 2104.48,896.553 2100.949,900.859C2096.788,905.934 2092.06,911.949 2087.309,918.299C2082.7,924.098 2078.393,930.199 2074.306,936.577C2068.467,945.293 2063.518,953.578 2060.806,959.93Z" style="fill:url(#_Radial33);"/>
                                </g>
                                <g id="Top-Border6" serif:id="Top Border" transform="matrix(1,0,0,-1,-248.482971,2751.930008)">
                                    <path d="M2041.853,940.597C1942.772,988.941 1795.159,1003.026 1664.847,1247.35C1692.962,1142.578 1704.234,1008.312 1788.217,910.867C1873.269,812.182 2270.758,729.653 2313.197,687.185C2270.592,729.908 2187.218,1125.857 2089.037,1212.046C1992.624,1296.684 1837.798,1314.887 1732.483,1343.057C1978.186,1212.606 2005.394,1059.317 2058.99,958.077C2070.256,936.796 2082.696,917.811 2098.586,901.819C2082.378,918.12 2063.246,930.158 2041.853,940.597ZM2060.806,959.93C2046.308,987.433 2035.233,1016.984 2019.655,1050.643C1979.176,1138.103 1916.996,1243.021 1751.207,1335.704C1854.947,1310.374 1997.023,1289.495 2087.388,1210.167C2110.757,1189.652 2133.31,1151.293 2154.774,1104.312C2187.202,1033.332 2217.011,942.719 2242.849,863.555C2263,801.816 2280.746,747.023 2295.431,713.831C2298.548,706.786 2299.904,702.611 2302.761,697.607C2295.23,701.886 2286.877,704.573 2274.865,709.439C2227.808,728.505 2149.361,752.211 2068.301,779.359C1998.985,802.573 1927.753,828.306 1872.689,855.823C1836.276,874.021 1806.956,892.954 1790.111,912.499C1711.444,1003.775 1696.719,1127.726 1672.158,1228.786C1765.054,1063.453 1867.314,1008.215 1952.692,973.405C1984.924,960.263 2013.483,951.621 2040.032,938.739C2045.172,936.77 2051.945,933.08 2059.3,928.52C2067.733,923.597 2075.723,918.238 2083.218,912.239C2089.231,907.825 2094.9,903.43 2099.667,899.507C2103.987,895.952 2107.566,892.784 2109.986,890.344C2107.603,892.924 2104.48,896.553 2100.949,900.859C2096.788,905.934 2092.06,911.949 2087.309,918.299C2082.7,924.098 2078.393,930.199 2074.306,936.577C2068.467,945.293 2063.518,953.578 2060.806,959.93Z" style="fill:url(#_Radial34);"/>
                                </g>
                            </g>
                        </g>
                        <g id="S" transform="matrix(0.4,0,0,0.4,0,0)">
                            <g id="Base14" serif:id="Base">
                                <g id="Base15" serif:id="Base" transform="matrix(-0,2.5,-2.5,-0,2499.983348,67.524745)">
                                    <path d="M957.99,499.993C957.99,499.993 831.245,564.439 746.224,589.615L611.537,540.593C671.714,540.809 780.327,520.242 812.516,499.991C781.382,478.433 671.319,459.347 611.537,459.394L746.224,410.372C831.354,435.475 957.99,499.993 957.99,499.993Z" style="fill:url(#_Linear35);"/>
                                </g>
                                <g id="Base16" serif:id="Base" transform="matrix(-0,2.5,-2.5,-0,2499.983348,67.524745)">
                                    <path d="M957.99,499.993C957.99,499.993 831.245,564.439 746.224,589.615L611.537,540.593C671.714,540.809 780.327,520.242 812.516,499.991C781.382,478.433 671.319,459.347 611.537,459.394L746.224,410.372C831.354,435.475 957.99,499.993 957.99,499.993Z" style="fill:url(#_Radial36);"/>
                                </g>
                                <g id="Base17" serif:id="Base" transform="matrix(-0,2.5,-2.5,-0,2499.983348,67.524745)">
                                    <path d="M957.99,499.993C957.99,499.993 831.245,564.439 746.224,589.615L611.537,540.593C671.714,540.809 780.327,520.242 812.516,499.991C781.382,478.433 671.319,459.347 611.537,459.394L746.224,410.372C831.354,435.475 957.99,499.993 957.99,499.993Z" style="fill:url(#_Radial37);"/>
                                </g>
                            </g>
                            <g id="Blend1" serif:id="Blend" transform="matrix(1,0,0,1,-250,-250)">
                                <path id="Right-Inner" serif:id="Right Inner" d="M1500,2706.954L1500,2351.316C1500.821,2351.318 1501.592,2350.916 1502.06,2350.239C1518.338,2326.731 1534.101,2285.363 1548.127,2234.878C1579.29,2122.707 1602.053,1965.396 1603.881,1860.222L1721.423,2183.165C1662.908,2381.08 1519.583,2668.13 1500.003,2706.959C1500.002,2706.958 1500.001,2706.956 1500,2706.954Z" style="fill:url(#_Radial38);"/>
                                <path id="Right-Inner1" serif:id="Right Inner" d="M1500,2706.954L1500,2351.316C1500.821,2351.318 1501.592,2350.916 1502.06,2350.239C1518.338,2326.731 1534.101,2285.363 1548.127,2234.878C1579.29,2122.707 1602.053,1965.396 1603.881,1860.222L1721.423,2183.165C1662.908,2381.08 1519.583,2668.13 1500.003,2706.959C1500.002,2706.958 1500.001,2706.956 1500,2706.954Z" style="fill:url(#_Radial39);"/>
                                <path id="Left-Inner" serif:id="Left Inner" d="M1500,2706.954C1480.434,2668.081 1337.261,2380.823 1278.578,2183.165L1396.092,1860.294C1398.569,2013.417 1448.654,2271.883 1497.889,2350.147C1498.336,2350.858 1499.11,2351.297 1499.95,2351.315C1499.967,2351.316 1499.983,2351.316 1500,2351.316L1500,2706.954Z" style="fill:url(#_Radial40);"/>
                                <g id="Bend1" serif:id="Bend" transform="matrix(0.000004,0.984827,-1,-0.000004,2394.359846,284.246805)">
                                    <path d="M2096.544,894.285L2460.042,894.381" style="fill:none;stroke:url(#_Radial41);stroke-width:2.99px;"/>
                                </g>
                            </g>
                            <g id="Highlights3" serif:id="Highlights">
                                <g id="Base18" serif:id="Base" transform="matrix(-0,2.5,-2.5,-0,2499.983348,67.524745)">
                                    <path d="M957.99,499.993C957.99,499.993 831.245,564.439 746.224,589.615L611.537,540.593C671.714,540.809 780.327,520.242 812.516,499.991C781.382,478.433 671.319,459.347 611.537,459.394L746.224,410.372C831.354,435.475 957.99,499.993 957.99,499.993ZM955.626,499.992C939.642,491.935 825.222,434.845 746.258,411.494L617.442,458.381C659.515,459.158 722.214,468.247 766.959,480.678C787.162,486.291 803.716,492.6 813.124,499.114C813.418,499.318 813.591,499.657 813.583,500.015C813.575,500.373 813.388,500.703 813.084,500.894C781.835,520.553 678.778,540.553 617.469,541.617L746.259,588.492C825.124,565.073 939.633,508.039 955.626,499.992Z" style="fill:url(#_Radial42);"/>
                                </g>
                                <g id="Base19" serif:id="Base" transform="matrix(-0,2.5,-2.5,-0,2499.983348,67.524745)">
                                    <path d="M957.99,499.993C957.99,499.993 831.245,564.439 746.224,589.615L611.537,540.593C671.714,540.809 780.327,520.242 812.516,499.991C781.382,478.433 671.319,459.347 611.537,459.394L746.224,410.372C831.354,435.475 957.99,499.993 957.99,499.993ZM955.626,499.992C939.642,491.935 825.222,434.845 746.258,411.494L617.442,458.381C659.515,459.158 722.214,468.247 766.959,480.678C787.162,486.291 803.716,492.6 813.124,499.114C813.418,499.318 813.591,499.657 813.583,500.015C813.575,500.373 813.388,500.703 813.084,500.894C781.835,520.553 678.778,540.553 617.469,541.617L746.259,588.492C825.124,565.073 939.633,508.039 955.626,499.992Z" style="fill:url(#_Radial43);"/>
                                </g>
                                <g id="Base20" serif:id="Base" transform="matrix(-0,2.5,-2.5,-0,2499.983348,67.524745)">
                                    <path d="M957.99,499.993C957.99,499.993 831.245,564.439 746.224,589.615L611.537,540.593C671.714,540.809 780.327,520.242 812.516,499.991C781.382,478.433 671.319,459.347 611.537,459.394L746.224,410.372C831.354,435.475 957.99,499.993 957.99,499.993ZM955.626,499.992C939.642,491.935 825.222,434.845 746.258,411.494L617.442,458.381C659.515,459.158 722.214,468.247 766.959,480.678C787.162,486.291 803.716,492.6 813.124,499.114C813.418,499.318 813.591,499.657 813.583,500.015C813.575,500.373 813.388,500.703 813.084,500.894C781.835,520.553 678.778,540.553 617.469,541.617L746.259,588.492C825.124,565.073 939.633,508.039 955.626,499.992Z" style="fill:url(#_Radial44);"/>
                                </g>
                                <g id="Base21" serif:id="Base" transform="matrix(-0,2.5,-2.5,-0,2499.983348,67.524745)">
                                    <path d="M957.99,499.993C957.99,499.993 831.245,564.439 746.224,589.615L611.537,540.593C671.714,540.809 780.327,520.242 812.516,499.991C781.382,478.433 671.319,459.347 611.537,459.394L746.224,410.372C831.354,435.475 957.99,499.993 957.99,499.993ZM955.626,499.992C939.642,491.935 825.222,434.845 746.258,411.494L617.442,458.381C659.515,459.158 722.214,468.247 766.959,480.678C787.162,486.291 803.716,492.6 813.124,499.114C813.418,499.318 813.591,499.657 813.583,500.015C813.575,500.373 813.388,500.703 813.084,500.894C781.835,520.553 678.778,540.553 617.469,541.617L746.259,588.492C825.124,565.073 939.633,508.039 955.626,499.992Z" style="fill:url(#_Radial45);"/>
                                </g>
                            </g>
                        </g>
                        <g id="SE3" serif:id="SE" transform="matrix(0.4,0,0,0.4,0,0)">
                            <g id="Base22" serif:id="Base">
                                <g id="Base23" serif:id="Base" transform="matrix(1.767767,1.767767,-1.767767,1.767767,1249.999999,-517.766953)">
                                    <path d="M960.91,500.031C936.776,500.064 800.198,588.551 748.051,585.159C696.842,581.828 656.816,546.771 619.061,524.952C747.836,564.407 787.53,500.149 839.456,500C787.663,500.166 739.981,439.535 611.121,478.751C648.707,457.07 696.837,418.696 748.152,414.888C800.121,411.032 936.895,500.039 960.91,500.031Z" style="fill:rgb(59,8,107);"/>
                                </g>
                                <g id="Base24" serif:id="Base" transform="matrix(1.767767,1.767767,-1.767767,1.767767,1249.999999,-517.766953)">
                                    <path d="M960.91,500.031C936.776,500.064 800.198,588.551 748.051,585.159C696.842,581.828 656.816,546.771 619.061,524.952C747.836,564.407 787.53,500.149 839.456,500C787.663,500.166 739.981,439.535 611.121,478.751C648.707,457.07 696.837,418.696 748.152,414.888C800.121,411.032 936.895,500.039 960.91,500.031Z" style="fill:url(#_Radial46);"/>
                                </g>
                                <g id="Base25" serif:id="Base" transform="matrix(1.767767,1.767767,-1.767767,1.767767,1249.999999,-517.766953)">
                                    <path d="M960.91,500.031C936.776,500.064 800.198,588.551 748.051,585.159C696.842,581.828 656.816,546.771 619.061,524.952C747.836,564.407 787.53,500.149 839.456,500C787.663,500.166 739.981,439.535 611.121,478.751C648.707,457.07 696.837,418.696 748.152,414.888C800.121,411.032 936.895,500.039 960.91,500.031Z" style="fill:url(#_Radial47);"/>
                                </g>
                                <g id="Base26" serif:id="Base" transform="matrix(1.767767,1.767767,-1.767767,1.767767,1249.999999,-517.766953)">
                                    <path d="M960.91,500.031C936.776,500.064 800.198,588.551 748.051,585.159C696.842,581.828 656.816,546.771 619.061,524.952C747.836,564.407 787.53,500.149 839.456,500C787.663,500.166 739.981,439.535 611.121,478.751C648.707,457.07 696.837,418.696 748.152,414.888C800.121,411.032 936.895,500.039 960.91,500.031Z" style="fill:url(#_Radial48);"/>
                                </g>
                                <g id="Base27" serif:id="Base" transform="matrix(1.767767,1.767767,-1.767767,1.767767,1249.999999,-517.766953)">
                                    <path d="M960.91,500.031C936.776,500.064 800.198,588.551 748.051,585.159C696.842,581.828 656.816,546.771 619.061,524.952C747.836,564.407 787.53,500.149 839.456,500C787.663,500.166 739.981,439.535 611.121,478.751C648.707,457.07 696.837,418.696 748.152,414.888C800.121,411.032 936.895,500.039 960.91,500.031Z" style="fill:url(#_Radial49);"/>
                                </g>
                            </g>
                            <g id="Highlights4" serif:id="Highlights">
                                <g id="Top-Border7" serif:id="Top Border" transform="matrix(1,0,0,-1,-248.482971,2751.930008)">
                                    <path d="M2041.853,940.597C1942.772,988.941 1795.159,1003.026 1664.847,1247.35C1692.962,1142.578 1704.234,1008.312 1788.217,910.867C1873.269,812.182 2270.758,729.653 2313.197,687.185C2270.592,729.908 2187.218,1125.857 2089.037,1212.046C1992.624,1296.684 1837.798,1314.887 1732.483,1343.057C1978.186,1212.606 2005.394,1059.317 2058.99,958.077C2070.256,936.796 2082.696,917.811 2098.586,901.819C2082.378,918.12 2063.246,930.158 2041.853,940.597ZM2060.806,959.93C2046.308,987.433 2035.233,1016.984 2019.655,1050.643C1979.176,1138.103 1916.996,1243.021 1751.207,1335.704C1854.947,1310.374 1997.023,1289.495 2087.388,1210.167C2110.757,1189.652 2133.31,1151.293 2154.774,1104.312C2187.202,1033.332 2217.011,942.719 2242.849,863.555C2263,801.816 2280.746,747.023 2295.431,713.831C2298.548,706.786 2299.904,702.611 2302.761,697.607C2295.23,701.886 2286.877,704.573 2274.865,709.439C2227.808,728.505 2149.361,752.211 2068.301,779.359C1998.985,802.573 1927.753,828.306 1872.689,855.823C1836.276,874.021 1806.956,892.954 1790.111,912.499C1711.444,1003.775 1696.719,1127.726 1672.158,1228.786C1765.054,1063.453 1867.314,1008.215 1952.692,973.405C1984.924,960.263 2013.483,951.621 2040.032,938.739C2045.172,936.77 2051.945,933.08 2059.3,928.52C2067.733,923.597 2075.723,918.238 2083.218,912.239C2089.231,907.825 2094.9,903.43 2099.667,899.507C2103.987,895.952 2107.566,892.784 2109.986,890.344C2107.603,892.924 2104.48,896.553 2100.949,900.859C2096.788,905.934 2092.06,911.949 2087.309,918.299C2082.7,924.098 2078.393,930.199 2074.306,936.577C2068.467,945.293 2063.518,953.578 2060.806,959.93Z" style="fill:url(#_Radial50);"/>
                                </g>
                                <g id="Top-Border8" serif:id="Top Border" transform="matrix(1,0,0,-1,-248.482971,2751.930008)">
                                    <path d="M2041.853,940.597C1942.772,988.941 1795.159,1003.026 1664.847,1247.35C1692.962,1142.578 1704.234,1008.312 1788.217,910.867C1873.269,812.182 2270.758,729.653 2313.197,687.185C2270.592,729.908 2187.218,1125.857 2089.037,1212.046C1992.624,1296.684 1837.798,1314.887 1732.483,1343.057C1978.186,1212.606 2005.394,1059.317 2058.99,958.077C2070.256,936.796 2082.696,917.811 2098.586,901.819C2082.378,918.12 2063.246,930.158 2041.853,940.597ZM2060.806,959.93C2046.308,987.433 2035.233,1016.984 2019.655,1050.643C1979.176,1138.103 1916.996,1243.021 1751.207,1335.704C1854.947,1310.374 1997.023,1289.495 2087.388,1210.167C2110.757,1189.652 2133.31,1151.293 2154.774,1104.312C2187.202,1033.332 2217.011,942.719 2242.849,863.555C2263,801.816 2280.746,747.023 2295.431,713.831C2298.548,706.786 2299.904,702.611 2302.761,697.607C2295.23,701.886 2286.877,704.573 2274.865,709.439C2227.808,728.505 2149.361,752.211 2068.301,779.359C1998.985,802.573 1927.753,828.306 1872.689,855.823C1836.276,874.021 1806.956,892.954 1790.111,912.499C1711.444,1003.775 1696.719,1127.726 1672.158,1228.786C1765.054,1063.453 1867.314,1008.215 1952.692,973.405C1984.924,960.263 2013.483,951.621 2040.032,938.739C2045.172,936.77 2051.945,933.08 2059.3,928.52C2067.733,923.597 2075.723,918.238 2083.218,912.239C2089.231,907.825 2094.9,903.43 2099.667,899.507C2103.987,895.952 2107.566,892.784 2109.986,890.344C2107.603,892.924 2104.48,896.553 2100.949,900.859C2096.788,905.934 2092.06,911.949 2087.309,918.299C2082.7,924.098 2078.393,930.199 2074.306,936.577C2068.467,945.293 2063.518,953.578 2060.806,959.93Z" style="fill:url(#_Radial51);"/>
                                </g>
                                <g id="Top-Border9" serif:id="Top Border" transform="matrix(1,0,0,-1,-248.482971,2751.930008)">
                                    <path d="M2041.853,940.597C1942.772,988.941 1795.159,1003.026 1664.847,1247.35C1692.962,1142.578 1704.234,1008.312 1788.217,910.867C1873.269,812.182 2270.758,729.653 2313.197,687.185C2270.592,729.908 2187.218,1125.857 2089.037,1212.046C1992.624,1296.684 1837.798,1314.887 1732.483,1343.057C1978.186,1212.606 2005.394,1059.317 2058.99,958.077C2070.256,936.796 2082.696,917.811 2098.586,901.819C2082.378,918.12 2063.246,930.158 2041.853,940.597ZM2060.806,959.93C2046.308,987.433 2035.233,1016.984 2019.655,1050.643C1979.176,1138.103 1916.996,1243.021 1751.207,1335.704C1854.947,1310.374 1997.023,1289.495 2087.388,1210.167C2110.757,1189.652 2133.31,1151.293 2154.774,1104.312C2187.202,1033.332 2217.011,942.719 2242.849,863.555C2263,801.816 2280.746,747.023 2295.431,713.831C2298.548,706.786 2299.904,702.611 2302.761,697.607C2295.23,701.886 2286.877,704.573 2274.865,709.439C2227.808,728.505 2149.361,752.211 2068.301,779.359C1998.985,802.573 1927.753,828.306 1872.689,855.823C1836.276,874.021 1806.956,892.954 1790.111,912.499C1711.444,1003.775 1696.719,1127.726 1672.158,1228.786C1765.054,1063.453 1867.314,1008.215 1952.692,973.405C1984.924,960.263 2013.483,951.621 2040.032,938.739C2045.172,936.77 2051.945,933.08 2059.3,928.52C2067.733,923.597 2075.723,918.238 2083.218,912.239C2089.231,907.825 2094.9,903.43 2099.667,899.507C2103.987,895.952 2107.566,892.784 2109.986,890.344C2107.603,892.924 2104.48,896.553 2100.949,900.859C2096.788,905.934 2092.06,911.949 2087.309,918.299C2082.7,924.098 2078.393,930.199 2074.306,936.577C2068.467,945.293 2063.518,953.578 2060.806,959.93Z" style="fill:url(#_Radial52);"/>
                                </g>
                            </g>
                        </g>
                        <g id="E" transform="matrix(0.4,0,0,0.4,-0,0)">
                            <g id="Base28" serif:id="Base">
                                <g id="Base29" serif:id="Base" transform="matrix(2.5,0,-0,2.5,67.504047,0.020699)">
                                    <path d="M957.985,499.999C957.985,499.999 831.3,564.544 746.279,589.719L588.74,532.311C648.917,532.526 780.247,520.24 812.436,499.989C781.302,478.431 648.557,467.642 588.775,467.689L746.185,410.434C831.316,435.536 957.985,499.999 957.985,499.999Z" style="fill:rgb(59,8,107);"/>
                                </g>
                                <g id="Full3" serif:id="Full" transform="matrix(2.5,0,-0,2.5,67.504047,0.020699)">
                                    <path d="M957.985,499.999C957.985,499.999 831.3,564.544 746.279,589.719L588.74,532.311C648.917,532.526 780.247,520.24 812.436,499.989C781.302,478.431 648.557,467.642 588.775,467.689L746.185,410.434C831.316,435.536 957.985,499.999 957.985,499.999Z" style="fill:url(#_Radial53);"/>
                                </g>
                                <g id="Full4" serif:id="Full" transform="matrix(2.5,0,-0,2.5,67.504047,0.020699)">
                                    <path d="M957.985,499.999C957.985,499.999 831.3,564.544 746.279,589.719L588.74,532.311C648.917,532.526 780.247,520.24 812.436,499.989C781.302,478.431 648.557,467.642 588.775,467.689L746.185,410.434C831.316,435.536 957.985,499.999 957.985,499.999Z" style="fill:url(#_Radial54);"/>
                                </g>
                                <g id="Full5" serif:id="Full" transform="matrix(2.5,0,-0,2.5,67.504047,0.020699)">
                                    <path d="M957.985,499.999C957.985,499.999 831.3,564.544 746.279,589.719L588.74,532.311C648.917,532.526 780.247,520.24 812.436,499.989C781.302,478.431 648.557,467.642 588.775,467.689L746.185,410.434C831.316,435.536 957.985,499.999 957.985,499.999Z" style="fill:url(#_Radial55);"/>
                                </g>
                            </g>
                            <g id="Blend2" transform="matrix(1,0,0,1,-250,-250)">
                                <g id="Botom1" serif:id="Botom" transform="matrix(2.5,0,-0,2.5,317.504047,250.020699)">
                                    <clipPath id="_clip56">
                                        <path d="M955.763,499.992C944.43,505.719 827.146,565.221 746.295,589.193L591.576,532.812C634.271,532.696 709.098,526.75 761.393,516.432C784.374,511.898 803.013,506.508 812.703,500.413C812.845,500.323 812.932,500.168 812.936,500C812.94,499.832 812.859,499.674 812.721,499.578C803.345,493.086 784.795,487.55 761.791,483.006C709.469,472.67 634.06,467.392 591.598,467.194L746.201,410.96C827.156,434.863 944.432,494.261 955.763,499.992Z"/>
                                    </clipPath>
                                    <g clip-path="url(#_clip56)">
                                        <path d="M812.433,499.992L957.985,499.992C957.985,499.992 831.3,564.544 746.279,589.719L588.74,532.311C648.915,532.526 780.236,520.241 812.433,499.992Z" style="fill:url(#_Radial57);"/>
                                    </g>
                                </g>
                                <g id="Bend2" serif:id="Bend" transform="matrix(1,0,0,1,250.736585,604.13697)">
                                    <path d="M2099.105,895.885L2458.964,895.882" style="fill:none;stroke:url(#_Radial58);stroke-width:2.96px;"/>
                                </g>
                            </g>
                            <g id="Highlights5" serif:id="Highlights">
                                <g id="Border4" serif:id="Border" transform="matrix(2.5,0,-0,2.5,67.504047,0.020699)">
                                    <path d="M957.985,499.999C957.985,499.999 831.3,564.544 746.279,589.719L588.74,532.311C648.917,532.526 780.247,520.24 812.436,499.989C781.302,478.431 648.557,467.642 588.775,467.689L746.185,410.434C831.316,435.536 957.985,499.999 957.985,499.999ZM955.621,500C939.637,491.951 825.185,434.907 746.22,411.556L594.753,466.651C637.741,467.085 710.817,472.358 761.901,482.45C785.004,487.014 803.627,492.592 813.043,499.112C813.338,499.316 813.511,499.655 813.503,500.013C813.495,500.371 813.308,500.701 813.004,500.892C803.277,507.011 784.572,512.437 761.502,516.988C710.442,527.063 637.914,532.972 594.734,533.36L746.314,588.596C825.18,565.178 939.638,508.058 955.621,500Z" style="fill:url(#_Radial59);"/>
                                </g>
                                <g id="Border5" serif:id="Border" transform="matrix(2.5,0,-0,2.5,67.504047,0.020699)">
                                    <path d="M957.985,499.999C957.985,499.999 831.3,564.544 746.279,589.719L588.74,532.311C648.917,532.526 780.247,520.24 812.436,499.989C781.302,478.431 648.557,467.642 588.775,467.689L746.185,410.434C831.316,435.536 957.985,499.999 957.985,499.999ZM955.621,500C939.637,491.951 825.185,434.907 746.22,411.556L594.753,466.651C637.741,467.085 710.817,472.358 761.901,482.45C785.004,487.014 803.627,492.592 813.043,499.112C813.338,499.316 813.511,499.655 813.503,500.013C813.495,500.371 813.308,500.701 813.004,500.892C803.277,507.011 784.572,512.437 761.502,516.988C710.442,527.063 637.914,532.972 594.734,533.36L746.314,588.596C825.18,565.178 939.638,508.058 955.621,500Z" style="fill:url(#_Radial60);"/>
                                </g>
                                <g id="Border6" serif:id="Border" transform="matrix(2.5,0,-0,2.5,67.504047,0.020699)">
                                    <path d="M957.985,499.999C957.985,499.999 831.3,564.544 746.279,589.719L588.74,532.311C648.917,532.526 780.247,520.24 812.436,499.989C781.302,478.431 648.557,467.642 588.775,467.689L746.185,410.434C831.316,435.536 957.985,499.999 957.985,499.999ZM955.621,500C939.637,491.951 825.185,434.907 746.22,411.556L594.753,466.651C637.741,467.085 710.817,472.358 761.901,482.45C785.004,487.014 803.627,492.592 813.043,499.112C813.338,499.316 813.511,499.655 813.503,500.013C813.495,500.371 813.308,500.701 813.004,500.892C803.277,507.011 784.572,512.437 761.502,516.988C710.442,527.063 637.914,532.972 594.734,533.36L746.314,588.596C825.18,565.178 939.638,508.058 955.621,500Z" style="fill:url(#_Radial61);"/>
                                </g>
                                <g id="Border7" serif:id="Border" transform="matrix(2.5,0,-0,2.5,67.504047,0.020699)">
                                    <path d="M957.985,499.999C957.985,499.999 831.3,564.544 746.279,589.719L588.74,532.311C648.917,532.526 780.247,520.24 812.436,499.989C781.302,478.431 648.557,467.642 588.775,467.689L746.185,410.434C831.316,435.536 957.985,499.999 957.985,499.999ZM955.621,500C939.637,491.951 825.185,434.907 746.22,411.556L594.753,466.651C637.741,467.085 710.817,472.358 761.901,482.45C785.004,487.014 803.627,492.592 813.043,499.112C813.338,499.316 813.511,499.655 813.503,500.013C813.495,500.371 813.308,500.701 813.004,500.892C803.277,507.011 784.572,512.437 761.502,516.988C710.442,527.063 637.914,532.972 594.734,533.36L746.314,588.596C825.18,565.178 939.638,508.058 955.621,500Z" style="fill:url(#_Radial62);"/>
                                </g>
                            </g>
                        </g>
                        <g id="NE2" serif:id="NE" transform="matrix(0.4,0,0,0.4,-0,-0)">
                            <g id="Color">
                                <g id="Base30" serif:id="Base" transform="matrix(1.767767,-1.767767,1.767767,1.767767,-517.766952,1250)">
                                    <path d="M960.91,500.031C936.776,500.064 800.198,588.551 748.051,585.159C696.842,581.828 648.887,543.126 611.131,521.306C739.907,560.762 787.518,500.175 839.443,500.026C787.651,500.192 747.894,435.853 619.034,475.069C656.62,453.387 696.837,418.696 748.152,414.888C800.121,411.032 936.895,500.039 960.91,500.031Z" style="fill:rgb(59,8,107);"/>
                                </g>
                                <g id="Purple" transform="matrix(1.767767,-1.767767,1.767767,1.767767,-517.766952,1250)">
                                    <path d="M960.91,500.031C936.776,500.064 800.198,588.551 748.051,585.159C696.842,581.828 648.886,543.125 611.131,521.306C739.906,560.761 787.518,500.175 839.443,500.026C787.651,500.192 747.894,435.853 619.034,475.069C656.62,453.387 696.837,418.696 748.152,414.888C800.121,411.032 936.895,500.039 960.91,500.031Z" style="fill:url(#_Radial63);"/>
                                </g>
                                <g id="Purple1" serif:id="Purple" transform="matrix(1.767767,-1.767767,1.767767,1.767767,-517.766952,1250)">
                                    <path d="M960.91,500.031C936.776,500.064 800.198,588.551 748.051,585.159C696.842,581.828 648.886,543.125 611.131,521.306C739.906,560.761 787.518,500.175 839.443,500.026C787.651,500.192 747.894,435.853 619.034,475.069C656.62,453.387 696.837,418.696 748.152,414.888C800.121,411.032 936.895,500.039 960.91,500.031Z" style="fill:url(#_Radial64);"/>
                                </g>
                                <g id="Purple2" serif:id="Purple" transform="matrix(1.767767,-1.767767,1.767767,1.767767,-517.766952,1250)">
                                    <path d="M960.91,500.031C936.776,500.064 800.198,588.551 748.051,585.159C696.842,581.828 648.886,543.126 611.131,521.306C739.906,560.762 787.518,500.175 839.443,500.026C787.651,500.192 747.894,435.853 619.034,475.069C656.62,453.387 696.837,418.696 748.152,414.888C800.121,411.032 936.895,500.039 960.91,500.031Z" style="fill:url(#_Radial65);"/>
                                </g>
                            </g>
                            <g id="Highlights6" serif:id="Highlights">
                                <g id="Bottom-Border" serif:id="Bottom Border" transform="matrix(1,0,0,1,-250,-250)">
                                    <path d="M2043.33,938.806C1944.25,987.15 1796.663,1001.18 1666.351,1245.504C1694.466,1140.733 1704.234,1008.312 1788.217,910.867C1873.269,812.182 2272.398,727.74 2314.836,685.272C2272.232,727.995 2187.218,1125.857 2089.037,1212.046C1992.624,1296.684 1839.437,1313.038 1734.122,1341.208C1979.824,1210.756 2006.871,1057.526 2060.467,956.287C2071.734,935.005 2084.173,916.02 2100.064,900.028C2083.855,916.329 2064.724,928.367 2043.33,938.806ZM2062.283,958.139C2047.786,985.642 2035.233,1016.984 2019.655,1050.643C1979.176,1138.103 1918.634,1241.172 1752.845,1333.855C1856.585,1308.525 1997.023,1289.495 2087.388,1210.167C2110.757,1189.652 2133.31,1151.293 2154.774,1104.312C2187.202,1033.332 2217.011,942.719 2242.849,863.555C2263,801.816 2280.746,747.023 2295.431,713.831C2298.548,706.786 2301.544,700.698 2304.401,695.694C2296.869,699.973 2286.877,704.573 2274.865,709.439C2227.808,728.505 2149.361,752.211 2068.301,779.359C1998.985,802.573 1927.753,828.306 1872.689,855.823C1836.276,874.021 1806.956,892.954 1790.111,912.499C1711.444,1003.775 1698.223,1125.881 1673.662,1226.941C1766.558,1061.608 1867.314,1008.215 1952.692,973.405C1984.924,960.263 2014.96,949.83 2041.509,936.948C2046.65,934.979 2053.423,931.289 2060.778,926.729C2069.211,921.806 2077.201,916.447 2084.696,910.448C2090.709,906.034 2096.378,901.639 2101.144,897.716C2105.465,894.161 2109.043,890.993 2111.463,888.553C2109.08,891.133 2105.957,894.762 2102.427,899.068C2098.266,904.143 2093.538,910.158 2088.787,916.508C2084.178,922.307 2079.871,928.408 2075.784,934.786C2069.944,943.502 2064.996,951.787 2062.283,958.139Z" style="fill:url(#_Radial66);"/>
                                </g>
                                <g id="Bottom-Border1" serif:id="Bottom Border" transform="matrix(1,0,0,1,-250,-250)">
                                    <path d="M2043.33,938.806C1944.25,987.15 1796.663,1001.18 1666.351,1245.504C1694.466,1140.733 1704.234,1008.312 1788.217,910.867C1873.269,812.182 2272.398,727.74 2314.836,685.272C2272.232,727.995 2187.218,1125.857 2089.037,1212.046C1992.624,1296.684 1839.437,1313.038 1734.122,1341.208C1979.824,1210.756 2006.871,1057.526 2060.467,956.287C2071.734,935.005 2084.173,916.02 2100.064,900.028C2083.855,916.329 2064.724,928.367 2043.33,938.806ZM2062.283,958.139C2047.786,985.642 2035.233,1016.984 2019.655,1050.643C1979.176,1138.103 1918.634,1241.172 1752.845,1333.855C1856.585,1308.525 1997.023,1289.495 2087.388,1210.167C2110.757,1189.652 2133.31,1151.293 2154.774,1104.312C2187.202,1033.332 2217.011,942.719 2242.849,863.555C2263,801.816 2280.746,747.023 2295.431,713.831C2298.548,706.786 2301.544,700.698 2304.401,695.694C2296.869,699.973 2286.877,704.573 2274.865,709.439C2227.808,728.505 2149.361,752.211 2068.301,779.359C1998.985,802.573 1927.753,828.306 1872.689,855.823C1836.276,874.021 1806.956,892.954 1790.111,912.499C1711.444,1003.775 1698.223,1125.881 1673.662,1226.941C1766.558,1061.608 1867.314,1008.215 1952.692,973.405C1984.924,960.263 2014.96,949.83 2041.509,936.948C2046.65,934.979 2053.423,931.289 2060.778,926.729C2069.211,921.806 2077.201,916.447 2084.696,910.448C2090.709,906.034 2096.378,901.639 2101.144,897.716C2105.465,894.161 2109.043,890.993 2111.463,888.553C2109.08,891.133 2105.957,894.762 2102.427,899.068C2098.266,904.143 2093.538,910.158 2088.787,916.508C2084.178,922.307 2079.871,928.408 2075.784,934.786C2069.944,943.502 2064.996,951.787 2062.283,958.139Z" style="fill:url(#_Radial67);"/>
                                </g>
                                <g id="Top-Border10" serif:id="Top Border" transform="matrix(1,0,0,1,-250,-250)">
                                    <path d="M2043.33,938.806C1944.25,987.15 1796.663,1001.18 1666.351,1245.504C1694.466,1140.733 1704.234,1008.312 1788.217,910.867C1873.269,812.182 2272.398,727.74 2314.836,685.272C2272.232,727.995 2187.218,1125.857 2089.037,1212.046C1992.624,1296.684 1839.437,1313.038 1734.122,1341.208C1979.824,1210.756 2006.871,1057.526 2060.467,956.287C2071.734,935.005 2084.173,916.02 2100.064,900.028C2083.855,916.329 2064.724,928.367 2043.33,938.806ZM2062.283,958.139C2047.786,985.642 2035.233,1016.984 2019.655,1050.643C1979.176,1138.103 1918.634,1241.172 1752.845,1333.855C1856.585,1308.525 1997.023,1289.495 2087.388,1210.167C2110.757,1189.652 2133.31,1151.293 2154.774,1104.312C2187.202,1033.332 2217.011,942.719 2242.849,863.555C2263,801.816 2280.746,747.023 2295.431,713.831C2298.548,706.786 2301.544,700.698 2304.401,695.694C2296.869,699.973 2286.877,704.573 2274.865,709.439C2227.808,728.505 2149.361,752.211 2068.301,779.359C1998.985,802.573 1927.753,828.306 1872.689,855.823C1836.276,874.021 1806.956,892.954 1790.111,912.499C1711.444,1003.775 1698.223,1125.881 1673.662,1226.941C1766.558,1061.608 1867.314,1008.215 1952.692,973.405C1984.924,960.263 2014.96,949.83 2041.509,936.948C2046.65,934.979 2053.423,931.289 2060.778,926.729C2069.211,921.806 2077.201,916.447 2084.696,910.448C2090.709,906.034 2096.378,901.639 2101.144,897.716C2105.465,894.161 2109.043,890.993 2111.463,888.553C2109.08,891.133 2105.957,894.762 2102.427,899.068C2098.266,904.143 2093.538,910.158 2088.787,916.508C2084.178,922.307 2079.871,928.408 2075.784,934.786C2069.944,943.502 2064.996,951.787 2062.283,958.139Z" style="fill:url(#_Radial68);"/>
                                </g>
                            </g>
                        </g>
                        <g id="N" transform="matrix(0.4,0,0,0.4,0,0)">
                            <g id="Colors">
                                <g id="Base31" serif:id="Base" transform="matrix(0,-2.5,2.5,0,0.000001,2432.5)">
                                    <path d="M957.985,499.995C957.985,499.995 831.3,564.544 746.279,589.719L611.487,540.6C671.664,540.815 780.247,520.24 812.436,499.989C781.302,478.431 671.42,459.326 611.639,459.373L746.185,410.434C831.316,435.536 957.985,499.995 957.985,499.995Z" style="fill:url(#_Linear69);"/>
                                </g>
                                <g id="Blue" transform="matrix(0,-2.5,2.5,0,0.000001,2432.5)">
                                    <path d="M957.985,499.995C957.985,499.995 831.3,564.544 746.279,589.719L611.487,540.6C671.664,540.815 780.247,520.24 812.436,499.989C781.302,478.431 671.42,459.326 611.639,459.373L746.185,410.434C831.316,435.536 957.985,499.995 957.985,499.995Z" style="fill:url(#_Radial70);"/>
                                </g>
                                <g id="Blue1" serif:id="Blue" transform="matrix(0,-2.5,2.5,0,0.000001,2432.5)">
                                    <path d="M957.985,499.995C957.985,499.995 831.3,564.544 746.279,589.719L611.487,540.6C671.664,540.815 780.247,520.24 812.436,499.989C781.302,478.431 671.42,459.326 611.639,459.373L746.185,410.434C831.316,435.536 957.985,499.995 957.985,499.995Z" style="fill:url(#_Radial71);"/>
                                </g>
                                <g id="Purple3" serif:id="Purple" transform="matrix(0,-2.5,2.5,0,0.000001,2432.5)">
                                    <path d="M957.985,499.995C957.985,499.995 831.3,564.544 746.279,589.719L611.487,540.6C671.664,540.815 780.247,520.24 812.436,499.989C781.302,478.431 671.42,459.326 611.639,459.373L746.185,410.434C831.316,435.536 957.985,499.995 957.985,499.995Z" style="fill:url(#_Radial72);"/>
                                </g>
                            </g>
                            <g id="Blend3" serif:id="Blend" transform="matrix(1,0,0,1,-250,-250)">
                                <g id="Left-Spill" serif:id="Left Spill" transform="matrix(0,-2.5,2.5,0,250.000001,2682.5)">
                                    <path d="M812.419,500L957.985,499.995C957.985,499.995 831.3,564.544 746.279,589.719L611.487,540.6C671.653,540.815 780.209,520.247 812.419,500Z" style="fill:url(#_Linear73);"/>
                                </g>
                                <g id="Left-Spill-broad" serif:id="Left Spill broad" transform="matrix(0,-2.5,2.5,0,250.000001,2682.5)">
                                    <path d="M812.419,500L957.985,499.995C957.985,499.995 831.3,564.544 746.279,589.719L611.487,540.6C671.653,540.815 780.209,520.247 812.419,500Z" style="fill:url(#_Linear74);"/>
                                </g>
                                <g id="Left-Highlight" serif:id="Left Highlight" transform="matrix(0,-2.5,2.5,0,250.000001,2682.5)">
                                    <path d="M812.419,500C812.425,499.996 812.431,499.993 812.436,499.989C781.302,478.431 671.42,459.326 611.639,459.373L746.185,410.434C829.802,435.09 953.493,497.773 957.865,499.995L812.419,500Z" style="fill:url(#_Radial75);"/>
                                </g>
                                <g id="Left-border-highlight" serif:id="Left border highlight" transform="matrix(0,-2.5,2.5,0,250.000001,2682.5)">
                                    <path d="M812.419,500L812.436,499.989C781.302,478.431 671.42,459.326 611.639,459.373L746.185,410.434C829.802,435.09 953.493,497.773 957.865,499.995L812.419,500ZM812.783,498.933L953.379,498.929C930.988,487.708 822.184,434.02 746.22,411.556L617.546,458.36C659.612,459.138 722.226,468.237 766.919,480.672C786.913,486.236 803.333,492.483 812.783,498.933Z" style="fill:url(#_Radial76);"/>
                                </g>
                            </g>
                            <g id="Highlights7" serif:id="Highlights">
                                <g id="Right-border" serif:id="Right border" transform="matrix(0,-2.5,2.5,0,0.000001,2432.5)">
                                    <path d="M957.985,499.995C957.985,499.995 831.3,564.544 746.279,589.719L611.487,540.6C671.664,540.815 780.247,520.24 812.436,499.989C781.302,478.431 671.42,459.326 611.639,459.373L746.185,410.434C831.316,435.536 957.985,499.995 957.985,499.995ZM955.769,499.995C940.238,492.164 825.386,434.893 746.218,411.486L617.183,458.42C659.246,459.153 722.085,468.266 766.901,480.737C787.071,486.349 803.602,492.656 813.006,499.167C813.282,499.358 813.443,499.676 813.436,500.011C813.429,500.347 813.253,500.657 812.969,500.836C781.662,520.531 678.298,540.574 617.052,541.563L746.311,588.667C825.378,565.193 940.236,507.821 955.769,499.995Z" style="fill:url(#_Radial77);"/>
                                </g>
                                <g id="Left-border" serif:id="Left border" transform="matrix(0,-2.5,2.5,0,0.000001,2432.5)">
                                    <path d="M957.985,499.995C957.985,499.995 831.3,564.544 746.279,589.719L611.487,540.6C671.664,540.815 780.247,520.24 812.436,499.989C781.302,478.431 671.42,459.326 611.639,459.373L746.185,410.434C831.316,435.536 957.985,499.995 957.985,499.995ZM955.769,499.995C940.238,492.164 825.386,434.893 746.218,411.486L617.183,458.42C659.246,459.153 722.085,468.266 766.901,480.737C787.071,486.349 803.602,492.656 813.006,499.167C813.282,499.358 813.443,499.676 813.436,500.011C813.429,500.347 813.253,500.657 812.969,500.836C781.662,520.531 678.298,540.574 617.052,541.563L746.311,588.667C825.378,565.193 940.236,507.821 955.769,499.995Z" style="fill:url(#_Radial78);"/>
                                </g>
                            </g>
                        </g>
                    </g>
                </g>
                <g id="name_black_symbol" transform="matrix(0.464603,0,0,0.464603,46.646823,1713.58033)">
                    <g transform="matrix(1.823972,0,0,1.823972,-706.2141,-1683.143574)">
                        <g transform="matrix(57.109785,0,0,57.109785,869.985497,1488.047421)">
                        </g>
                        <text x="455.616px" y="1488.047px" style="font-family:'Arial-BoldMT', 'Arial', sans-serif;font-weight:700;font-size:57.11px;">A<tspan x="522.558px 589.501px 656.443px 723.385px 790.327px 831.894px " y="1488.047px 1488.047px 1488.047px 1488.047px 1488.047px 1488.047px ">RKANIS</tspan></text>
                    </g>
                    <g transform="matrix(1.673718,0,0,0.87792,-208.316122,-247.507059)">
                        <rect x="625.162" y="1501.57" width="22.405" height="6.68"/>
                    </g>
                    <g transform="matrix(1.16828,0,0,1.16828,-273.174094,-650.194678)">
                        <g transform="matrix(34.862141,0,0,34.862141,922.973136,1488.047421)">
                        </g>
                        <text x="402.628px" y="1488.047px" style="font-family:'Arial-BoldMT', 'Arial', sans-serif;font-weight:700;font-size:34.862px;">C<tspan x="453.951px 507.215px 558.538px 607.937px 661.201px 712.524px 761.259px 808.701px 844.533px 897.797px " y="1488.047px 1488.047px 1488.047px 1488.047px 1488.047px 1488.047px 1488.047px 1488.047px 1488.047px 1488.047px ">ORPORATION</tspan></text>
                    </g>
                    <g transform="matrix(1.673718,0,0,0.87792,-921.528198,-247.507059)">
                        <rect x="625.162" y="1501.57" width="22.405" height="6.68"/>
                    </g>
                </g>
            </g>
        </g>
    </g>
    <defs>
        <radialGradient id="_Radial1" cx="0" cy="0" r="1" gradientUnits="userSpaceOnUse" gradientTransform="matrix(-52.329395,1.544478,-0.615792,-132.402233,442.169465,443.588834)"><stop offset="0" style="stop-color:rgb(102,209,255);stop-opacity:1"/><stop offset="0.52" style="stop-color:rgb(78,160,211);stop-opacity:1"/><stop offset="1" style="stop-color:rgb(0,4,70);stop-opacity:1"/></radialGradient>
        <radialGradient id="_Radial2" cx="0" cy="0" r="1" gradientUnits="userSpaceOnUse" gradientTransform="matrix(40.869421,8.541834,-2.091359,66.506864,398.392939,443.924898)"><stop offset="0" style="stop-color:rgb(0,4,70);stop-opacity:1"/><stop offset="1" style="stop-color:black;stop-opacity:1"/></radialGradient>
        <radialGradient id="_Radial3" cx="0" cy="0" r="1" gradientUnits="userSpaceOnUse" gradientTransform="matrix(-43.467372,1.614349,-0.456309,-78.123396,429.377415,443.842573)"><stop offset="0" style="stop-color:rgb(59,8,107);stop-opacity:1"/><stop offset="0.5" style="stop-color:rgb(44,6,80);stop-opacity:1"/><stop offset="1" style="stop-color:black;stop-opacity:1"/></radialGradient>
        <radialGradient id="_Radial4" cx="0" cy="0" r="1" gradientUnits="userSpaceOnUse" gradientTransform="matrix(38.00017,-1.629073,0.64921,94.266673,395.900517,446.389339)"><stop offset="0" style="stop-color:rgb(255,0,158);stop-opacity:1"/><stop offset="1" style="stop-color:rgb(59,8,107);stop-opacity:1"/></radialGradient>
        <radialGradient id="_Radial5" cx="0" cy="0" r="1" gradientUnits="userSpaceOnUse" gradientTransform="matrix(-18.846461,-46.381935,14.672504,-38.278464,423.978701,450.935516)"><stop offset="0" style="stop-color:rgb(102,209,255);stop-opacity:1"/><stop offset="0.65" style="stop-color:rgb(102,209,255);stop-opacity:0.86"/><stop offset="1" style="stop-color:rgb(102,209,255);stop-opacity:0"/></radialGradient>
        <radialGradient id="_Radial6" cx="0" cy="0" r="1" gradientUnits="userSpaceOnUse" gradientTransform="matrix(-4.045874,32.184856,-18.324847,0.947129,402.844062,454.394022)"><stop offset="0" style="stop-color:rgb(102,209,255);stop-opacity:0.3"/><stop offset="0.65" style="stop-color:rgb(102,209,255);stop-opacity:0.25"/><stop offset="1" style="stop-color:rgb(102,209,255);stop-opacity:0"/></radialGradient>
        <radialGradient id="_Radial7" cx="0" cy="0" r="1" gradientUnits="userSpaceOnUse" gradientTransform="matrix(-4.045874,32.184856,-18.324847,0.947129,431.104119,402.783129)"><stop offset="0" style="stop-color:rgb(102,209,255);stop-opacity:0.1"/><stop offset="0.65" style="stop-color:rgb(102,209,255);stop-opacity:0.08"/><stop offset="1" style="stop-color:rgb(102,209,255);stop-opacity:0"/></radialGradient>
        <radialGradient id="_Radial8" cx="0" cy="0" r="1" gradientUnits="userSpaceOnUse" gradientTransform="matrix(-21.950926,4.304092,-4.988364,-31.174035,424.660585,463.605633)"><stop offset="0" style="stop-color:rgb(255,0,158);stop-opacity:0.6"/><stop offset="0.65" style="stop-color:rgb(255,0,158);stop-opacity:0.51"/><stop offset="1" style="stop-color:rgb(255,0,158);stop-opacity:0"/></radialGradient>
        <radialGradient id="_Radial9" cx="0" cy="0" r="1" gradientUnits="userSpaceOnUse" gradientTransform="matrix(-21.950926,4.304092,-4.988364,-31.174035,394.14651,408.56677)"><stop offset="0" style="stop-color:rgb(255,0,158);stop-opacity:0.21"/><stop offset="0.65" style="stop-color:rgb(255,0,158);stop-opacity:0.18"/><stop offset="1" style="stop-color:rgb(255,0,158);stop-opacity:0"/></radialGradient>
        <radialGradient id="_Radial10" cx="0" cy="0" r="1" gradientUnits="userSpaceOnUse" gradientTransform="matrix(27.542223,-6.787268,-5.700644,58.710106,399.241133,456.243247)"><stop offset="0" style="stop-color:rgb(255,0,158);stop-opacity:1"/><stop offset="0.65" style="stop-color:rgb(255,0,158);stop-opacity:0.86"/><stop offset="1" style="stop-color:rgb(255,0,158);stop-opacity:0"/></radialGradient>
        <radialGradient id="_Radial11" cx="0" cy="0" r="1" gradientUnits="userSpaceOnUse" gradientTransform="matrix(290.352685,-46.036798,15.23676,96.097784,760.57739,603.558967)"><stop offset="0" style="stop-color:rgb(102,209,255);stop-opacity:1"/><stop offset="1" style="stop-color:rgb(102,209,255);stop-opacity:0"/></radialGradient>
        <radialGradient id="_Radial12" cx="0" cy="0" r="1" gradientUnits="userSpaceOnUse" gradientTransform="matrix(248.593221,-34.422419,10.550196,76.191834,844.017482,430.108773)"><stop offset="0" style="stop-color:rgb(102,209,255);stop-opacity:1"/><stop offset="1" style="stop-color:rgb(102,209,255);stop-opacity:0"/></radialGradient>
        <radialGradient id="_Radial13" cx="0" cy="0" r="1" gradientUnits="userSpaceOnUse" gradientTransform="matrix(261.209763,-2.244541,1.121176,130.4775,942.613546,489.544918)"><stop offset="0" style="stop-color:rgb(102,209,255);stop-opacity:1"/><stop offset="0.44" style="stop-color:rgb(102,209,255);stop-opacity:0.7"/><stop offset="1" style="stop-color:rgb(102,209,255);stop-opacity:0"/></radialGradient>
        <radialGradient id="_Radial14" cx="0" cy="0" r="1" gradientUnits="userSpaceOnUse" gradientTransform="matrix(151.096979,230.552411,-499.002498,327.030934,1667.192818,904.283554)"><stop offset="0" style="stop-color:rgb(102,209,255);stop-opacity:1"/><stop offset="0.65" style="stop-color:rgb(102,209,255);stop-opacity:0.85"/><stop offset="1" style="stop-color:rgb(102,209,255);stop-opacity:0"/></radialGradient>
        <radialGradient id="_Radial15" cx="0" cy="0" r="1" gradientUnits="userSpaceOnUse" gradientTransform="matrix(34.075051,74.493369,-347.139064,158.78972,2433.649965,698.643163)"><stop offset="0" style="stop-color:rgb(102,209,255);stop-opacity:1"/><stop offset="0.65" style="stop-color:rgb(102,209,255);stop-opacity:0.86"/><stop offset="1" style="stop-color:rgb(102,209,255);stop-opacity:0"/></radialGradient>
        <radialGradient id="_Radial16" cx="0" cy="0" r="1" gradientUnits="userSpaceOnUse" gradientTransform="matrix(119.925477,219.932395,-373.46065,203.641881,2248.889525,1126.756041)"><stop offset="0" style="stop-color:rgb(102,209,255);stop-opacity:1"/><stop offset="0.64" style="stop-color:rgb(102,209,255);stop-opacity:0.85"/><stop offset="0.83" style="stop-color:rgb(102,209,255);stop-opacity:0.45"/><stop offset="1" style="stop-color:rgb(102,209,255);stop-opacity:0"/></radialGradient>
        <radialGradient id="_Radial17" cx="0" cy="0" r="1" gradientUnits="userSpaceOnUse" gradientTransform="matrix(69.797866,49.655473,-236.966927,333.090896,2315.729655,811.67011)"><stop offset="0" style="stop-color:rgb(102,209,255);stop-opacity:1"/><stop offset="0.64" style="stop-color:rgb(102,209,255);stop-opacity:0.85"/><stop offset="0.83" style="stop-color:rgb(102,209,255);stop-opacity:0.45"/><stop offset="1" style="stop-color:rgb(102,209,255);stop-opacity:0"/></radialGradient>
        <radialGradient id="_Radial18" cx="0" cy="0" r="1" gradientUnits="userSpaceOnUse" gradientTransform="matrix(197.507361,35.980001,-16.97254,93.168467,765.644215,593.864853)"><stop offset="0" style="stop-color:rgb(102,209,255);stop-opacity:1"/><stop offset="1" style="stop-color:rgb(102,209,255);stop-opacity:0"/></radialGradient>
        <radialGradient id="_Radial19" cx="0" cy="0" r="1" gradientUnits="userSpaceOnUse" gradientTransform="matrix(208.174008,-1.353264,0.615609,94.699796,924.435931,522.467739)"><stop offset="0" style="stop-color:rgb(102,209,255);stop-opacity:1"/><stop offset="1" style="stop-color:rgb(102,209,255);stop-opacity:0"/></radialGradient>
        <radialGradient id="_Radial20" cx="0" cy="0" r="1" gradientUnits="userSpaceOnUse" gradientTransform="matrix(-29.865386,182.567228,-358.36177,-66.616561,923.77523,470.388271)"><stop offset="0" style="stop-color:rgb(102,209,255);stop-opacity:1"/><stop offset="1" style="stop-color:rgb(102,209,255);stop-opacity:0"/></radialGradient>
        <radialGradient id="_Radial22" cx="0" cy="0" r="1" gradientUnits="userSpaceOnUse" gradientTransform="matrix(23.321068,-150.212538,599.097001,93.012088,936.545849,407.721898)"><stop offset="0" style="stop-color:rgb(0,4,70);stop-opacity:0.6"/><stop offset="0.45" style="stop-color:rgb(0,4,70);stop-opacity:0.42"/><stop offset="1" style="stop-color:rgb(0,4,70);stop-opacity:0"/></radialGradient>
        <radialGradient id="_Radial23" cx="0" cy="0" r="1" gradientUnits="userSpaceOnUse" gradientTransform="matrix(196.97585,1.068926,-0.546696,100.742133,2260.973095,902.451954)"><stop offset="0" style="stop-color:rgb(102,209,255);stop-opacity:0.61"/><stop offset="0.61" style="stop-color:rgb(102,209,255);stop-opacity:0.51"/><stop offset="0.82" style="stop-color:rgb(102,209,255);stop-opacity:0.26"/><stop offset="1" style="stop-color:rgb(102,209,255);stop-opacity:0"/></radialGradient>
        <radialGradient id="_Radial24" cx="0" cy="0" r="1" gradientUnits="userSpaceOnUse" gradientTransform="matrix(204.545456,11.059784,-3.255757,60.213686,766.50507,580.14091)"><stop offset="0" style="stop-color:rgb(102,209,255);stop-opacity:1"/><stop offset="0.58" style="stop-color:rgb(102,209,255);stop-opacity:0.81"/><stop offset="0.8" style="stop-color:rgb(102,209,255);stop-opacity:0.4"/><stop offset="1" style="stop-color:rgb(102,209,255);stop-opacity:0"/></radialGradient>
        <radialGradient id="_Radial25" cx="0" cy="0" r="1" gradientUnits="userSpaceOnUse" gradientTransform="matrix(259.661228,9.821234,-3.318513,87.737366,717.853165,411.922577)"><stop offset="0" style="stop-color:rgb(102,209,255);stop-opacity:1"/><stop offset="1" style="stop-color:rgb(102,209,255);stop-opacity:0"/></radialGradient>
        <radialGradient id="_Radial26" cx="0" cy="0" r="1" gradientUnits="userSpaceOnUse" gradientTransform="matrix(-113.077758,102.320193,-80.561192,-89.031097,864.348602,448.142797)"><stop offset="0" style="stop-color:rgb(102,209,255);stop-opacity:1"/><stop offset="0.55" style="stop-color:rgb(102,209,255);stop-opacity:0.79"/><stop offset="1" style="stop-color:rgb(102,209,255);stop-opacity:0"/></radialGradient>
        <radialGradient id="_Radial27" cx="0" cy="0" r="1" gradientUnits="userSpaceOnUse" gradientTransform="matrix(-9.466206,35.35175,-115.983197,-31.057043,741.783716,485.796752)"><stop offset="0" style="stop-color:rgb(102,209,255);stop-opacity:1"/><stop offset="0.47" style="stop-color:rgb(102,209,255);stop-opacity:0.73"/><stop offset="1" style="stop-color:rgb(102,209,255);stop-opacity:0"/></radialGradient>
        <radialGradient id="_Radial28" cx="0" cy="0" r="1" gradientUnits="userSpaceOnUse" gradientTransform="matrix(286.061955,-3.987643,1.356185,97.288765,814.972956,576.245767)"><stop offset="0" style="stop-color:rgb(102,209,255);stop-opacity:1"/><stop offset="1" style="stop-color:rgb(102,209,255);stop-opacity:0"/></radialGradient>
        <radialGradient id="_Radial29" cx="0" cy="0" r="1" gradientUnits="userSpaceOnUse" gradientTransform="matrix(286.061955,-3.987643,1.356185,97.288765,904.435592,526.0794)"><stop offset="0" style="stop-color:rgb(102,209,255);stop-opacity:1"/><stop offset="1" style="stop-color:rgb(102,209,255);stop-opacity:0"/></radialGradient>
        <radialGradient id="_Radial30" cx="0" cy="0" r="1" gradientUnits="userSpaceOnUse" gradientTransform="matrix(295.00861,14.005823,-3.116716,65.648275,928.441995,484.839925)"><stop offset="0" style="stop-color:rgb(102,209,255);stop-opacity:1"/><stop offset="1" style="stop-color:rgb(102,209,255);stop-opacity:0"/></radialGradient>
        <radialGradient id="_Radial31" cx="0" cy="0" r="1" gradientUnits="userSpaceOnUse" gradientTransform="matrix(147.957749,-27.237214,20.987758,114.009508,804.778275,388.204161)"><stop offset="0" style="stop-color:rgb(102,209,255);stop-opacity:1"/><stop offset="1" style="stop-color:rgb(102,209,255);stop-opacity:0"/></radialGradient>
        <radialGradient id="_Radial32" cx="0" cy="0" r="1" gradientUnits="userSpaceOnUse" gradientTransform="matrix(119.925477,219.932395,-373.46065,203.641881,1745.83297,856.953104)"><stop offset="0" style="stop-color:rgb(102,209,255);stop-opacity:1"/><stop offset="0.65" style="stop-color:rgb(102,209,255);stop-opacity:0.85"/><stop offset="1" style="stop-color:rgb(102,209,255);stop-opacity:0"/></radialGradient>
        <radialGradient id="_Radial33" cx="0" cy="0" r="1" gradientUnits="userSpaceOnUse" gradientTransform="matrix(34.075051,74.493369,-347.139064,158.78972,2408.16375,888.697506)"><stop offset="0" style="stop-color:rgb(102,209,255);stop-opacity:1"/><stop offset="0.65" style="stop-color:rgb(102,209,255);stop-opacity:0.86"/><stop offset="1" style="stop-color:rgb(102,209,255);stop-opacity:0"/></radialGradient>
        <radialGradient id="_Radial34" cx="0" cy="0" r="1" gradientUnits="userSpaceOnUse" gradientTransform="matrix(119.925477,219.932395,-373.46065,203.641881,2248.889525,1126.756041)"><stop offset="0" style="stop-color:rgb(102,209,255);stop-opacity:1"/><stop offset="0.64" style="stop-color:rgb(102,209,255);stop-opacity:0.85"/><stop offset="0.83" style="stop-color:rgb(102,209,255);stop-opacity:0.45"/><stop offset="1" style="stop-color:rgb(102,209,255);stop-opacity:0"/></radialGradient>
        <linearGradient id="_Linear35" x1="0" y1="0" x2="1" y2="0" gradientUnits="userSpaceOnUse" gradientTransform="matrix(-0.505417,-181.444761,181.444761,-0.505417,745.807861,590.20037)"><stop offset="0" style="stop-color:rgb(0,4,70);stop-opacity:1"/><stop offset="1" style="stop-color:rgb(59,8,107);stop-opacity:1"/></linearGradient>
        <radialGradient id="_Radial36" cx="0" cy="0" r="1" gradientUnits="userSpaceOnUse" gradientTransform="matrix(278.341822,-83.421269,43.159266,144.004386,754.157135,589.559571)"><stop offset="0" style="stop-color:rgb(102,209,255);stop-opacity:1"/><stop offset="1" style="stop-color:rgb(102,209,255);stop-opacity:0"/></radialGradient>
        <radialGradient id="_Radial37" cx="0" cy="0" r="1" gradientUnits="userSpaceOnUse" gradientTransform="matrix(-267.774333,-28.844271,14.923024,-138.537134,827.58085,408.722473)"><stop offset="0" style="stop-color:rgb(255,0,158);stop-opacity:1"/><stop offset="1" style="stop-color:rgb(255,0,158);stop-opacity:0"/></radialGradient>
        <radialGradient id="_Radial38" cx="0" cy="0" r="1" gradientUnits="userSpaceOnUse" gradientTransform="matrix(316.813714,-14.057962,18.453346,415.86918,1409.87473,2571.024221)"><stop offset="0" style="stop-color:rgb(255,0,158);stop-opacity:1"/><stop offset="0.19" style="stop-color:rgb(255,0,158);stop-opacity:0.58"/><stop offset="0.4" style="stop-color:rgb(255,0,158);stop-opacity:0.18"/><stop offset="1" style="stop-color:rgb(255,0,158);stop-opacity:0"/></radialGradient>
        <radialGradient id="_Radial39" cx="0" cy="0" r="1" gradientUnits="userSpaceOnUse" gradientTransform="matrix(164.036342,-11.280191,28.558529,415.297618,1577.478858,2711.543805)"><stop offset="0" style="stop-color:rgb(255,0,158);stop-opacity:0.54"/><stop offset="0.46" style="stop-color:rgb(255,0,158);stop-opacity:0.39"/><stop offset="1" style="stop-color:rgb(255,0,158);stop-opacity:0"/></radialGradient>
        <radialGradient id="_Radial40" cx="0" cy="0" r="1" gradientUnits="userSpaceOnUse" gradientTransform="matrix(477.910835,85.725018,-218.140848,1216.119605,1705.841035,2575.925149)"><stop offset="0" style="stop-color:rgb(255,0,158);stop-opacity:1"/><stop offset="0.19" style="stop-color:rgb(175,4,137);stop-opacity:0.59"/><stop offset="0.41" style="stop-color:rgb(95,7,116);stop-opacity:0.18"/><stop offset="1" style="stop-color:rgb(59,8,107);stop-opacity:0"/></radialGradient>
        <radialGradient id="_Radial41" cx="0" cy="0" r="1" gradientUnits="userSpaceOnUse" gradientTransform="matrix(196.97585,1.068926,-0.546696,100.742133,2260.973095,902.451954)"><stop offset="0" style="stop-color:rgb(255,0,158);stop-opacity:0.65"/><stop offset="0.55" style="stop-color:rgb(255,0,158);stop-opacity:0.52"/><stop offset="1" style="stop-color:rgb(255,0,158);stop-opacity:0"/></radialGradient>
        <radialGradient id="_Radial42" cx="0" cy="0" r="1" gradientUnits="userSpaceOnUse" gradientTransform="matrix(173.226439,-0,0,89.621339,772.148421,595.092561)"><stop offset="0" style="stop-color:rgb(102,209,255);stop-opacity:1"/><stop offset="0.44" style="stop-color:rgb(102,209,255);stop-opacity:0.7"/><stop offset="1" style="stop-color:rgb(102,209,255);stop-opacity:0"/></radialGradient>
        <radialGradient id="_Radial43" cx="0" cy="0" r="1" gradientUnits="userSpaceOnUse" gradientTransform="matrix(80.714897,-0,0,41.759083,771.824954,543.661319)"><stop offset="0" style="stop-color:rgb(102,209,255);stop-opacity:1"/><stop offset="0.44" style="stop-color:rgb(102,209,255);stop-opacity:0.7"/><stop offset="1" style="stop-color:rgb(102,209,255);stop-opacity:0"/></radialGradient>
        <radialGradient id="_Radial44" cx="0" cy="0" r="1" gradientUnits="userSpaceOnUse" gradientTransform="matrix(173.226439,-0,0,89.621339,871.048429,426.808874)"><stop offset="0" style="stop-color:rgb(255,0,158);stop-opacity:1"/><stop offset="0.61" style="stop-color:rgb(255,0,158);stop-opacity:0.83"/><stop offset="0.82" style="stop-color:rgb(255,0,158);stop-opacity:0.43"/><stop offset="1" style="stop-color:rgb(255,0,158);stop-opacity:0"/></radialGradient>
        <radialGradient id="_Radial45" cx="0" cy="0" r="1" gradientUnits="userSpaceOnUse" gradientTransform="matrix(173.226439,-0,0,89.621339,777.906082,405.34686)"><stop offset="0" style="stop-color:rgb(255,0,158);stop-opacity:1"/><stop offset="0.61" style="stop-color:rgb(255,0,158);stop-opacity:0.83"/><stop offset="0.82" style="stop-color:rgb(255,0,158);stop-opacity:0.43"/><stop offset="1" style="stop-color:rgb(255,0,158);stop-opacity:0"/></radialGradient>
        <radialGradient id="_Radial46" cx="0" cy="0" r="1" gradientUnits="userSpaceOnUse" gradientTransform="matrix(119.570701,116.719267,-70.142515,71.856086,802.861788,590.246667)"><stop offset="0" style="stop-color:rgb(255,0,158);stop-opacity:1"/><stop offset="1" style="stop-color:rgb(255,0,158);stop-opacity:0"/></radialGradient>
        <radialGradient id="_Radial47" cx="0" cy="0" r="1" gradientUnits="userSpaceOnUse" gradientTransform="matrix(248.593221,-34.422419,10.550196,76.191834,930.244013,413.632366)"><stop offset="0" style="stop-color:rgb(255,0,158);stop-opacity:1"/><stop offset="0.52" style="stop-color:rgb(255,0,158);stop-opacity:0.76"/><stop offset="1" style="stop-color:rgb(255,0,158);stop-opacity:0"/></radialGradient>
        <radialGradient id="_Radial48" cx="0" cy="0" r="1" gradientUnits="userSpaceOnUse" gradientTransform="matrix(248.593221,-34.422419,10.550196,76.191834,913.273481,399.175987)"><stop offset="0" style="stop-color:rgb(255,0,158);stop-opacity:1"/><stop offset="0.51" style="stop-color:rgb(255,0,158);stop-opacity:0.26"/><stop offset="1" style="stop-color:rgb(255,0,158);stop-opacity:0"/></radialGradient>
        <radialGradient id="_Radial49" cx="0" cy="0" r="1" gradientUnits="userSpaceOnUse" gradientTransform="matrix(280.026239,1.832015,-0.878849,134.333391,973.644577,495.876724)"><stop offset="0" style="stop-color:rgb(255,0,158);stop-opacity:1"/><stop offset="0.52" style="stop-color:rgb(255,0,158);stop-opacity:0.76"/><stop offset="1" style="stop-color:rgb(255,0,158);stop-opacity:0"/></radialGradient>
        <radialGradient id="_Radial50" cx="0" cy="0" r="1" gradientUnits="userSpaceOnUse" gradientTransform="matrix(119.925477,219.932395,-373.46065,203.641881,1798.261755,856.953104)"><stop offset="0" style="stop-color:rgb(255,0,158);stop-opacity:1"/><stop offset="0.65" style="stop-color:rgb(255,0,158);stop-opacity:0.85"/><stop offset="1" style="stop-color:rgb(255,0,158);stop-opacity:0"/></radialGradient>
        <radialGradient id="_Radial51" cx="0" cy="0" r="1" gradientUnits="userSpaceOnUse" gradientTransform="matrix(119.925477,219.932395,-373.46065,203.641881,2350.542403,871.848642)"><stop offset="0" style="stop-color:rgb(255,0,158);stop-opacity:1"/><stop offset="0.65" style="stop-color:rgb(255,0,158);stop-opacity:0.86"/><stop offset="1" style="stop-color:rgb(255,0,158);stop-opacity:0"/></radialGradient>
        <radialGradient id="_Radial52" cx="0" cy="0" r="1" gradientUnits="userSpaceOnUse" gradientTransform="matrix(26.346782,249.114884,-475.68261,50.30894,2226.579908,1055.926034)"><stop offset="0" style="stop-color:rgb(255,0,158);stop-opacity:1"/><stop offset="0.64" style="stop-color:rgb(255,0,158);stop-opacity:0.85"/><stop offset="0.83" style="stop-color:rgb(255,0,158);stop-opacity:0.45"/><stop offset="1" style="stop-color:rgb(255,0,158);stop-opacity:0"/></radialGradient>
        <radialGradient id="_Radial53" cx="0" cy="0" r="1" gradientUnits="userSpaceOnUse" gradientTransform="matrix(184.612855,1.847486,-0.947667,94.697055,776.333935,598.959687)"><stop offset="0" style="stop-color:rgb(255,0,158);stop-opacity:1"/><stop offset="1" style="stop-color:rgb(255,0,158);stop-opacity:0"/></radialGradient>
        <radialGradient id="_Radial54" cx="0" cy="0" r="1" gradientUnits="userSpaceOnUse" gradientTransform="matrix(-29.865386,182.567228,-358.36177,-66.616561,797.619892,418.307494)"><stop offset="0" style="stop-color:rgb(255,0,158);stop-opacity:1"/><stop offset="1" style="stop-color:rgb(255,0,158);stop-opacity:0"/></radialGradient>
        <radialGradient id="_Radial55" cx="0" cy="0" r="1" gradientUnits="userSpaceOnUse" gradientTransform="matrix(184.101028,-18.15339,4.30428,56.049897,966.508494,501.862908)"><stop offset="0" style="stop-color:rgb(255,0,158);stop-opacity:1"/><stop offset="1" style="stop-color:rgb(255,0,158);stop-opacity:0"/></radialGradient>
        <radialGradient id="_Radial57" cx="0" cy="0" r="1" gradientUnits="userSpaceOnUse" gradientTransform="matrix(-8.667233,-132.086339,250.507027,-16.437754,944.366864,461.771624)"><stop offset="0" style="stop-color:rgb(59,8,107);stop-opacity:0.6"/><stop offset="0.49" style="stop-color:rgb(65,2,171);stop-opacity:0.15"/><stop offset="1" style="stop-color:rgb(67,0,192);stop-opacity:0"/></radialGradient>
        <radialGradient id="_Radial58" cx="0" cy="0" r="1" gradientUnits="userSpaceOnUse" gradientTransform="matrix(196.97585,1.068926,-0.546696,100.742133,2260.973095,902.451954)"><stop offset="0" style="stop-color:rgb(255,0,158);stop-opacity:0.61"/><stop offset="0.61" style="stop-color:rgb(255,0,158);stop-opacity:0.51"/><stop offset="0.82" style="stop-color:rgb(255,0,158);stop-opacity:0.26"/><stop offset="1" style="stop-color:rgb(255,0,158);stop-opacity:0"/></radialGradient>
        <radialGradient id="_Radial59" cx="0" cy="0" r="1" gradientUnits="userSpaceOnUse" gradientTransform="matrix(124.14442,3.47478,-1.687171,60.278035,768.69227,600.024541)"><stop offset="0" style="stop-color:rgb(255,0,158);stop-opacity:1"/><stop offset="0.58" style="stop-color:rgb(255,0,158);stop-opacity:0.81"/><stop offset="0.8" style="stop-color:rgb(255,0,158);stop-opacity:0.4"/><stop offset="1" style="stop-color:rgb(255,0,158);stop-opacity:0"/></radialGradient>
        <radialGradient id="_Radial60" cx="0" cy="0" r="1" gradientUnits="userSpaceOnUse" gradientTransform="matrix(259.661228,9.821234,-3.318513,87.737366,717.853165,411.922577)"><stop offset="0" style="stop-color:rgb(255,0,158);stop-opacity:1"/><stop offset="1" style="stop-color:rgb(255,0,158);stop-opacity:0"/></radialGradient>
        <radialGradient id="_Radial61" cx="0" cy="0" r="1" gradientUnits="userSpaceOnUse" gradientTransform="matrix(-113.077758,102.320193,-80.561192,-89.031097,864.348602,448.142797)"><stop offset="0" style="stop-color:rgb(255,0,158);stop-opacity:1"/><stop offset="0.55" style="stop-color:rgb(255,0,158);stop-opacity:0.79"/><stop offset="1" style="stop-color:rgb(255,0,158);stop-opacity:0"/></radialGradient>
        <radialGradient id="_Radial62" cx="0" cy="0" r="1" gradientUnits="userSpaceOnUse" gradientTransform="matrix(-9.466206,35.35175,-115.983197,-31.057043,741.783716,485.796752)"><stop offset="0" style="stop-color:rgb(255,0,158);stop-opacity:1"/><stop offset="0.47" style="stop-color:rgb(255,0,158);stop-opacity:0.73"/><stop offset="1" style="stop-color:rgb(255,0,158);stop-opacity:0"/></radialGradient>
        <radialGradient id="_Radial63" cx="0" cy="0" r="1" gradientUnits="userSpaceOnUse" gradientTransform="matrix(4.290765,170.5579,-170.5579,4.290765,835.476379,590.599531)"><stop offset="0" style="stop-color:rgb(255,0,158);stop-opacity:1"/><stop offset="0.47" style="stop-color:rgb(255,0,158);stop-opacity:0.72"/><stop offset="1" style="stop-color:rgb(255,0,158);stop-opacity:0"/></radialGradient>
        <radialGradient id="_Radial64" cx="0" cy="0" r="1" gradientUnits="userSpaceOnUse" gradientTransform="matrix(4.290765,170.5579,-170.5579,4.290765,956.155717,521.460327)"><stop offset="0" style="stop-color:rgb(255,0,158);stop-opacity:1"/><stop offset="0.47" style="stop-color:rgb(255,0,158);stop-opacity:0.72"/><stop offset="1" style="stop-color:rgb(255,0,158);stop-opacity:0"/></radialGradient>
        <radialGradient id="_Radial65" cx="0" cy="0" r="1" gradientUnits="userSpaceOnUse" gradientTransform="matrix(-32.088349,78.119909,-231.069443,-94.913538,763.00924,393.10765)"><stop offset="0" style="stop-color:rgb(255,0,158);stop-opacity:1"/><stop offset="0.47" style="stop-color:rgb(255,0,158);stop-opacity:0.72"/><stop offset="1" style="stop-color:rgb(255,0,158);stop-opacity:0"/></radialGradient>
        <radialGradient id="_Radial66" cx="0" cy="0" r="1" gradientUnits="userSpaceOnUse" gradientTransform="matrix(392.869579,-289.432903,292.758222,397.383292,2175.160805,1090.546401)"><stop offset="0" style="stop-color:rgb(255,0,158);stop-opacity:1"/><stop offset="1" style="stop-color:rgb(255,0,158);stop-opacity:0"/></radialGradient>
        <radialGradient id="_Radial67" cx="0" cy="0" r="1" gradientUnits="userSpaceOnUse" gradientTransform="matrix(197.728421,-446.118127,56.484766,25.035171,2268.166998,844.659127)"><stop offset="0" style="stop-color:rgb(255,0,158);stop-opacity:1"/><stop offset="1" style="stop-color:rgb(255,0,158);stop-opacity:0"/></radialGradient>
        <radialGradient id="_Radial68" cx="0" cy="0" r="1" gradientUnits="userSpaceOnUse" gradientTransform="matrix(119.925477,219.932395,-373.46065,203.641881,1856.954997,833.762944)"><stop offset="0" style="stop-color:rgb(255,0,158);stop-opacity:1"/><stop offset="0.51" style="stop-color:rgb(255,0,158);stop-opacity:0.76"/><stop offset="1" style="stop-color:rgb(255,0,158);stop-opacity:0"/></radialGradient>
        <linearGradient id="_Linear69" x1="0" y1="0" x2="1" y2="0" gradientUnits="userSpaceOnUse" gradientTransform="matrix(0.505417,180.020353,-180.020353,0.505417,746.109395,409.543494)"><stop offset="0" style="stop-color:rgb(0,4,70);stop-opacity:1"/><stop offset="0.52" style="stop-color:rgb(43,7,97);stop-opacity:1"/><stop offset="1" style="stop-color:rgb(59,8,107);stop-opacity:1"/></linearGradient>
        <radialGradient id="_Radial70" cx="0" cy="0" r="1" gradientUnits="userSpaceOnUse" gradientTransform="matrix(-102.289061,235.340932,-373.200509,-162.208627,774.639033,416.554868)"><stop offset="0" style="stop-color:rgb(102,209,255);stop-opacity:1"/><stop offset="1" style="stop-color:rgb(0,4,70);stop-opacity:0"/></radialGradient>
        <radialGradient id="_Radial71" cx="0" cy="0" r="1" gradientUnits="userSpaceOnUse" gradientTransform="matrix(-8.554368,100.243776,-121.166403,-10.339813,583.354664,463.920524)"><stop offset="0" style="stop-color:rgb(0,4,70);stop-opacity:1"/><stop offset="1" style="stop-color:rgb(0,4,70);stop-opacity:0"/></radialGradient>
        <radialGradient id="_Radial72" cx="0" cy="0" r="1" gradientUnits="userSpaceOnUse" gradientTransform="matrix(-34.13497,139.713638,-270.018472,-65.971173,800.180249,603.369747)"><stop offset="0" style="stop-color:rgb(255,0,158);stop-opacity:0.8"/><stop offset="0.5" style="stop-color:rgb(206,2,145);stop-opacity:0.6"/><stop offset="1" style="stop-color:rgb(59,8,107);stop-opacity:0"/></radialGradient>
        <linearGradient id="_Linear73" x1="0" y1="0" x2="1" y2="0" gradientUnits="userSpaceOnUse" gradientTransform="matrix(-2.270838,20.849723,-20.849723,-2.270838,877.530148,495.999623)"><stop offset="0" style="stop-color:rgb(0,4,70);stop-opacity:0.36"/><stop offset="1" style="stop-color:rgb(0,4,70);stop-opacity:0"/></linearGradient>
        <linearGradient id="_Linear74" x1="0" y1="0" x2="1" y2="0" gradientUnits="userSpaceOnUse" gradientTransform="matrix(-15.354196,41.648907,-41.648907,-15.354196,877.530148,495.999623)"><stop offset="0" style="stop-color:rgb(0,4,70);stop-opacity:0.36"/><stop offset="0.48" style="stop-color:rgb(45,7,98);stop-opacity:0.09"/><stop offset="1" style="stop-color:rgb(59,8,107);stop-opacity:0"/></linearGradient>
        <radialGradient id="_Radial75" cx="0" cy="0" r="1" gradientUnits="userSpaceOnUse" gradientTransform="matrix(0.582539,30.16282,-116.597257,2.251862,867.41645,502.340898)"><stop offset="0" style="stop-color:rgb(102,209,255);stop-opacity:0.2"/><stop offset="1" style="stop-color:rgb(102,209,255);stop-opacity:0"/></radialGradient>
        <radialGradient id="_Radial76" cx="0" cy="0" r="1" gradientUnits="userSpaceOnUse" gradientTransform="matrix(-65.244395,0.74565,-2.882382,-252.208434,882.54341,511.126033)"><stop offset="0" style="stop-color:rgb(102,209,255);stop-opacity:0.09"/><stop offset="0.67" style="stop-color:rgb(102,209,255);stop-opacity:0.08"/><stop offset="0.85" style="stop-color:rgb(102,209,255);stop-opacity:0.04"/><stop offset="1" style="stop-color:rgb(102,209,255);stop-opacity:0"/></radialGradient>
        <radialGradient id="_Radial77" cx="0" cy="0" r="1" gradientUnits="userSpaceOnUse" gradientTransform="matrix(10.012486,100.579748,-194.386106,19.350697,764.96908,605.117867)"><stop offset="0" style="stop-color:rgb(255,0,158);stop-opacity:1"/><stop offset="0.65" style="stop-color:rgb(255,0,158);stop-opacity:0.86"/><stop offset="1" style="stop-color:rgb(255,0,158);stop-opacity:0"/></radialGradient>
        <radialGradient id="_Radial78" cx="0" cy="0" r="1" gradientUnits="userSpaceOnUse" gradientTransform="matrix(-35.785654,100.760162,-194.734783,-69.161377,786.877614,397.763271)"><stop offset="0" style="stop-color:rgb(102,209,255);stop-opacity:1"/><stop offset="0.65" style="stop-color:rgb(102,209,255);stop-opacity:0.86"/><stop offset="1" style="stop-color:rgb(102,209,255);stop-opacity:0"/></radialGradient>
    </defs>
</svg>
