<?xml version="1.0" encoding="UTF-8" standalone="no"?><!DOCTYPE svg PUBLIC "-//W3C//DTD SVG 1.1//EN" "http://www.w3.org/Graphics/SVG/1.1/DTD/svg11.dtd"><svg width="384px" height="384px" version="1.1" xmlns="http://www.w3.org/2000/svg" xmlns:xlink="http://www.w3.org/1999/xlink" xml:space="preserve" xmlns:serif="http://www.serif.com/" style="fill-rule:evenodd;clip-rule:evenodd;stroke-linecap:round;stroke-linejoin:round;stroke-miterlimit:1.5;"><rect id="color_fill_name" x="0" y="-0" width="384" height="384" style="fill:none;"/><g id="_--Colored-Name" serif:id="- Colored Name"><g><g><g id="CENTER"><g id="Base"><path d="M169.515,160.753l22.487,-31.82l22.487,31.82l-22.487,31.82l-22.487,-31.82Z" style="fill:#0015ca;"/><path id="NW" d="M192.002,160.753l-22.487,0l22.487,-31.82l0,31.82Z" style="fill:url(#_Radial1);"/><path id="SW" d="M192.002,160.753l0,31.82l-22.487,-31.82l22.487,0Z" style="fill:url(#_Radial2);"/><path id="SE" d="M192.002,160.753l22.487,0l-22.487,31.82l0,-31.82Z" style="fill:url(#_Radial3);"/><path id="NE" d="M192.002,160.753l0,-31.82l22.487,31.82l-22.487,0Z" style="fill:url(#_Radial4);"/></g><g id="Highlight"><path id="NW1" serif:id="NW" d="M192.002,160.753l-22.487,-0l22.487,-31.82l0,31.82Zm-0.356,-0.356l-0,-30.346l-21.445,30.346l21.445,0Z" style="fill:url(#_Radial5);"/><path id="SW1" serif:id="SW" d="M192.002,160.753l-0,31.82l-22.487,-31.82l22.487,-0Zm-0.356,0.356l-21.445,0l21.445,30.346l0,-30.346Z" style="fill:url(#_Radial6);"/><path id="SW2" serif:id="SW" d="M192.002,160.753l-0,31.82l-22.487,-31.82l22.487,-0Zm-0.356,0.356l-21.445,0l21.445,30.346l0,-30.346Z" style="fill:url(#_Radial7);"/><path id="SE1" serif:id="SE" d="M192.002,160.753l22.487,0l-22.487,31.82l-0,-31.82Zm0.356,0.356l0,30.346l21.445,-30.346l-21.445,-0Z" style="fill:url(#_Radial8);"/><path id="SE2" serif:id="SE" d="M192.002,160.753l22.487,0l-22.487,31.82l-0,-31.82Zm0.356,0.356l0,30.346l21.445,-30.346l-21.445,-0Z" style="fill:url(#_Radial9);"/><path id="NE1" serif:id="NE" d="M192.002,160.753l0,-31.82l22.487,31.82l-22.487,-0Zm0.356,-0.356l21.445,-0l-21.445,-30.346l-0,30.346Z" style="fill:url(#_Radial10);"/></g></g><g id="NW2" serif:id="NW"><g id="Base1" serif:id="Base"><path id="Base2" serif:id="Base" d="M94.228,62.972c5.127,5.113 52.871,15.314 63.214,27.096c10.157,11.57 11.211,27.497 14.591,40.135c-18.948,-35.688 -41,-30.477 -52.047,-41.46c11.022,10.952 8.275,33.929 43.93,52.945c-12.573,-3.374 -30.923,-5.443 -42.617,-15.522c-11.842,-10.206 -21.976,-58.103 -27.072,-63.195Z" style="fill:#0015ca;"/><path id="Base3" serif:id="Base" d="M94.228,62.972c5.127,5.113 52.871,15.314 63.214,27.096c10.157,11.57 11.211,27.497 14.591,40.135c-18.948,-35.688 -41,-30.477 -52.047,-41.46c11.022,10.952 8.275,33.929 43.93,52.945c-12.573,-3.374 -30.923,-5.443 -42.617,-15.522c-11.842,-10.206 -21.976,-58.103 -27.072,-63.195Z" style="fill:url(#_Radial11);"/><path id="Base4" serif:id="Base" d="M94.228,62.972c5.127,5.113 52.871,15.314 63.214,27.096c10.157,11.57 11.211,27.497 14.591,40.135c-18.948,-35.688 -41,-30.477 -52.047,-41.46c11.022,10.952 8.275,33.929 43.93,52.945c-12.573,-3.374 -30.923,-5.443 -42.617,-15.522c-11.842,-10.206 -21.976,-58.103 -27.072,-63.195Z" style="fill:url(#_Radial12);"/><path id="Base5" serif:id="Base" d="M94.228,62.972c5.127,5.113 52.871,15.314 63.214,27.096c10.157,11.57 11.211,27.497 14.591,40.135c-18.948,-35.688 -41,-30.477 -52.047,-41.46c11.022,10.952 8.275,33.929 43.93,52.945c-12.573,-3.374 -30.923,-5.443 -42.617,-15.522c-11.842,-10.206 -21.976,-58.103 -27.072,-63.195Z" style="fill:url(#_Radial13);"/></g><g id="Highlights"><path id="Top-Border" serif:id="Top Border" d="M126.792,93.393c11.89,5.801 29.604,7.492 45.242,36.811c-3.374,-12.573 -4.727,-28.685 -14.805,-40.379c-10.206,-11.842 -57.906,-21.746 -62.999,-26.842c5.113,5.127 15.118,52.641 26.9,62.984c11.57,10.157 30.149,12.341 42.787,15.722c-29.485,-15.654 -32.75,-34.049 -39.181,-46.198c-1.352,-2.554 -2.845,-4.832 -4.752,-6.751c1.945,1.956 4.241,3.401 6.808,4.653Zm-2.274,2.32c1.74,3.3 3.069,6.847 4.938,10.886c4.858,10.495 12.319,23.086 32.214,34.208c-12.449,-3.04 -29.498,-5.545 -40.342,-15.065c-2.804,-2.462 -5.511,-7.065 -8.086,-12.703c-3.891,-8.518 -7.469,-19.391 -10.569,-28.891c-2.418,-7.409 -4.548,-13.984 -6.31,-17.967c-0.374,-0.845 -0.537,-1.346 -0.88,-1.947c0.904,0.514 1.906,0.836 3.348,1.42c5.647,2.288 15.061,5.133 24.788,8.39c8.318,2.786 16.866,5.874 23.474,9.176c4.37,2.184 7.888,4.456 9.91,6.801c9.44,10.953 11.207,25.828 14.155,37.955c-11.148,-19.84 -23.419,-26.469 -33.665,-30.646c-3.868,-1.577 -7.295,-2.614 -10.481,-4.16c-0.617,-0.236 -1.43,-0.679 -2.312,-1.226c-1.012,-0.591 -1.971,-1.234 -2.87,-1.954c-0.722,-0.53 -1.402,-1.057 -1.974,-1.528c-0.518,-0.427 -0.948,-0.807 -1.238,-1.1c0.286,0.31 0.661,0.745 1.084,1.262c0.499,0.609 1.067,1.331 1.637,2.093c0.553,0.696 1.07,1.428 1.56,2.193c0.701,1.046 1.295,2.04 1.62,2.802Z" style="fill:url(#_Radial14);"/><path id="Top-Border1" serif:id="Top Border" d="M126.792,93.393c11.89,5.801 29.604,7.492 45.242,36.811c-3.374,-12.573 -4.727,-28.685 -14.805,-40.379c-10.206,-11.842 -57.906,-21.746 -62.999,-26.842c5.113,5.127 15.118,52.641 26.9,62.984c11.57,10.157 30.149,12.341 42.787,15.722c-29.485,-15.654 -32.75,-34.049 -39.181,-46.198c-1.352,-2.554 -2.845,-4.832 -4.752,-6.751c1.945,1.956 4.241,3.401 6.808,4.653Zm-2.274,2.32c1.74,3.3 3.069,6.847 4.938,10.886c4.858,10.495 12.319,23.086 32.214,34.208c-12.449,-3.04 -29.498,-5.545 -40.342,-15.065c-2.804,-2.462 -5.511,-7.065 -8.086,-12.703c-3.891,-8.518 -7.469,-19.391 -10.569,-28.891c-2.418,-7.409 -4.548,-13.984 -6.31,-17.967c-0.374,-0.845 -0.537,-1.346 -0.88,-1.947c0.904,0.514 1.906,0.836 3.348,1.42c5.647,2.288 15.061,5.133 24.788,8.39c8.318,2.786 16.866,5.874 23.474,9.176c4.37,2.184 7.888,4.456 9.91,6.801c9.44,10.953 11.207,25.828 14.155,37.955c-11.148,-19.84 -23.419,-26.469 -33.665,-30.646c-3.868,-1.577 -7.295,-2.614 -10.481,-4.16c-0.617,-0.236 -1.43,-0.679 -2.312,-1.226c-1.012,-0.591 -1.971,-1.234 -2.87,-1.954c-0.722,-0.53 -1.402,-1.057 -1.974,-1.528c-0.518,-0.427 -0.948,-0.807 -1.238,-1.1c0.286,0.31 0.661,0.745 1.084,1.262c0.499,0.609 1.067,1.331 1.637,2.093c0.553,0.696 1.07,1.428 1.56,2.193c0.701,1.046 1.295,2.04 1.62,2.802Z" style="fill:url(#_Radial15);"/><path id="Top-Border2" serif:id="Top Border" d="M126.792,93.393c11.89,5.801 29.604,7.492 45.242,36.811c-3.374,-12.573 -4.727,-28.685 -14.805,-40.379c-10.206,-11.842 -57.906,-21.746 -62.999,-26.842c5.113,5.127 15.118,52.641 26.9,62.984c11.57,10.157 30.149,12.341 42.787,15.722c-29.485,-15.654 -32.75,-34.049 -39.181,-46.198c-1.352,-2.554 -2.845,-4.832 -4.752,-6.751c1.945,1.956 4.241,3.401 6.808,4.653Zm-2.274,2.32c1.74,3.3 3.069,6.847 4.938,10.886c4.858,10.495 12.319,23.086 32.214,34.208c-12.449,-3.04 -29.498,-5.545 -40.342,-15.065c-2.804,-2.462 -5.511,-7.065 -8.086,-12.703c-3.891,-8.518 -7.469,-19.391 -10.569,-28.891c-2.418,-7.409 -4.548,-13.984 -6.31,-17.967c-0.374,-0.845 -0.537,-1.346 -0.88,-1.947c0.904,0.514 1.906,0.836 3.348,1.42c5.647,2.288 15.061,5.133 24.788,8.39c8.318,2.786 16.866,5.874 23.474,9.176c4.37,2.184 7.888,4.456 9.91,6.801c9.44,10.953 11.207,25.828 14.155,37.955c-11.148,-19.84 -23.419,-26.469 -33.665,-30.646c-3.868,-1.577 -7.295,-2.614 -10.481,-4.16c-0.617,-0.236 -1.43,-0.679 -2.312,-1.226c-1.012,-0.591 -1.971,-1.234 -2.87,-1.954c-0.722,-0.53 -1.402,-1.057 -1.974,-1.528c-0.518,-0.427 -0.948,-0.807 -1.238,-1.1c0.286,0.31 0.661,0.745 1.084,1.262c0.499,0.609 1.067,1.331 1.637,2.093c0.553,0.696 1.07,1.428 1.56,2.193c0.701,1.046 1.295,2.04 1.62,2.802Z" style="fill:url(#_Radial16);"/><path id="Top-Border3" serif:id="Top Border" d="M126.792,93.393c11.89,5.801 29.604,7.492 45.242,36.811c-3.374,-12.573 -4.727,-28.685 -14.805,-40.379c-10.206,-11.842 -57.906,-21.746 -62.999,-26.842c5.113,5.127 15.118,52.641 26.9,62.984c11.57,10.157 30.149,12.341 42.787,15.722c-29.485,-15.654 -32.75,-34.049 -39.181,-46.198c-1.352,-2.554 -2.845,-4.832 -4.752,-6.751c1.945,1.956 4.241,3.401 6.808,4.653Zm-2.274,2.32c1.74,3.3 3.069,6.847 4.938,10.886c4.858,10.495 12.319,23.086 32.214,34.208c-12.449,-3.04 -29.498,-5.545 -40.342,-15.065c-2.804,-2.462 -5.511,-7.065 -8.086,-12.703c-3.891,-8.518 -7.469,-19.391 -10.569,-28.891c-2.418,-7.409 -4.548,-13.984 -6.31,-17.967c-0.374,-0.845 -0.537,-1.346 -0.88,-1.947c0.904,0.514 1.906,0.836 3.348,1.42c5.647,2.288 15.061,5.133 24.788,8.39c8.318,2.786 16.866,5.874 23.474,9.176c4.37,2.184 7.888,4.456 9.91,6.801c9.44,10.953 11.207,25.828 14.155,37.955c-11.148,-19.84 -23.419,-26.469 -33.665,-30.646c-3.868,-1.577 -7.295,-2.614 -10.481,-4.16c-0.617,-0.236 -1.43,-0.679 -2.312,-1.226c-1.012,-0.591 -1.971,-1.234 -2.87,-1.954c-0.722,-0.53 -1.402,-1.057 -1.974,-1.528c-0.518,-0.427 -0.948,-0.807 -1.238,-1.1c0.286,0.31 0.661,0.745 1.084,1.262c0.499,0.609 1.067,1.331 1.637,2.093c0.553,0.696 1.07,1.428 1.56,2.193c0.701,1.046 1.295,2.04 1.62,2.802Z" style="fill:url(#_Radial17);"/></g></g><g id="W"><g id="Base6" serif:id="Base"><path id="Base7" serif:id="Base" d="M46.5,160.753c0,0 38.006,19.366 63.513,26.919l47.262,-17.223c-18.053,0.065 -57.453,-3.621 -67.11,-9.697c9.34,-6.468 49.165,-9.704 67.1,-9.69l-47.224,-17.177c-25.54,7.531 -63.541,26.868 -63.541,26.868Z" style="fill:#0015ca;"/><path id="Full" d="M46.5,160.753c0,0 38.006,19.366 63.513,26.919l47.262,-17.223c-18.053,0.065 -57.453,-3.621 -67.11,-9.697c9.34,-6.468 49.165,-9.704 67.1,-9.69l-47.224,-17.177c-25.54,7.531 -63.541,26.868 -63.541,26.868Z" style="fill:url(#_Radial18);"/><path id="Full1" serif:id="Full" d="M46.5,160.753c0,0 38.006,19.366 63.513,26.919l47.262,-17.223c-18.053,0.065 -57.453,-3.621 -67.11,-9.697c9.34,-6.468 49.165,-9.704 67.1,-9.69l-47.224,-17.177c-25.54,7.531 -63.541,26.868 -63.541,26.868Z" style="fill:url(#_Radial19);"/><path id="Full2" serif:id="Full" d="M46.5,160.753c0,0 38.006,19.366 63.513,26.919l47.262,-17.223c-18.053,0.065 -57.453,-3.621 -67.11,-9.697c9.34,-6.468 49.165,-9.704 67.1,-9.69l-47.224,-17.177c-25.54,7.531 -63.541,26.868 -63.541,26.868Z" style="fill:url(#_Radial20);"/></g><g id="Blend"><clipPath id="_clip21"><path id="Botom" d="M47.167,160.753c3.4,1.718 38.585,19.569 62.841,26.761l46.416,-16.915c-12.809,-0.035 -35.257,-1.819 -50.946,-4.914c-6.895,-1.36 -12.486,-2.977 -15.393,-4.806c-0.043,-0.027 -0.069,-0.073 -0.07,-0.124c-0.001,-0.05 0.023,-0.098 0.065,-0.127c2.813,-1.948 8.378,-3.608 15.279,-4.972c15.697,-3.101 38.32,-4.684 51.059,-4.744l-46.382,-16.871c-24.287,7.171 -59.47,24.991 -62.869,26.71Z"/></clipPath><g clip-path="url(#_clip21)"><path d="M46.541,160.753c-0.027,0.014 -0.041,0.021 -0.041,0.021c0,0 38.006,19.345 63.513,26.898l47.262,-17.223c-18.053,0.065 -57.45,-3.621 -67.109,-9.696l-43.626,-0Z" style="fill:url(#_Radial22);"/></g><path id="Bend" d="M90.016,160.756l-43.184,0.019" style="fill:none;stroke:url(#_Radial23);stroke-width:0.36px;"/></g><g id="Highlights1" serif:id="Highlights"><path id="Border" d="M46.5,160.753c0,0 38.001,-19.337 63.541,-26.868l47.224,17.177c-17.935,-0.014 -57.759,3.223 -67.1,9.69c9.657,6.075 49.057,9.761 67.11,9.697l-47.262,17.223c-25.507,-7.553 -63.513,-26.919 -63.513,-26.919Zm0.709,0c4.795,2.418 39.133,19.556 62.794,26.582l45.473,-16.571c-12.953,-0.117 -34.711,-1.889 -50.03,-4.912c-6.921,-1.366 -12.533,-2.993 -15.451,-4.829c-0.091,-0.057 -0.147,-0.156 -0.15,-0.264c-0.002,-0.107 0.049,-0.209 0.138,-0.27c2.825,-1.956 8.412,-3.63 15.343,-4.999c15.325,-3.027 37.248,-4.61 50.147,-4.74l-45.442,-16.529c-23.69,7.005 -58.026,24.117 -62.821,26.531Z" style="fill:url(#_Radial24);"/><path id="Border1" serif:id="Border" d="M46.5,160.753c0,0 38.001,-19.337 63.541,-26.868l47.224,17.177c-17.935,-0.014 -57.759,3.223 -67.1,9.69c9.657,6.075 49.057,9.761 67.11,9.697l-47.262,17.223c-25.507,-7.553 -63.513,-26.919 -63.513,-26.919Zm0.709,0c4.795,2.418 39.133,19.556 62.794,26.582l45.473,-16.571c-12.953,-0.117 -34.711,-1.889 -50.03,-4.912c-6.921,-1.366 -12.533,-2.993 -15.451,-4.829c-0.091,-0.057 -0.147,-0.156 -0.15,-0.264c-0.002,-0.107 0.049,-0.209 0.138,-0.27c2.825,-1.956 8.412,-3.63 15.343,-4.999c15.325,-3.027 37.248,-4.61 50.147,-4.74l-45.442,-16.529c-23.69,7.005 -58.026,24.117 -62.821,26.531Z" style="fill:url(#_Radial25);"/><path id="Border2" serif:id="Border" d="M46.5,160.753c0,0 38.001,-19.337 63.541,-26.868l47.224,17.177c-17.935,-0.014 -57.759,3.223 -67.1,9.69c9.657,6.075 49.057,9.761 67.11,9.697l-47.262,17.223c-25.507,-7.553 -63.513,-26.919 -63.513,-26.919Zm0.709,0c4.795,2.418 39.133,19.556 62.794,26.582l45.473,-16.571c-12.953,-0.117 -34.711,-1.889 -50.03,-4.912c-6.921,-1.366 -12.533,-2.993 -15.451,-4.829c-0.091,-0.057 -0.147,-0.156 -0.15,-0.264c-0.002,-0.107 0.049,-0.209 0.138,-0.27c2.825,-1.956 8.412,-3.63 15.343,-4.999c15.325,-3.027 37.248,-4.61 50.147,-4.74l-45.442,-16.529c-23.69,7.005 -58.026,24.117 -62.821,26.531Z" style="fill:url(#_Radial26);"/><path id="Border3" serif:id="Border" d="M46.5,160.753c0,0 38.001,-19.337 63.541,-26.868l47.224,17.177c-17.935,-0.014 -57.759,3.223 -67.1,9.69c9.657,6.075 49.057,9.761 67.11,9.697l-47.262,17.223c-25.507,-7.553 -63.513,-26.919 -63.513,-26.919Zm0.709,0c4.795,2.418 39.133,19.556 62.794,26.582l45.473,-16.571c-12.953,-0.117 -34.711,-1.889 -50.03,-4.912c-6.921,-1.366 -12.533,-2.993 -15.451,-4.829c-0.091,-0.057 -0.147,-0.156 -0.15,-0.264c-0.002,-0.107 0.049,-0.209 0.138,-0.27c2.825,-1.956 8.412,-3.63 15.343,-4.999c15.325,-3.027 37.248,-4.61 50.147,-4.74l-45.442,-16.529c-23.69,7.005 -58.026,24.117 -62.821,26.531Z" style="fill:url(#_Radial27);"/></g></g><g id="SW3" serif:id="SW"><g id="Base8" serif:id="Base"><path id="Base9" serif:id="Base" d="M94.228,258.535c5.127,-5.113 52.871,-15.314 63.214,-27.096c10.157,-11.57 11.211,-27.497 14.591,-40.135c-18.948,35.688 -41,30.477 -52.047,41.46c11.022,-10.952 8.275,-33.929 43.93,-52.945c-12.573,3.374 -30.923,5.443 -42.617,15.522c-11.842,10.206 -21.976,58.103 -27.072,63.195Z" style="fill:#0015ca;"/><path id="Base10" serif:id="Base" d="M94.228,258.535c5.127,-5.113 52.871,-15.314 63.214,-27.096c10.157,-11.57 11.211,-27.497 14.591,-40.135c-18.948,35.688 -41,30.477 -52.047,41.46c11.022,-10.952 8.275,-33.929 43.93,-52.945c-12.573,3.374 -30.923,5.443 -42.617,15.522c-11.842,10.206 -21.976,58.103 -27.072,63.195Z" style="fill:url(#_Radial28);"/><path id="Base11" serif:id="Base" d="M94.228,258.535c5.127,-5.113 52.871,-15.314 63.214,-27.096c10.157,-11.57 11.211,-27.497 14.591,-40.135c-18.948,35.688 -41,30.477 -52.047,41.46c11.022,-10.952 8.275,-33.929 43.93,-52.945c-12.573,3.374 -30.923,5.443 -42.617,15.522c-11.842,10.206 -21.976,58.103 -27.072,63.195Z" style="fill:url(#_Radial29);"/><path id="Base12" serif:id="Base" d="M94.228,258.535c5.127,-5.113 52.871,-15.314 63.214,-27.096c10.157,-11.57 11.211,-27.497 14.591,-40.135c-18.948,35.688 -41,30.477 -52.047,41.46c11.022,-10.952 8.275,-33.929 43.93,-52.945c-12.573,3.374 -30.923,5.443 -42.617,15.522c-11.842,10.206 -21.976,58.103 -27.072,63.195Z" style="fill:url(#_Radial30);"/><path id="Base13" serif:id="Base" d="M94.228,258.535c5.127,-5.113 52.871,-15.314 63.214,-27.096c10.157,-11.57 11.211,-27.497 14.591,-40.135c-18.948,35.688 -41,30.477 -52.047,41.46c11.022,-10.952 8.275,-33.929 43.93,-52.945c-12.573,3.374 -30.923,5.443 -42.617,15.522c-11.842,10.206 -21.976,58.103 -27.072,63.195Z" style="fill:url(#_Radial31);"/></g><g id="Highlights2" serif:id="Highlights"><path id="Top-Border4" serif:id="Top Border" d="M126.792,228.114c11.89,-5.801 29.604,-7.492 45.242,-36.811c-3.374,12.573 -4.727,28.685 -14.805,40.379c-10.206,11.842 -57.906,21.746 -62.999,26.842c5.113,-5.127 15.118,-52.641 26.9,-62.984c11.57,-10.157 30.149,-12.341 42.787,-15.722c-29.485,15.654 -32.75,34.049 -39.181,46.198c-1.352,2.554 -2.845,4.832 -4.752,6.751c1.945,-1.956 4.241,-3.401 6.808,-4.653Zm-2.274,-2.32c1.74,-3.3 3.069,-6.847 4.938,-10.886c4.858,-10.495 12.319,-23.086 32.214,-34.208c-12.449,3.04 -29.498,5.545 -40.342,15.065c-2.804,2.462 -5.511,7.065 -8.086,12.703c-3.891,8.518 -7.469,19.391 -10.569,28.891c-2.418,7.409 -4.548,13.984 -6.31,17.967c-0.374,0.845 -0.537,1.346 -0.88,1.947c0.904,-0.514 1.906,-0.836 3.348,-1.42c5.647,-2.288 15.061,-5.133 24.788,-8.39c8.318,-2.786 16.866,-5.874 23.474,-9.176c4.37,-2.184 7.888,-4.456 9.91,-6.801c9.44,-10.953 11.207,-25.828 14.155,-37.955c-11.148,19.84 -23.419,26.469 -33.665,30.646c-3.868,1.577 -7.295,2.614 -10.481,4.16c-0.617,0.236 -1.43,0.679 -2.312,1.226c-1.012,0.591 -1.971,1.234 -2.87,1.954c-0.722,0.53 -1.402,1.057 -1.974,1.528c-0.518,0.427 -0.948,0.807 -1.238,1.1c0.286,-0.31 0.661,-0.745 1.084,-1.262c0.499,-0.609 1.067,-1.331 1.637,-2.093c0.553,-0.696 1.07,-1.428 1.56,-2.193c0.701,-1.046 1.295,-2.04 1.62,-2.802Z" style="fill:url(#_Radial32);"/><path id="Top-Border5" serif:id="Top Border" d="M126.792,228.114c11.89,-5.801 29.604,-7.492 45.242,-36.811c-3.374,12.573 -4.727,28.685 -14.805,40.379c-10.206,11.842 -57.906,21.746 -62.999,26.842c5.113,-5.127 15.118,-52.641 26.9,-62.984c11.57,-10.157 30.149,-12.341 42.787,-15.722c-29.485,15.654 -32.75,34.049 -39.181,46.198c-1.352,2.554 -2.845,4.832 -4.752,6.751c1.945,-1.956 4.241,-3.401 6.808,-4.653Zm-2.274,-2.32c1.74,-3.3 3.069,-6.847 4.938,-10.886c4.858,-10.495 12.319,-23.086 32.214,-34.208c-12.449,3.04 -29.498,5.545 -40.342,15.065c-2.804,2.462 -5.511,7.065 -8.086,12.703c-3.891,8.518 -7.469,19.391 -10.569,28.891c-2.418,7.409 -4.548,13.984 -6.31,17.967c-0.374,0.845 -0.537,1.346 -0.88,1.947c0.904,-0.514 1.906,-0.836 3.348,-1.42c5.647,-2.288 15.061,-5.133 24.788,-8.39c8.318,-2.786 16.866,-5.874 23.474,-9.176c4.37,-2.184 7.888,-4.456 9.91,-6.801c9.44,-10.953 11.207,-25.828 14.155,-37.955c-11.148,19.84 -23.419,26.469 -33.665,30.646c-3.868,1.577 -7.295,2.614 -10.481,4.16c-0.617,0.236 -1.43,0.679 -2.312,1.226c-1.012,0.591 -1.971,1.234 -2.87,1.954c-0.722,0.53 -1.402,1.057 -1.974,1.528c-0.518,0.427 -0.948,0.807 -1.238,1.1c0.286,-0.31 0.661,-0.745 1.084,-1.262c0.499,-0.609 1.067,-1.331 1.637,-2.093c0.553,-0.696 1.07,-1.428 1.56,-2.193c0.701,-1.046 1.295,-2.04 1.62,-2.802Z" style="fill:url(#_Radial33);"/><path id="Top-Border6" serif:id="Top Border" d="M126.792,228.114c11.89,-5.801 29.604,-7.492 45.242,-36.811c-3.374,12.573 -4.727,28.685 -14.805,40.379c-10.206,11.842 -57.906,21.746 -62.999,26.842c5.113,-5.127 15.118,-52.641 26.9,-62.984c11.57,-10.157 30.149,-12.341 42.787,-15.722c-29.485,15.654 -32.75,34.049 -39.181,46.198c-1.352,2.554 -2.845,4.832 -4.752,6.751c1.945,-1.956 4.241,-3.401 6.808,-4.653Zm-2.274,-2.32c1.74,-3.3 3.069,-6.847 4.938,-10.886c4.858,-10.495 12.319,-23.086 32.214,-34.208c-12.449,3.04 -29.498,5.545 -40.342,15.065c-2.804,2.462 -5.511,7.065 -8.086,12.703c-3.891,8.518 -7.469,19.391 -10.569,28.891c-2.418,7.409 -4.548,13.984 -6.31,17.967c-0.374,0.845 -0.537,1.346 -0.88,1.947c0.904,-0.514 1.906,-0.836 3.348,-1.42c5.647,-2.288 15.061,-5.133 24.788,-8.39c8.318,-2.786 16.866,-5.874 23.474,-9.176c4.37,-2.184 7.888,-4.456 9.91,-6.801c9.44,-10.953 11.207,-25.828 14.155,-37.955c-11.148,19.84 -23.419,26.469 -33.665,30.646c-3.868,1.577 -7.295,2.614 -10.481,4.16c-0.617,0.236 -1.43,0.679 -2.312,1.226c-1.012,0.591 -1.971,1.234 -2.87,1.954c-0.722,0.53 -1.402,1.057 -1.974,1.528c-0.518,0.427 -0.948,0.807 -1.238,1.1c0.286,-0.31 0.661,-0.745 1.084,-1.262c0.499,-0.609 1.067,-1.331 1.637,-2.093c0.553,-0.696 1.07,-1.428 1.56,-2.193c0.701,-1.046 1.295,-2.04 1.62,-2.802Z" style="fill:url(#_Radial34);"/></g></g><g id="S"><g id="Base14" serif:id="Base"><path id="Base15" serif:id="Base" d="M192.002,306.255c0,0 -19.334,-38.024 -26.887,-63.531l14.707,-40.407c-0.065,18.053 6.106,50.638 12.181,60.295c6.468,-9.34 12.194,-42.36 12.18,-60.295l14.707,40.407c-7.531,25.54 -26.887,63.531 -26.887,63.531Z" style="fill:url(#_Linear35);"/><path id="Base16" serif:id="Base" d="M192.002,306.255c0,0 -19.334,-38.024 -26.887,-63.531l14.707,-40.407c-0.065,18.053 6.106,50.638 12.181,60.295c6.468,-9.34 12.194,-42.36 12.18,-60.295l14.707,40.407c-7.531,25.54 -26.887,63.531 -26.887,63.531Z" style="fill:url(#_Radial36);"/><path id="Base17" serif:id="Base" d="M192.002,306.255c0,0 -19.334,-38.024 -26.887,-63.531l14.707,-40.407c-0.065,18.053 6.106,50.638 12.181,60.295c6.468,-9.34 12.194,-42.36 12.18,-60.295l14.707,40.407c-7.531,25.54 -26.887,63.531 -26.887,63.531Z" style="fill:url(#_Radial37);"/></g><g id="Blend1" serif:id="Blend"><path id="Right-Inner" serif:id="Right Inner" d="M192.002,305.59l-0,-42.677c0.099,0 0.191,-0.048 0.247,-0.129c1.953,-2.821 3.845,-7.785 5.528,-13.844c3.74,-13.461 6.471,-32.338 6.691,-44.959l14.105,38.754c-7.022,23.75 -24.221,58.197 -26.571,62.856c-0,-0 -0,-0 -0,-0.001Z" style="fill:url(#_Radial38);"/><path id="Right-Inner1" serif:id="Right Inner" d="M192.002,305.59l-0,-42.677c0.099,0 0.191,-0.048 0.247,-0.129c1.953,-2.821 3.845,-7.785 5.528,-13.844c3.74,-13.461 6.471,-32.338 6.691,-44.959l14.105,38.754c-7.022,23.75 -24.221,58.197 -26.571,62.856c-0,-0 -0,-0 -0,-0.001Z" style="fill:url(#_Radial39);"/><path id="Left-Inner" serif:id="Left Inner" d="M192.002,305.59c-2.348,-4.665 -19.529,-39.136 -26.571,-62.856l14.102,-38.745c0.297,18.375 6.307,49.391 12.216,58.783c0.054,0.085 0.147,0.138 0.247,0.14c0.002,0 0.004,0 0.006,0l0,42.677Z" style="fill:url(#_Radial40);"/><path id="Bend1" serif:id="Bend" d="M192.012,262.632l-0.011,42.959" style="fill:none;stroke:url(#_Radial41);stroke-width:0.36px;"/></g><g id="Highlights3" serif:id="Highlights"><path id="Base18" serif:id="Base" d="M192.002,306.255c0,0 -19.334,-38.024 -26.887,-63.531l14.707,-40.407c-0.065,18.053 6.106,50.638 12.181,60.295c6.468,-9.34 12.194,-42.36 12.18,-60.295l14.707,40.407c-7.531,25.54 -26.887,63.531 -26.887,63.531Zm0,-0.709c2.417,-4.795 19.545,-39.122 26.55,-62.811l-14.066,-38.646c-0.233,12.622 -2.96,31.432 -6.689,44.856c-1.684,6.061 -3.577,11.027 -5.531,13.85c-0.061,0.088 -0.163,0.14 -0.27,0.138c-0.107,-0.002 -0.207,-0.059 -0.264,-0.15c-5.898,-9.375 -11.898,-40.292 -12.217,-58.686l-14.063,38.638c7.026,23.66 24.136,58.013 26.55,62.811Z" style="fill:url(#_Radial42);"/><path id="Base19" serif:id="Base" d="M192.002,306.255c0,0 -19.334,-38.024 -26.887,-63.531l14.707,-40.407c-0.065,18.053 6.106,50.638 12.181,60.295c6.468,-9.34 12.194,-42.36 12.18,-60.295l14.707,40.407c-7.531,25.54 -26.887,63.531 -26.887,63.531Zm0,-0.709c2.417,-4.795 19.545,-39.122 26.55,-62.811l-14.066,-38.646c-0.233,12.622 -2.96,31.432 -6.689,44.856c-1.684,6.061 -3.577,11.027 -5.531,13.85c-0.061,0.088 -0.163,0.14 -0.27,0.138c-0.107,-0.002 -0.207,-0.059 -0.264,-0.15c-5.898,-9.375 -11.898,-40.292 -12.217,-58.686l-14.063,38.638c7.026,23.66 24.136,58.013 26.55,62.811Z" style="fill:url(#_Radial43);"/><path id="Base20" serif:id="Base" d="M192.002,306.255c0,0 -19.334,-38.024 -26.887,-63.531l14.707,-40.407c-0.065,18.053 6.106,50.638 12.181,60.295c6.468,-9.34 12.194,-42.36 12.18,-60.295l14.707,40.407c-7.531,25.54 -26.887,63.531 -26.887,63.531Zm0,-0.709c2.417,-4.795 19.545,-39.122 26.55,-62.811l-14.066,-38.646c-0.233,12.622 -2.96,31.432 -6.689,44.856c-1.684,6.061 -3.577,11.027 -5.531,13.85c-0.061,0.088 -0.163,0.14 -0.27,0.138c-0.107,-0.002 -0.207,-0.059 -0.264,-0.15c-5.898,-9.375 -11.898,-40.292 -12.217,-58.686l-14.063,38.638c7.026,23.66 24.136,58.013 26.55,62.811Z" style="fill:url(#_Radial44);"/><path id="Base21" serif:id="Base" d="M192.002,306.255c0,0 -19.334,-38.024 -26.887,-63.531l14.707,-40.407c-0.065,18.053 6.106,50.638 12.181,60.295c6.468,-9.34 12.194,-42.36 12.18,-60.295l14.707,40.407c-7.531,25.54 -26.887,63.531 -26.887,63.531Zm0,-0.709c2.417,-4.795 19.545,-39.122 26.55,-62.811l-14.066,-38.646c-0.233,12.622 -2.96,31.432 -6.689,44.856c-1.684,6.061 -3.577,11.027 -5.531,13.85c-0.061,0.088 -0.163,0.14 -0.27,0.138c-0.107,-0.002 -0.207,-0.059 -0.264,-0.15c-5.898,-9.375 -11.898,-40.292 -12.217,-58.686l-14.063,38.638c7.026,23.66 24.136,58.013 26.55,62.811Z" style="fill:url(#_Radial45);"/></g></g><g id="SE3" serif:id="SE"><g id="Base22" serif:id="Base"><path id="Base23" serif:id="Base" d="M289.771,258.535c-5.127,-5.113 -52.871,-15.314 -63.214,-27.096c-10.157,-11.57 -11.211,-27.497 -14.591,-40.135c18.948,35.688 41,30.477 52.047,41.46c-11.022,-10.952 -8.275,-33.929 -43.93,-52.945c12.573,3.374 30.923,5.443 42.617,15.522c11.842,10.206 21.976,58.103 27.072,63.195Z" style="fill:#4300c0;"/><path id="Base24" serif:id="Base" d="M289.771,258.535c-5.127,-5.113 -52.871,-15.314 -63.214,-27.096c-10.157,-11.57 -11.211,-27.497 -14.591,-40.135c18.948,35.688 41,30.477 52.047,41.46c-11.022,-10.952 -8.275,-33.929 -43.93,-52.945c12.573,3.374 30.923,5.443 42.617,15.522c11.842,10.206 21.976,58.103 27.072,63.195Z" style="fill:url(#_Radial46);"/><path id="Base25" serif:id="Base" d="M289.771,258.535c-5.127,-5.113 -52.871,-15.314 -63.214,-27.096c-10.157,-11.57 -11.211,-27.497 -14.591,-40.135c18.948,35.688 41,30.477 52.047,41.46c-11.022,-10.952 -8.275,-33.929 -43.93,-52.945c12.573,3.374 30.923,5.443 42.617,15.522c11.842,10.206 21.976,58.103 27.072,63.195Z" style="fill:url(#_Radial47);"/><path id="Base26" serif:id="Base" d="M289.771,258.535c-5.127,-5.113 -52.871,-15.314 -63.214,-27.096c-10.157,-11.57 -11.211,-27.497 -14.591,-40.135c18.948,35.688 41,30.477 52.047,41.46c-11.022,-10.952 -8.275,-33.929 -43.93,-52.945c12.573,3.374 30.923,5.443 42.617,15.522c11.842,10.206 21.976,58.103 27.072,63.195Z" style="fill:url(#_Radial48);"/><path id="Base27" serif:id="Base" d="M289.771,258.535c-5.127,-5.113 -52.871,-15.314 -63.214,-27.096c-10.157,-11.57 -11.211,-27.497 -14.591,-40.135c18.948,35.688 41,30.477 52.047,41.46c-11.022,-10.952 -8.275,-33.929 -43.93,-52.945c12.573,3.374 30.923,5.443 42.617,15.522c11.842,10.206 21.976,58.103 27.072,63.195Z" style="fill:url(#_Radial49);"/></g><g id="Highlights4" serif:id="Highlights"><path id="Top-Border7" serif:id="Top Border" d="M257.207,228.114c-11.89,-5.801 -29.604,-7.492 -45.242,-36.811c3.374,12.573 4.727,28.685 14.805,40.379c10.206,11.842 57.906,21.746 62.999,26.842c-5.113,-5.127 -15.118,-52.641 -26.9,-62.984c-11.57,-10.157 -30.149,-12.341 -42.787,-15.722c29.485,15.654 32.75,34.049 39.181,46.198c1.352,2.554 2.845,4.832 4.752,6.751c-1.945,-1.956 -4.241,-3.401 -6.808,-4.653Zm2.274,-2.32c-1.74,-3.3 -3.069,-6.847 -4.938,-10.886c-4.858,-10.495 -12.319,-23.086 -32.214,-34.208c12.449,3.04 29.498,5.545 40.342,15.065c2.804,2.462 5.511,7.065 8.086,12.703c3.891,8.518 7.469,19.391 10.569,28.891c2.418,7.409 4.548,13.984 6.31,17.967c0.374,0.845 0.537,1.346 0.88,1.947c-0.904,-0.514 -1.906,-0.836 -3.348,-1.42c-5.647,-2.288 -15.061,-5.133 -24.788,-8.39c-8.318,-2.786 -16.866,-5.874 -23.474,-9.176c-4.37,-2.184 -7.888,-4.456 -9.91,-6.801c-9.44,-10.953 -11.207,-25.828 -14.155,-37.955c11.148,19.84 23.419,26.469 33.665,30.646c3.868,1.577 7.295,2.614 10.481,4.16c0.617,0.236 1.43,0.679 2.312,1.226c1.012,0.591 1.971,1.234 2.87,1.954c0.722,0.53 1.402,1.057 1.974,1.528c0.518,0.427 0.948,0.807 1.238,1.1c-0.286,-0.31 -0.661,-0.745 -1.084,-1.262c-0.499,-0.609 -1.067,-1.331 -1.637,-2.093c-0.553,-0.696 -1.07,-1.428 -1.56,-2.193c-0.701,-1.046 -1.295,-2.04 -1.62,-2.802Z" style="fill:url(#_Radial50);"/><path id="Top-Border8" serif:id="Top Border" d="M257.207,228.114c-11.89,-5.801 -29.604,-7.492 -45.242,-36.811c3.374,12.573 4.727,28.685 14.805,40.379c10.206,11.842 57.906,21.746 62.999,26.842c-5.113,-5.127 -15.118,-52.641 -26.9,-62.984c-11.57,-10.157 -30.149,-12.341 -42.787,-15.722c29.485,15.654 32.75,34.049 39.181,46.198c1.352,2.554 2.845,4.832 4.752,6.751c-1.945,-1.956 -4.241,-3.401 -6.808,-4.653Zm2.274,-2.32c-1.74,-3.3 -3.069,-6.847 -4.938,-10.886c-4.858,-10.495 -12.319,-23.086 -32.214,-34.208c12.449,3.04 29.498,5.545 40.342,15.065c2.804,2.462 5.511,7.065 8.086,12.703c3.891,8.518 7.469,19.391 10.569,28.891c2.418,7.409 4.548,13.984 6.31,17.967c0.374,0.845 0.537,1.346 0.88,1.947c-0.904,-0.514 -1.906,-0.836 -3.348,-1.42c-5.647,-2.288 -15.061,-5.133 -24.788,-8.39c-8.318,-2.786 -16.866,-5.874 -23.474,-9.176c-4.37,-2.184 -7.888,-4.456 -9.91,-6.801c-9.44,-10.953 -11.207,-25.828 -14.155,-37.955c11.148,19.84 23.419,26.469 33.665,30.646c3.868,1.577 7.295,2.614 10.481,4.16c0.617,0.236 1.43,0.679 2.312,1.226c1.012,0.591 1.971,1.234 2.87,1.954c0.722,0.53 1.402,1.057 1.974,1.528c0.518,0.427 0.948,0.807 1.238,1.1c-0.286,-0.31 -0.661,-0.745 -1.084,-1.262c-0.499,-0.609 -1.067,-1.331 -1.637,-2.093c-0.553,-0.696 -1.07,-1.428 -1.56,-2.193c-0.701,-1.046 -1.295,-2.04 -1.62,-2.802Z" style="fill:url(#_Radial51);"/><path id="Top-Border9" serif:id="Top Border" d="M257.207,228.114c-11.89,-5.801 -29.604,-7.492 -45.242,-36.811c3.374,12.573 4.727,28.685 14.805,40.379c10.206,11.842 57.906,21.746 62.999,26.842c-5.113,-5.127 -15.118,-52.641 -26.9,-62.984c-11.57,-10.157 -30.149,-12.341 -42.787,-15.722c29.485,15.654 32.75,34.049 39.181,46.198c1.352,2.554 2.845,4.832 4.752,6.751c-1.945,-1.956 -4.241,-3.401 -6.808,-4.653Zm2.274,-2.32c-1.74,-3.3 -3.069,-6.847 -4.938,-10.886c-4.858,-10.495 -12.319,-23.086 -32.214,-34.208c12.449,3.04 29.498,5.545 40.342,15.065c2.804,2.462 5.511,7.065 8.086,12.703c3.891,8.518 7.469,19.391 10.569,28.891c2.418,7.409 4.548,13.984 6.31,17.967c0.374,0.845 0.537,1.346 0.88,1.947c-0.904,-0.514 -1.906,-0.836 -3.348,-1.42c-5.647,-2.288 -15.061,-5.133 -24.788,-8.39c-8.318,-2.786 -16.866,-5.874 -23.474,-9.176c-4.37,-2.184 -7.888,-4.456 -9.91,-6.801c-9.44,-10.953 -11.207,-25.828 -14.155,-37.955c11.148,19.84 23.419,26.469 33.665,30.646c3.868,1.577 7.295,2.614 10.481,4.16c0.617,0.236 1.43,0.679 2.312,1.226c1.012,0.591 1.971,1.234 2.87,1.954c0.722,0.53 1.402,1.057 1.974,1.528c0.518,0.427 0.948,0.807 1.238,1.1c-0.286,-0.31 -0.661,-0.745 -1.084,-1.262c-0.499,-0.609 -1.067,-1.331 -1.637,-2.093c-0.553,-0.696 -1.07,-1.428 -1.56,-2.193c-0.701,-1.046 -1.295,-2.04 -1.62,-2.802Z" style="fill:url(#_Radial52);"/></g></g><g id="E"><g id="Base28" serif:id="Base"><path id="Base29" serif:id="Base" d="M337.5,160.755c0,0 -38.006,19.364 -63.513,26.916l-47.262,-17.223c18.053,0.065 57.453,-3.621 67.11,-9.697c-9.34,-6.468 -49.165,-9.704 -67.1,-9.69l47.224,-17.177c25.54,7.531 63.541,26.87 63.541,26.87Z" style="fill:#4300c0;"/><path id="Full3" serif:id="Full" d="M337.5,160.755c0,0 -38.006,19.364 -63.513,26.916l-47.262,-17.223c18.053,0.065 57.453,-3.621 67.11,-9.697c-9.34,-6.468 -49.165,-9.704 -67.1,-9.69l47.224,-17.177c25.54,7.531 63.541,26.87 63.541,26.87Z" style="fill:url(#_Radial53);"/><path id="Full4" serif:id="Full" d="M337.5,160.755c0,0 -38.006,19.364 -63.513,26.916l-47.262,-17.223c18.053,0.065 57.453,-3.621 67.11,-9.697c-9.34,-6.468 -49.165,-9.704 -67.1,-9.69l47.224,-17.177c25.54,7.531 63.541,26.87 63.541,26.87Z" style="fill:url(#_Radial54);"/><path id="Full5" serif:id="Full" d="M337.5,160.755c0,0 -38.006,19.364 -63.513,26.916l-47.262,-17.223c18.053,0.065 57.453,-3.621 67.11,-9.697c-9.34,-6.468 -49.165,-9.704 -67.1,-9.69l47.224,-17.177c25.54,7.531 63.541,26.87 63.541,26.87Z" style="fill:url(#_Radial55);"/></g><g id="Blend2"><clipPath id="_clip56"><path id="Botom1" serif:id="Botom" d="M336.833,160.753c-3.4,1.718 -38.586,19.569 -62.841,26.761l-46.416,-16.915c12.809,-0.035 35.257,-1.819 50.946,-4.914c6.895,-1.36 12.486,-2.977 15.393,-4.806c0.043,-0.027 0.069,-0.073 0.07,-0.124c0.001,-0.05 -0.023,-0.098 -0.065,-0.127c-2.813,-1.948 -8.378,-3.608 -15.279,-4.972c-15.697,-3.101 -38.32,-4.684 -51.059,-4.744l46.382,-16.871c24.287,7.171 59.47,24.991 62.869,26.71Z"/></clipPath><g clip-path="url(#_clip56)"><path d="M293.834,160.753l43.666,-0c0,0 -38.006,19.366 -63.513,26.919l-47.262,-17.223c18.053,0.065 57.45,-3.621 67.109,-9.696Z" style="fill:url(#_Radial57);"/></g><path id="Bend2" serif:id="Bend" d="M293.984,160.756l43.184,-0" style="fill:none;stroke:url(#_Radial58);stroke-width:0.36px;"/></g><g id="Highlights5" serif:id="Highlights"><path id="Border4" serif:id="Border" d="M337.5,160.755c0,0 -38.006,19.364 -63.513,26.916l-47.262,-17.223c18.053,0.065 57.453,-3.621 67.11,-9.697c-9.34,-6.468 -49.165,-9.704 -67.1,-9.69l47.224,-17.177c25.54,7.531 63.541,26.87 63.541,26.87Zm-0.709,0c-4.795,-2.415 -39.132,-19.528 -62.822,-26.534l-45.441,16.529c12.896,0.13 34.82,1.712 50.145,4.74c6.931,1.369 12.518,3.043 15.343,4.999c0.088,0.061 0.14,0.163 0.138,0.27c-0.002,0.107 -0.059,0.207 -0.15,0.264c-2.918,1.836 -8.53,3.463 -15.451,4.829c-15.318,3.022 -37.077,4.795 -50.031,4.912l45.475,16.571c23.66,-7.026 57.998,-24.162 62.793,-26.579Z" style="fill:url(#_Radial59);"/><path id="Border5" serif:id="Border" d="M337.5,160.755c0,0 -38.006,19.364 -63.513,26.916l-47.262,-17.223c18.053,0.065 57.453,-3.621 67.11,-9.697c-9.34,-6.468 -49.165,-9.704 -67.1,-9.69l47.224,-17.177c25.54,7.531 63.541,26.87 63.541,26.87Zm-0.709,0c-4.795,-2.415 -39.132,-19.528 -62.822,-26.534l-45.441,16.529c12.896,0.13 34.82,1.712 50.145,4.74c6.931,1.369 12.518,3.043 15.343,4.999c0.088,0.061 0.14,0.163 0.138,0.27c-0.002,0.107 -0.059,0.207 -0.15,0.264c-2.918,1.836 -8.53,3.463 -15.451,4.829c-15.318,3.022 -37.077,4.795 -50.031,4.912l45.475,16.571c23.66,-7.026 57.998,-24.162 62.793,-26.579Z" style="fill:url(#_Radial60);"/><path id="Border6" serif:id="Border" d="M337.5,160.755c0,0 -38.006,19.364 -63.513,26.916l-47.262,-17.223c18.053,0.065 57.453,-3.621 67.11,-9.697c-9.34,-6.468 -49.165,-9.704 -67.1,-9.69l47.224,-17.177c25.54,7.531 63.541,26.87 63.541,26.87Zm-0.709,0c-4.795,-2.415 -39.132,-19.528 -62.822,-26.534l-45.441,16.529c12.896,0.13 34.82,1.712 50.145,4.74c6.931,1.369 12.518,3.043 15.343,4.999c0.088,0.061 0.14,0.163 0.138,0.27c-0.002,0.107 -0.059,0.207 -0.15,0.264c-2.918,1.836 -8.53,3.463 -15.451,4.829c-15.318,3.022 -37.077,4.795 -50.031,4.912l45.475,16.571c23.66,-7.026 57.998,-24.162 62.793,-26.579Z" style="fill:url(#_Radial61);"/><path id="Border7" serif:id="Border" d="M337.5,160.755c0,0 -38.006,19.364 -63.513,26.916l-47.262,-17.223c18.053,0.065 57.453,-3.621 67.11,-9.697c-9.34,-6.468 -49.165,-9.704 -67.1,-9.69l47.224,-17.177c25.54,7.531 63.541,26.87 63.541,26.87Zm-0.709,0c-4.795,-2.415 -39.132,-19.528 -62.822,-26.534l-45.441,16.529c12.896,0.13 34.82,1.712 50.145,4.74c6.931,1.369 12.518,3.043 15.343,4.999c0.088,0.061 0.14,0.163 0.138,0.27c-0.002,0.107 -0.059,0.207 -0.15,0.264c-2.918,1.836 -8.53,3.463 -15.451,4.829c-15.318,3.022 -37.077,4.795 -50.031,4.912l45.475,16.571c23.66,-7.026 57.998,-24.162 62.793,-26.579Z" style="fill:url(#_Radial62);"/></g></g><g id="NE2" serif:id="NE"><g id="Color"><path id="Base30" serif:id="Base" d="M289.784,62.984c-5.113,5.127 -15.315,52.871 -27.096,63.214c-11.57,10.157 -29.953,12.119 -42.591,15.5c35.688,-18.948 32.935,-41.9 43.919,-52.947c-10.952,11.022 -33.034,5.807 -52.051,41.462c3.374,-12.573 4.546,-28.463 14.624,-40.157c10.206,-11.842 58.103,-21.976 63.195,-27.072Z" style="fill:#4300c0;"/><path id="Purple" d="M289.784,62.984c-5.113,5.127 -15.315,52.871 -27.096,63.214c-11.57,10.157 -29.953,12.119 -42.591,15.5c35.688,-18.948 32.935,-41.9 43.919,-52.947c-10.952,11.022 -33.034,5.807 -52.051,41.462c3.374,-12.573 4.546,-28.463 14.624,-40.157c10.206,-11.842 58.103,-21.976 63.195,-27.072Z" style="fill:url(#_Radial63);"/><path id="Purple1" serif:id="Purple" d="M289.784,62.984c-5.113,5.127 -15.315,52.871 -27.096,63.214c-11.57,10.157 -29.953,12.119 -42.591,15.5c35.688,-18.948 32.935,-41.9 43.919,-52.947c-10.952,11.022 -33.034,5.807 -52.051,41.462c3.374,-12.573 4.546,-28.463 14.624,-40.157c10.206,-11.842 58.103,-21.976 63.195,-27.072Z" style="fill:url(#_Radial64);"/><path id="Purple2" serif:id="Purple" d="M289.784,62.984c-5.113,5.127 -15.315,52.871 -27.096,63.214c-11.57,10.157 -29.953,12.119 -42.591,15.5c35.688,-18.948 32.935,-41.901 43.919,-52.947c-10.952,11.022 -33.034,5.807 -52.051,41.462c3.374,-12.573 4.546,-28.463 14.624,-40.157c10.206,-11.842 58.103,-21.976 63.195,-27.072Z" style="fill:url(#_Radial65);"/></g><g id="Highlights6" serif:id="Highlights"><path id="Bottom-Border" serif:id="Bottom Border" d="M257.202,93.409c-11.89,5.801 -29.601,7.485 -45.238,36.804c3.374,-12.573 4.546,-28.464 14.624,-40.157c10.206,-11.842 58.103,-21.976 63.195,-27.072c-5.113,5.127 -15.315,52.871 -27.096,63.214c-11.57,10.157 -29.953,12.119 -42.591,15.5c29.485,-15.654 32.731,-34.042 39.162,-46.191c1.352,-2.554 2.845,-4.832 4.752,-6.751c-1.945,1.956 -4.241,3.401 -6.808,4.653Zm2.274,2.32c-1.74,3.3 -3.246,7.062 -5.116,11.101c-4.858,10.495 -12.123,22.864 -32.018,33.986c12.449,-3.04 29.302,-5.323 40.146,-14.843c2.804,-2.462 5.511,-7.065 8.086,-12.703c3.891,-8.518 7.469,-19.391 10.569,-28.891c2.418,-7.409 4.548,-13.984 6.31,-17.967c0.374,-0.845 0.734,-1.576 1.076,-2.176c-0.904,0.514 -2.103,1.065 -3.544,1.649c-5.647,2.288 -15.061,5.133 -24.788,8.39c-8.318,2.786 -16.866,5.874 -23.474,9.176c-4.37,2.184 -7.888,4.456 -9.91,6.801c-9.44,10.953 -11.027,25.606 -13.974,37.734c11.148,-19.84 23.239,-26.248 33.484,-30.425c3.868,-1.577 7.472,-2.829 10.658,-4.375c0.617,-0.236 1.43,-0.679 2.312,-1.226c1.012,-0.591 1.971,-1.234 2.87,-1.954c0.722,-0.53 1.402,-1.057 1.974,-1.528c0.518,-0.427 0.948,-0.807 1.238,-1.1c-0.286,0.31 -0.661,0.745 -1.084,1.262c-0.499,0.609 -1.067,1.331 -1.637,2.093c-0.553,0.696 -1.07,1.428 -1.56,2.193c-0.701,1.046 -1.295,2.04 -1.62,2.802Z" style="fill:url(#_Radial66);"/><path id="Bottom-Border1" serif:id="Bottom Border" d="M257.202,93.409c-11.89,5.801 -29.601,7.485 -45.238,36.804c3.374,-12.573 4.546,-28.464 14.624,-40.157c10.206,-11.842 58.103,-21.976 63.195,-27.072c-5.113,5.127 -15.315,52.871 -27.096,63.214c-11.57,10.157 -29.953,12.119 -42.591,15.5c29.485,-15.654 32.731,-34.042 39.162,-46.191c1.352,-2.554 2.845,-4.832 4.752,-6.751c-1.945,1.956 -4.241,3.401 -6.808,4.653Zm2.274,2.32c-1.74,3.3 -3.246,7.062 -5.116,11.101c-4.858,10.495 -12.123,22.864 -32.018,33.986c12.449,-3.04 29.302,-5.323 40.146,-14.843c2.804,-2.462 5.511,-7.065 8.086,-12.703c3.891,-8.518 7.469,-19.391 10.569,-28.891c2.418,-7.409 4.548,-13.984 6.31,-17.967c0.374,-0.845 0.734,-1.576 1.076,-2.176c-0.904,0.514 -2.103,1.065 -3.544,1.649c-5.647,2.288 -15.061,5.133 -24.788,8.39c-8.318,2.786 -16.866,5.874 -23.474,9.176c-4.37,2.184 -7.888,4.456 -9.91,6.801c-9.44,10.953 -11.027,25.606 -13.974,37.734c11.148,-19.84 23.239,-26.248 33.484,-30.425c3.868,-1.577 7.472,-2.829 10.658,-4.375c0.617,-0.236 1.43,-0.679 2.312,-1.226c1.012,-0.591 1.971,-1.234 2.87,-1.954c0.722,-0.53 1.402,-1.057 1.974,-1.528c0.518,-0.427 0.948,-0.807 1.238,-1.1c-0.286,0.31 -0.661,0.745 -1.084,1.262c-0.499,0.609 -1.067,1.331 -1.637,2.093c-0.553,0.696 -1.07,1.428 -1.56,2.193c-0.701,1.046 -1.295,2.04 -1.62,2.802Z" style="fill:url(#_Radial67);"/><path id="Top-Border10" serif:id="Top Border" d="M257.202,93.409c-11.89,5.801 -29.601,7.485 -45.238,36.804c3.374,-12.573 4.546,-28.464 14.624,-40.157c10.206,-11.842 58.103,-21.976 63.195,-27.072c-5.113,5.127 -15.315,52.871 -27.096,63.214c-11.57,10.157 -29.953,12.119 -42.591,15.5c29.485,-15.654 32.731,-34.042 39.162,-46.191c1.352,-2.554 2.845,-4.832 4.752,-6.751c-1.945,1.956 -4.241,3.401 -6.808,4.653Zm2.274,2.32c-1.74,3.3 -3.246,7.062 -5.116,11.101c-4.858,10.495 -12.123,22.864 -32.018,33.986c12.449,-3.04 29.302,-5.323 40.146,-14.843c2.804,-2.462 5.511,-7.065 8.086,-12.703c3.891,-8.518 7.469,-19.391 10.569,-28.891c2.418,-7.409 4.548,-13.984 6.31,-17.967c0.374,-0.845 0.734,-1.576 1.076,-2.176c-0.904,0.514 -2.103,1.065 -3.544,1.649c-5.647,2.288 -15.061,5.133 -24.788,8.39c-8.318,2.786 -16.866,5.874 -23.474,9.176c-4.37,2.184 -7.888,4.456 -9.91,6.801c-9.44,10.953 -11.027,25.606 -13.974,37.734c11.148,-19.84 23.239,-26.248 33.484,-30.425c3.868,-1.577 7.472,-2.829 10.658,-4.375c0.617,-0.236 1.43,-0.679 2.312,-1.226c1.012,-0.591 1.971,-1.234 2.87,-1.954c0.722,-0.53 1.402,-1.057 1.974,-1.528c0.518,-0.427 0.948,-0.807 1.238,-1.1c-0.286,0.31 -0.661,0.745 -1.084,1.262c-0.499,0.609 -1.067,1.331 -1.637,2.093c-0.553,0.696 -1.07,1.428 -1.56,2.193c-0.701,1.046 -1.295,2.04 -1.62,2.802Z" style="fill:url(#_Radial68);"/></g></g><g id="N"><g id="Colors"><path id="Base31" serif:id="Base" d="M192,15.255c0,0 19.365,38.006 26.918,63.513l-14.736,40.438c0.065,-18.053 -6.108,-50.629 -12.183,-60.286c-6.468,9.34 -12.199,42.305 -12.185,60.24l-14.682,-40.365c7.531,-25.54 26.869,-63.541 26.869,-63.541Z" style="fill:url(#_Linear69);"/><path id="Blue" d="M192,15.255c0,0 19.365,38.006 26.918,63.513l-14.736,40.438c0.065,-18.053 -6.108,-50.629 -12.183,-60.286c-6.468,9.34 -12.199,42.305 -12.185,60.24l-14.682,-40.365c7.531,-25.54 26.869,-63.541 26.869,-63.541Z" style="fill:url(#_Radial70);"/><path id="Purple3" serif:id="Purple" d="M192,15.255c0,0 19.365,38.006 26.918,63.513l-14.736,40.438c0.065,-18.053 -6.108,-50.629 -12.183,-60.286c-6.468,9.34 -12.199,42.305 -12.185,60.24l-14.682,-40.365c7.531,-25.54 26.869,-63.541 26.869,-63.541Z" style="fill:url(#_Radial71);"/></g><g id="Blend3" serif:id="Blend"><path id="Left-Spill" serif:id="Left Spill" d="M192.002,58.925l-0.002,-43.67c0,0 19.365,38.006 26.918,63.513l-14.736,40.438c0.065,-18.05 -6.106,-50.617 -12.18,-60.281Z" style="fill:url(#_Linear72);"/><path id="Left-Highlight" serif:id="Left Highlight" d="M192.002,58.925c-0.001,-0.002 -0.002,-0.003 -0.003,-0.005c-6.468,9.34 -12.199,42.305 -12.185,60.24l-14.682,-40.365c7.397,-25.086 26.202,-62.193 26.869,-63.505l0.002,43.635Z" style="fill:url(#_Radial73);"/><path id="Left-border-highlight" serif:id="Left border highlight" d="M192.002,58.925l-0.003,-0.005c-6.468,9.34 -12.199,42.305 -12.185,60.24l-14.682,-40.365c7.397,-25.086 26.202,-62.193 26.869,-63.505l0.002,43.635Zm-0.32,-0.109l-0.001,-42.18c-3.366,6.718 -19.473,39.359 -26.212,62.149l14.041,38.603c0.234,-12.62 2.963,-31.404 6.694,-44.812c1.669,-5.999 3.543,-10.924 5.478,-13.76Z" style="fill:url(#_Radial74);"/></g><g id="Highlights7" serif:id="Highlights"><path id="Right-border" serif:id="Right border" d="M192,15.255c0,0 19.365,38.006 26.918,63.513l-14.736,40.438c0.065,-18.053 -6.108,-50.629 -12.183,-60.286c-6.468,9.34 -12.199,42.305 -12.185,60.24l-14.682,-40.365c7.531,-25.54 26.869,-63.541 26.869,-63.541Zm-0,0.665c-2.349,4.659 -19.531,39.116 -26.553,62.866l14.08,38.711c0.22,-12.619 2.954,-31.471 6.695,-44.916c1.684,-6.051 3.576,-11.011 5.529,-13.832c0.057,-0.083 0.153,-0.131 0.253,-0.129c0.101,0.002 0.194,0.055 0.247,0.14c5.909,9.392 11.922,40.402 12.219,58.776l14.131,-38.778c-7.042,-23.72 -24.254,-58.178 -26.602,-62.838Z" style="fill:url(#_Radial75);"/><path id="Left-border" serif:id="Left border" d="M192,15.255c0,0 19.365,38.006 26.918,63.513l-14.736,40.438c0.065,-18.053 -6.108,-50.629 -12.183,-60.286c-6.468,9.34 -12.199,42.305 -12.185,60.24l-14.682,-40.365c7.531,-25.54 26.869,-63.541 26.869,-63.541Zm-0,0.665c-2.349,4.659 -19.531,39.116 -26.553,62.866l14.08,38.711c0.22,-12.619 2.954,-31.471 6.695,-44.916c1.684,-6.051 3.576,-11.011 5.529,-13.832c0.057,-0.083 0.153,-0.131 0.253,-0.129c0.101,0.002 0.194,0.055 0.247,0.14c5.909,9.392 11.922,40.402 12.219,58.776l14.131,-38.778c-7.042,-23.72 -24.254,-58.178 -26.602,-62.838Z" style="fill:url(#_Radial76);"/></g></g></g><g id="name_white_symbol"><path d="M95.919,346.745l-5.236,0l-2.081,-5.415l-9.529,0l-1.968,5.415l-5.106,0l9.285,-23.838l5.09,0l9.545,23.838Zm-8.862,-9.431l-3.285,-8.846l-3.22,8.846l6.504,0Z" style="fill:#fff;fill-rule:nonzero;"/><path d="M113.474,346.745l0,-23.838l10.13,0c2.547,0 4.398,0.214 5.553,0.642c1.155,0.428 2.079,1.19 2.772,2.285c0.694,1.095 1.041,2.347 1.041,3.756c0,1.789 -0.526,3.266 -1.577,4.431c-1.052,1.165 -2.623,1.9 -4.716,2.203c1.041,0.607 1.9,1.274 2.577,2c0.678,0.726 1.591,2.016 2.74,3.87l2.911,4.651l-5.756,0l-3.48,-5.187c-1.236,-1.854 -2.081,-3.022 -2.537,-3.504c-0.455,-0.482 -0.938,-0.813 -1.447,-0.992c-0.509,-0.179 -1.317,-0.268 -2.423,-0.268l-0.976,0l0,9.951l-4.813,0Zm4.813,-13.756l3.561,0c2.309,0 3.751,-0.098 4.325,-0.293c0.575,-0.195 1.024,-0.531 1.35,-1.008c0.325,-0.477 0.488,-1.073 0.488,-1.789c0,-0.802 -0.214,-1.45 -0.642,-1.943c-0.428,-0.493 -1.033,-0.805 -1.813,-0.935c-0.39,-0.054 -1.561,-0.081 -3.512,-0.081l-3.756,0l0,6.049Z" style="fill:#fff;fill-rule:nonzero;"/><path d="M152.558,346.745l0,-23.838l4.813,0l0,10.586l9.724,-10.586l6.472,0l-8.976,9.285l9.464,14.553l-6.228,0l-6.553,-11.187l-3.903,3.984l0,7.203l-4.813,0Z" style="fill:#fff;fill-rule:nonzero;"/><path d="M213.025,346.745l-5.236,0l-2.081,-5.415l-9.529,0l-1.968,5.415l-5.106,0l9.285,-23.838l5.09,0l9.545,23.838Zm-8.862,-9.431l-3.285,-8.846l-3.22,8.846l6.504,0Z" style="fill:#fff;fill-rule:nonzero;"/><path d="M230.612,346.745l0,-23.838l4.683,0l9.756,15.919l0,-15.919l4.472,0l0,23.838l-4.829,0l-9.61,-15.545l0,15.545l-4.472,0Z" style="fill:#fff;fill-rule:nonzero;"/><rect x="269.453" y="322.907" width="4.813" height="23.838" style="fill:#fff;fill-rule:nonzero;"/><path d="M292.617,338.988l4.683,-0.455c0.282,1.572 0.854,2.726 1.715,3.464c0.862,0.737 2.024,1.106 3.488,1.106c1.55,0 2.718,-0.328 3.504,-0.984c0.786,-0.656 1.179,-1.423 1.179,-2.301c0,-0.564 -0.165,-1.043 -0.496,-1.439c-0.331,-0.396 -0.908,-0.74 -1.732,-1.033c-0.564,-0.195 -1.848,-0.542 -3.854,-1.041c-2.58,-0.64 -4.39,-1.426 -5.431,-2.358c-1.463,-1.312 -2.195,-2.911 -2.195,-4.797c0,-1.214 0.344,-2.35 1.033,-3.407c0.688,-1.057 1.68,-1.862 2.976,-2.415c1.295,-0.553 2.859,-0.829 4.691,-0.829c2.992,0 5.244,0.656 6.756,1.968c1.512,1.312 2.306,3.062 2.382,5.252l-4.813,0.211c-0.206,-1.225 -0.648,-2.106 -1.325,-2.642c-0.678,-0.537 -1.694,-0.805 -3.049,-0.805c-1.398,0 -2.493,0.287 -3.285,0.862c-0.509,0.369 -0.764,0.862 -0.764,1.48c0,0.564 0.238,1.046 0.715,1.447c0.607,0.509 2.081,1.041 4.423,1.594c2.342,0.553 4.073,1.125 5.195,1.715c1.122,0.591 2,1.398 2.634,2.423c0.634,1.024 0.951,2.29 0.951,3.797c0,1.366 -0.379,2.645 -1.138,3.838c-0.759,1.192 -1.832,2.079 -3.22,2.659c-1.388,0.58 -3.117,0.87 -5.187,0.87c-3.014,0 -5.328,-0.696 -6.943,-2.089c-1.615,-1.393 -2.58,-3.423 -2.894,-6.09Z" style="fill:#fff;fill-rule:nonzero;"/><path d="M102.054,361.619l1.825,0.579c-0.28,1.017 -0.745,1.773 -1.396,2.267c-0.651,0.494 -1.476,0.741 -2.476,0.741c-1.238,0 -2.255,-0.423 -3.052,-1.268c-0.797,-0.846 -1.195,-2.002 -1.195,-3.468c0,-1.551 0.401,-2.756 1.202,-3.614c0.801,-0.858 1.854,-1.287 3.16,-1.287c1.14,0 2.066,0.337 2.778,1.011c0.424,0.398 0.742,0.971 0.954,1.717l-1.863,0.445c-0.11,-0.483 -0.34,-0.865 -0.69,-1.144c-0.35,-0.28 -0.775,-0.42 -1.275,-0.42c-0.691,0 -1.251,0.248 -1.682,0.744c-0.43,0.496 -0.645,1.299 -0.645,2.41c0,1.178 0.212,2.018 0.636,2.518c0.424,0.5 0.975,0.75 1.653,0.75c0.5,0 0.93,-0.159 1.291,-0.477c0.36,-0.318 0.619,-0.818 0.776,-1.5Z" style="fill:#fff;fill-rule:nonzero;"/><path d="M114.878,360.443c0,-0.949 0.142,-1.746 0.426,-2.391c0.212,-0.475 0.501,-0.901 0.868,-1.278c0.367,-0.377 0.768,-0.657 1.205,-0.839c0.581,-0.246 1.25,-0.369 2.009,-0.369c1.373,0 2.472,0.426 3.297,1.278c0.824,0.852 1.237,2.037 1.237,3.554c0,1.505 -0.409,2.682 -1.227,3.532c-0.818,0.85 -1.912,1.275 -3.281,1.275c-1.386,0 -2.488,-0.423 -3.306,-1.268c-0.818,-0.846 -1.227,-2.01 -1.227,-3.494Zm1.939,-0.064c0,1.055 0.244,1.855 0.731,2.4c0.487,0.545 1.106,0.817 1.856,0.817c0.75,0 1.366,-0.27 1.847,-0.811c0.481,-0.54 0.722,-1.351 0.722,-2.432c0,-1.068 -0.234,-1.865 -0.703,-2.391c-0.468,-0.526 -1.09,-0.788 -1.866,-0.788c-0.776,0 -1.401,0.266 -1.876,0.798c-0.475,0.532 -0.712,1.334 -0.712,2.406Z" style="fill:#fff;fill-rule:nonzero;"/><path d="M135.16,365.046l0,-9.321l3.961,0c0.996,0 1.72,0.084 2.171,0.251c0.451,0.167 0.813,0.465 1.084,0.893c0.271,0.428 0.407,0.918 0.407,1.469c0,0.699 -0.206,1.277 -0.617,1.733c-0.411,0.456 -1.026,0.743 -1.844,0.861c0.407,0.237 0.743,0.498 1.008,0.782c0.265,0.284 0.622,0.788 1.071,1.513l1.138,1.818l-2.251,0l-1.361,-2.028c-0.483,-0.725 -0.814,-1.181 -0.992,-1.37c-0.178,-0.189 -0.367,-0.318 -0.566,-0.388c-0.199,-0.07 -0.515,-0.105 -0.947,-0.105l-0.381,0l0,3.891l-1.882,0Zm1.882,-5.379l1.392,0c0.903,0 1.467,-0.038 1.691,-0.114c0.225,-0.076 0.401,-0.208 0.528,-0.394c0.127,-0.186 0.191,-0.42 0.191,-0.699c0,-0.314 -0.084,-0.567 -0.251,-0.76c-0.167,-0.193 -0.404,-0.315 -0.709,-0.366c-0.153,-0.021 -0.61,-0.032 -1.373,-0.032l-1.469,0l0,2.365Z" style="fill:#fff;fill-rule:nonzero;"/><path d="M154.322,365.046l0,-9.321l3.02,0c1.144,0 1.89,0.047 2.238,0.14c0.534,0.14 0.981,0.444 1.342,0.912c0.36,0.468 0.54,1.073 0.54,1.815c0,0.572 -0.104,1.053 -0.312,1.443c-0.208,0.39 -0.472,0.696 -0.792,0.919c-0.32,0.223 -0.645,0.37 -0.976,0.442c-0.449,0.089 -1.1,0.134 -1.952,0.134l-1.227,0l0,3.516l-1.882,0Zm1.882,-7.744l0,2.645l1.03,0c0.742,0 1.238,-0.049 1.488,-0.146c0.25,-0.097 0.446,-0.25 0.588,-0.458c0.142,-0.208 0.213,-0.449 0.213,-0.725c0,-0.339 -0.1,-0.619 -0.299,-0.839c-0.199,-0.22 -0.451,-0.358 -0.757,-0.413c-0.225,-0.042 -0.676,-0.064 -1.354,-0.064l-0.909,0Z" style="fill:#fff;fill-rule:nonzero;"/><path d="M172.391,360.443c0,-0.949 0.142,-1.746 0.426,-2.391c0.212,-0.475 0.501,-0.901 0.868,-1.278c0.367,-0.377 0.768,-0.657 1.205,-0.839c0.581,-0.246 1.25,-0.369 2.009,-0.369c1.373,0 2.472,0.426 3.297,1.278c0.824,0.852 1.237,2.037 1.237,3.554c0,1.505 -0.409,2.682 -1.227,3.532c-0.818,0.85 -1.912,1.275 -3.281,1.275c-1.386,0 -2.488,-0.423 -3.306,-1.268c-0.818,-0.846 -1.227,-2.01 -1.227,-3.494Zm1.939,-0.064c0,1.055 0.244,1.855 0.731,2.4c0.487,0.545 1.106,0.817 1.856,0.817c0.75,0 1.366,-0.27 1.847,-0.811c0.481,-0.54 0.722,-1.351 0.722,-2.432c0,-1.068 -0.234,-1.865 -0.703,-2.391c-0.468,-0.526 -1.09,-0.788 -1.866,-0.788c-0.776,0 -1.401,0.266 -1.876,0.798c-0.475,0.532 -0.712,1.334 -0.712,2.406Z" style="fill:#fff;fill-rule:nonzero;"/><path d="M192.672,365.046l0,-9.321l3.961,0c0.996,0 1.72,0.084 2.171,0.251c0.451,0.167 0.813,0.465 1.084,0.893c0.271,0.428 0.407,0.918 0.407,1.469c0,0.699 -0.206,1.277 -0.617,1.733c-0.411,0.456 -1.026,0.743 -1.844,0.861c0.407,0.237 0.743,0.498 1.008,0.782c0.265,0.284 0.622,0.788 1.071,1.513l1.138,1.818l-2.251,0l-1.361,-2.028c-0.483,-0.725 -0.814,-1.181 -0.992,-1.37c-0.178,-0.189 -0.367,-0.318 -0.566,-0.388c-0.199,-0.07 -0.515,-0.105 -0.947,-0.105l-0.381,0l0,3.891l-1.882,0Zm1.882,-5.379l1.392,0c0.903,0 1.467,-0.038 1.691,-0.114c0.225,-0.076 0.401,-0.208 0.528,-0.394c0.127,-0.186 0.191,-0.42 0.191,-0.699c0,-0.314 -0.084,-0.567 -0.251,-0.76c-0.167,-0.193 -0.404,-0.315 -0.709,-0.366c-0.153,-0.021 -0.61,-0.032 -1.373,-0.032l-1.469,0l0,2.365Z" style="fill:#fff;fill-rule:nonzero;"/><path d="M220.24,365.046l-2.047,0l-0.814,-2.117l-3.726,0l-0.769,2.117l-1.996,0l3.63,-9.321l1.99,0l3.732,9.321Zm-3.465,-3.688l-1.284,-3.459l-1.259,3.459l2.543,0Z" style="fill:#fff;fill-rule:nonzero;"/><path d="M232.135,365.046l0,-7.744l-2.766,0l0,-1.577l7.407,0l0,1.577l-2.759,0l0,7.744l-1.882,0Z" style="fill:#fff;fill-rule:nonzero;"/><rect x="247.699" y="355.726" width="1.882" height="9.321" style="fill:#fff;fill-rule:nonzero;"/><path d="M260.758,360.443c0,-0.949 0.142,-1.746 0.426,-2.391c0.212,-0.475 0.501,-0.901 0.868,-1.278c0.367,-0.377 0.768,-0.657 1.205,-0.839c0.581,-0.246 1.25,-0.369 2.009,-0.369c1.373,0 2.472,0.426 3.297,1.278c0.824,0.852 1.237,2.037 1.237,3.554c0,1.505 -0.409,2.682 -1.227,3.532c-0.818,0.85 -1.912,1.275 -3.281,1.275c-1.386,0 -2.488,-0.423 -3.306,-1.268c-0.818,-0.846 -1.227,-2.01 -1.227,-3.494Zm1.939,-0.064c0,1.055 0.244,1.855 0.731,2.4c0.487,0.545 1.106,0.817 1.856,0.817c0.75,0 1.366,-0.27 1.847,-0.811c0.481,-0.54 0.722,-1.351 0.722,-2.432c0,-1.068 -0.234,-1.865 -0.703,-2.391c-0.468,-0.526 -1.09,-0.788 -1.866,-0.788c-0.776,0 -1.401,0.266 -1.876,0.798c-0.475,0.532 -0.712,1.334 -0.712,2.406Z" style="fill:#fff;fill-rule:nonzero;"/><path d="M281.053,365.046l0,-9.321l1.831,0l3.815,6.224l0,-6.224l1.748,0l0,9.321l-1.888,0l-3.757,-6.078l0,6.078l-1.748,0Z" style="fill:#fff;fill-rule:nonzero;"/><rect x="300.011" y="359.449" width="11.989" height="1.875" style="fill:#fff;"/><rect x="72" y="359.449" width="11.989" height="1.875" style="fill:#fff;"/></g></g></g><defs><radialGradient id="_Radial1" cx="0" cy="0" r="1" gradientUnits="userSpaceOnUse" gradientTransform="matrix(37.196784,-53.888686,38.395213,53.078061,160.526667,173.767639)"><stop offset="0" style="stop-color:#38ffff;stop-opacity:1"/><stop offset="0.52" style="stop-color:#2bc7f2;stop-opacity:1"/><stop offset="1" style="stop-color:#0015ca;stop-opacity:1"/></radialGradient><radialGradient id="_Radial2" cx="0" cy="0" r="1" gradientUnits="userSpaceOnUse" gradientTransform="matrix(26.948102,45.062686,-20.568057,24.847792,169.614905,160.87123)"><stop offset="0" style="stop-color:#0015ca;stop-opacity:1"/><stop offset="1" style="stop-color:#000;stop-opacity:1"/></radialGradient><radialGradient id="_Radial3" cx="0" cy="0" r="1" gradientUnits="userSpaceOnUse" gradientTransform="matrix(-30.802478,44.89703,-22.721805,-31.223872,214.348077,160.861186)"><stop offset="0" style="stop-color:#4300c0;stop-opacity:1"/><stop offset="0.5" style="stop-color:#32008f;stop-opacity:1"/><stop offset="1" style="stop-color:#000;stop-opacity:1"/></radialGradient><radialGradient id="_Radial4" cx="0" cy="0" r="1" gradientUnits="userSpaceOnUse" gradientTransform="matrix(-27.799734,-38.016777,26.553999,-38.897114,216.887341,162.171821)"><stop offset="0" style="stop-color:#ff50e5;stop-opacity:1"/><stop offset="1" style="stop-color:#4300c0;stop-opacity:1"/></radialGradient><radialGradient id="_Radial5" cx="0" cy="0" r="1" gradientUnits="userSpaceOnUse" gradientTransform="matrix(26.850983,-0.369034,0.418644,30.460519,171.505043,152.272655)"><stop offset="0" style="stop-color:#38ffff;stop-opacity:1"/><stop offset="0.65" style="stop-color:#38ffff;stop-opacity:0.86"/><stop offset="1" style="stop-color:#38ffff;stop-opacity:0"/></radialGradient><radialGradient id="_Radial6" cx="0" cy="0" r="1" gradientUnits="userSpaceOnUse" gradientTransform="matrix(-12.135708,8.936786,-13.452189,-18.267332,169.815599,169.648172)"><stop offset="0" style="stop-color:#38ffff;stop-opacity:0.3"/><stop offset="0.65" style="stop-color:#38ffff;stop-opacity:0.25"/><stop offset="1" style="stop-color:#38ffff;stop-opacity:0"/></radialGradient><radialGradient id="_Radial7" cx="0" cy="0" r="1" gradientUnits="userSpaceOnUse" gradientTransform="matrix(-12.135708,8.936786,-13.452189,-18.267332,204.936446,177.477646)"><stop offset="0" style="stop-color:#38ffff;stop-opacity:0.1"/><stop offset="0.65" style="stop-color:#38ffff;stop-opacity:0.08"/><stop offset="1" style="stop-color:#38ffff;stop-opacity:0"/></radialGradient><radialGradient id="_Radial8" cx="0" cy="0" r="1" gradientUnits="userSpaceOnUse" gradientTransform="matrix(-14.555126,24.088042,-12.523877,-7.567487,216.620313,173.678367)"><stop offset="0" style="stop-color:#ff50e5;stop-opacity:0.6"/><stop offset="0.65" style="stop-color:#ff50e5;stop-opacity:0.51"/><stop offset="1" style="stop-color:#ff50e5;stop-opacity:0"/></radialGradient><radialGradient id="_Radial9" cx="0" cy="0" r="1" gradientUnits="userSpaceOnUse" gradientTransform="matrix(-14.555126,24.088042,-12.523877,-7.567487,178.895591,182.411589)"><stop offset="0" style="stop-color:#ff50e5;stop-opacity:0.21"/><stop offset="0.65" style="stop-color:#ff50e5;stop-opacity:0.18"/><stop offset="1" style="stop-color:#ff50e5;stop-opacity:0"/></radialGradient><radialGradient id="_Radial10" cx="0" cy="0" r="1" gradientUnits="userSpaceOnUse" gradientTransform="matrix(-21.756105,-25.280146,20.929251,-18.011657,217.309064,154.774726)"><stop offset="0" style="stop-color:#ff50e5;stop-opacity:1"/><stop offset="0.65" style="stop-color:#ff50e5;stop-opacity:0.86"/><stop offset="1" style="stop-color:#ff50e5;stop-opacity:0"/></radialGradient><radialGradient id="_Radial11" cx="0" cy="0" r="1" gradientUnits="userSpaceOnUse" gradientTransform="matrix(-71.360244,-51.828046,17.153516,-23.617997,158.688325,83.507645)"><stop offset="0" style="stop-color:#38ffff;stop-opacity:1"/><stop offset="1" style="stop-color:#38ffff;stop-opacity:0"/></radialGradient><radialGradient id="_Radial12" cx="0" cy="0" r="1" gradientUnits="userSpaceOnUse" gradientTransform="matrix(-60.037743,-45.433206,13.92494,-18.401054,104.192705,102.601973)"><stop offset="0" style="stop-color:#38ffff;stop-opacity:1"/><stop offset="1" style="stop-color:#38ffff;stop-opacity:0"/></radialGradient><radialGradient id="_Radial13" cx="0" cy="0" r="1" gradientUnits="userSpaceOnUse" gradientTransform="matrix(-55.888083,-54.935688,27.441104,-27.916736,95.885485,69.077749)"><stop offset="0" style="stop-color:#38ffff;stop-opacity:1"/><stop offset="0.44" style="stop-color:#38ffff;stop-opacity:0.7"/><stop offset="1" style="stop-color:#38ffff;stop-opacity:0"/></radialGradient><radialGradient id="_Radial14" cx="0" cy="0" r="1" gradientUnits="userSpaceOnUse" gradientTransform="matrix(-18.131957,27.666727,59.881356,39.244333,171.752012,89.035144)"><stop offset="0" style="stop-color:#38ffff;stop-opacity:1"/><stop offset="0.65" style="stop-color:#38ffff;stop-opacity:0.85"/><stop offset="1" style="stop-color:#38ffff;stop-opacity:0"/></radialGradient><radialGradient id="_Radial15" cx="0" cy="0" r="1" gradientUnits="userSpaceOnUse" gradientTransform="matrix(-4.089078,8.939346,41.657423,19.055068,79.775531,64.357907)"><stop offset="0" style="stop-color:#38ffff;stop-opacity:1"/><stop offset="0.65" style="stop-color:#38ffff;stop-opacity:0.86"/><stop offset="1" style="stop-color:#38ffff;stop-opacity:0"/></radialGradient><radialGradient id="_Radial16" cx="0" cy="0" r="1" gradientUnits="userSpaceOnUse" gradientTransform="matrix(-14.391311,26.392305,44.816069,24.437412,101.947175,115.732264)"><stop offset="0" style="stop-color:#38ffff;stop-opacity:1"/><stop offset="0.64" style="stop-color:#38ffff;stop-opacity:0.85"/><stop offset="0.83" style="stop-color:#38ffff;stop-opacity:0.45"/><stop offset="1" style="stop-color:#38ffff;stop-opacity:0"/></radialGradient><radialGradient id="_Radial17" cx="0" cy="0" r="1" gradientUnits="userSpaceOnUse" gradientTransform="matrix(-8.375892,5.958751,28.436533,39.97154,93.926218,77.921355)"><stop offset="0" style="stop-color:#38ffff;stop-opacity:1"/><stop offset="0.64" style="stop-color:#38ffff;stop-opacity:0.85"/><stop offset="0.83" style="stop-color:#38ffff;stop-opacity:0.45"/><stop offset="1" style="stop-color:#38ffff;stop-opacity:0"/></radialGradient><radialGradient id="_Radial18" cx="0" cy="0" r="1" gradientUnits="userSpaceOnUse" gradientTransform="matrix(-59.253254,10.794171,5.091852,27.950982,104.203161,188.915297)"><stop offset="0" style="stop-color:#38ffff;stop-opacity:1"/><stop offset="1" style="stop-color:#38ffff;stop-opacity:0"/></radialGradient><radialGradient id="_Radial19" cx="0" cy="0" r="1" gradientUnits="userSpaceOnUse" gradientTransform="matrix(-62.453304,-0.405986,-0.184686,28.410388,56.564806,167.495824)"><stop offset="0" style="stop-color:#38ffff;stop-opacity:1"/><stop offset="1" style="stop-color:#38ffff;stop-opacity:0"/></radialGradient><radialGradient id="_Radial20" cx="0" cy="0" r="1" gradientUnits="userSpaceOnUse" gradientTransform="matrix(8.959774,54.771035,107.510428,-19.985284,56.76302,151.871737)"><stop offset="0" style="stop-color:#38ffff;stop-opacity:1"/><stop offset="1" style="stop-color:#38ffff;stop-opacity:0"/></radialGradient><radialGradient id="_Radial22" cx="0" cy="0" r="1" gradientUnits="userSpaceOnUse" gradientTransform="matrix(-6.996444,-45.064474,-179.732272,27.904068,52.931766,133.071528)"><stop offset="0" style="stop-color:#0015ca;stop-opacity:0.6"/><stop offset="0.45" style="stop-color:#0015ca;stop-opacity:0.42"/><stop offset="1" style="stop-color:#0015ca;stop-opacity:0"/></radialGradient><radialGradient id="_Radial23" cx="0" cy="0" r="1" gradientUnits="userSpaceOnUse" gradientTransform="matrix(-23.637519,0.128273,0.065605,12.089247,70.591156,161.543595)"><stop offset="0" style="stop-color:#38ffff;stop-opacity:0.61"/><stop offset="0.61" style="stop-color:#38ffff;stop-opacity:0.51"/><stop offset="0.82" style="stop-color:#38ffff;stop-opacity:0.26"/><stop offset="1" style="stop-color:#38ffff;stop-opacity:0"/></radialGradient><radialGradient id="_Radial24" cx="0" cy="0" r="1" gradientUnits="userSpaceOnUse" gradientTransform="matrix(-61.36472,3.317988,0.976744,18.064392,103.9449,184.798049)"><stop offset="0" style="stop-color:#38ffff;stop-opacity:1"/><stop offset="0.58" style="stop-color:#38ffff;stop-opacity:0.81"/><stop offset="0.8" style="stop-color:#38ffff;stop-opacity:0.4"/><stop offset="1" style="stop-color:#38ffff;stop-opacity:0"/></radialGradient><radialGradient id="_Radial25" cx="0" cy="0" r="1" gradientUnits="userSpaceOnUse" gradientTransform="matrix(-77.899743,2.946417,0.995572,26.321626,118.540729,134.331751)"><stop offset="0" style="stop-color:#38ffff;stop-opacity:1"/><stop offset="1" style="stop-color:#38ffff;stop-opacity:0"/></radialGradient><radialGradient id="_Radial26" cx="0" cy="0" r="1" gradientUnits="userSpaceOnUse" gradientTransform="matrix(33.923926,30.696543,24.168784,-26.709752,74.591323,145.197989)"><stop offset="0" style="stop-color:#38ffff;stop-opacity:1"/><stop offset="0.55" style="stop-color:#38ffff;stop-opacity:0.79"/><stop offset="1" style="stop-color:#38ffff;stop-opacity:0"/></radialGradient><radialGradient id="_Radial27" cx="0" cy="0" r="1" gradientUnits="userSpaceOnUse" gradientTransform="matrix(2.839912,10.605693,34.795573,-9.31726,111.361437,156.494354)"><stop offset="0" style="stop-color:#38ffff;stop-opacity:1"/><stop offset="0.47" style="stop-color:#38ffff;stop-opacity:0.73"/><stop offset="1" style="stop-color:#38ffff;stop-opacity:0"/></radialGradient><radialGradient id="_Radial28" cx="0" cy="0" r="1" gradientUnits="userSpaceOnUse" gradientTransform="matrix(-61.529897,59.837944,20.350732,20.926085,141.354973,243.744248)"><stop offset="0" style="stop-color:#38ffff;stop-opacity:1"/><stop offset="1" style="stop-color:#38ffff;stop-opacity:0"/></radialGradient><radialGradient id="_Radial29" cx="0" cy="0" r="1" gradientUnits="userSpaceOnUse" gradientTransform="matrix(-61.529897,59.837944,20.350732,20.926085,111.734665,252.080377)"><stop offset="0" style="stop-color:#38ffff;stop-opacity:1"/><stop offset="1" style="stop-color:#38ffff;stop-opacity:0"/></radialGradient><radialGradient id="_Radial30" cx="0" cy="0" r="1" gradientUnits="userSpaceOnUse" gradientTransform="matrix(-59.610745,65.552897,14.587515,13.265156,97.893681,248.424633)"><stop offset="0" style="stop-color:#38ffff;stop-opacity:1"/><stop offset="1" style="stop-color:#38ffff;stop-opacity:0"/></radialGradient><radialGradient id="_Radial31" cx="0" cy="0" r="1" gradientUnits="userSpaceOnUse" gradientTransform="matrix(-37.16512,25.609098,19.733241,28.637698,103.627277,201.691316)"><stop offset="0" style="stop-color:#38ffff;stop-opacity:1"/><stop offset="1" style="stop-color:#38ffff;stop-opacity:0"/></radialGradient><radialGradient id="_Radial32" cx="0" cy="0" r="1" gradientUnits="userSpaceOnUse" gradientTransform="matrix(-14.391311,-26.392305,44.816069,-24.437412,162.315027,238.151365)"><stop offset="0" style="stop-color:#38ffff;stop-opacity:1"/><stop offset="0.65" style="stop-color:#38ffff;stop-opacity:0.85"/><stop offset="1" style="stop-color:#38ffff;stop-opacity:0"/></radialGradient><radialGradient id="_Radial33" cx="0" cy="0" r="1" gradientUnits="userSpaceOnUse" gradientTransform="matrix(-4.089078,-8.939346,41.657423,-19.055068,82.833931,234.341976)"><stop offset="0" style="stop-color:#38ffff;stop-opacity:1"/><stop offset="0.65" style="stop-color:#38ffff;stop-opacity:0.86"/><stop offset="1" style="stop-color:#38ffff;stop-opacity:0"/></radialGradient><radialGradient id="_Radial34" cx="0" cy="0" r="1" gradientUnits="userSpaceOnUse" gradientTransform="matrix(-14.391311,-26.392305,44.816069,-24.437412,101.947175,205.7745)"><stop offset="0" style="stop-color:#38ffff;stop-opacity:1"/><stop offset="0.64" style="stop-color:#38ffff;stop-opacity:0.85"/><stop offset="0.83" style="stop-color:#38ffff;stop-opacity:0.45"/><stop offset="1" style="stop-color:#38ffff;stop-opacity:0"/></radialGradient><linearGradient id="_Linear35" x1="0" y1="0" x2="1" y2="0" gradientUnits="userSpaceOnUse" gradientTransform="matrix(54.434389,-0.151628,0.151628,54.434289,164.938953,242.599534)"><stop offset="0" style="stop-color:#0015ca;stop-opacity:1"/><stop offset="1" style="stop-color:#4300c0;stop-opacity:1"/></linearGradient><radialGradient id="_Radial36" cx="0" cy="0" r="1" gradientUnits="userSpaceOnUse" gradientTransform="matrix(20.916432,66.820549,-34.570693,10.821415,164.778987,244.979264)"><stop offset="0" style="stop-color:#38ffff;stop-opacity:1"/><stop offset="1" style="stop-color:#38ffff;stop-opacity:0"/></radialGradient><radialGradient id="_Radial37" cx="0" cy="0" r="1" gradientUnits="userSpaceOnUse" gradientTransform="matrix(8.653434,-80.33357,41.561874,4.476978,219.383283,267.131819)"><stop offset="0" style="stop-color:#ff50e5;stop-opacity:1"/><stop offset="1" style="stop-color:#ff50e5;stop-opacity:0"/></radialGradient><radialGradient id="_Radial38" cx="0" cy="0" r="1" gradientUnits="userSpaceOnUse" gradientTransform="matrix(38.018317,-1.686982,2.214441,49.905091,181.186316,289.277851)"><stop offset="0" style="stop-color:#ff50e5;stop-opacity:1"/><stop offset="0.19" style="stop-color:#ff50e5;stop-opacity:0.58"/><stop offset="0.4" style="stop-color:#ff50e5;stop-opacity:0.18"/><stop offset="1" style="stop-color:#ff50e5;stop-opacity:0"/></radialGradient><radialGradient id="_Radial39" cx="0" cy="0" r="1" gradientUnits="userSpaceOnUse" gradientTransform="matrix(19.684708,-1.353644,3.427084,49.836502,201.299167,306.140468)"><stop offset="0" style="stop-color:#ff50e5;stop-opacity:0.54"/><stop offset="0.46" style="stop-color:#ff50e5;stop-opacity:0.39"/><stop offset="1" style="stop-color:#ff50e5;stop-opacity:0"/></radialGradient><radialGradient id="_Radial40" cx="0" cy="0" r="1" gradientUnits="userSpaceOnUse" gradientTransform="matrix(57.350312,10.287165,-26.177364,145.93666,216.7029,289.865972)"><stop offset="0" style="stop-color:#ff50e5;stop-opacity:1"/><stop offset="0.19" style="stop-color:#b22fd6;stop-opacity:0.59"/><stop offset="0.41" style="stop-color:#650fc7;stop-opacity:0.18"/><stop offset="1" style="stop-color:#4300c0;stop-opacity:0"/></radialGradient><radialGradient id="_Radial41" cx="0" cy="0" r="1" gradientUnits="userSpaceOnUse" gradientTransform="matrix(-0.128178,23.278828,-12.089269,-0.064658,191.031561,282.064146)"><stop offset="0" style="stop-color:#ff50e5;stop-opacity:0.65"/><stop offset="0.55" style="stop-color:#ff50e5;stop-opacity:0.52"/><stop offset="1" style="stop-color:#ff50e5;stop-opacity:0"/></radialGradient><radialGradient id="_Radial42" cx="0" cy="0" r="1" gradientUnits="userSpaceOnUse" gradientTransform="matrix(-0,51.968753,-26.886876,-0,163.47127,250.501827)"><stop offset="0" style="stop-color:#38ffff;stop-opacity:1"/><stop offset="0.44" style="stop-color:#38ffff;stop-opacity:0.7"/><stop offset="1" style="stop-color:#38ffff;stop-opacity:0"/></radialGradient><radialGradient id="_Radial43" cx="0" cy="0" r="1" gradientUnits="userSpaceOnUse" gradientTransform="matrix(0,24.214852,-12.527946,0,178.900915,250.404786)"><stop offset="0" style="stop-color:#38ffff;stop-opacity:1"/><stop offset="0.44" style="stop-color:#38ffff;stop-opacity:0.7"/><stop offset="1" style="stop-color:#38ffff;stop-opacity:0"/></radialGradient><radialGradient id="_Radial44" cx="0" cy="0" r="1" gradientUnits="userSpaceOnUse" gradientTransform="matrix(-0,51.968753,-26.886876,-0,213.957267,280.172299)"><stop offset="0" style="stop-color:#ff50e5;stop-opacity:1"/><stop offset="0.61" style="stop-color:#ff50e5;stop-opacity:0.83"/><stop offset="0.82" style="stop-color:#ff50e5;stop-opacity:0.43"/><stop offset="1" style="stop-color:#ff50e5;stop-opacity:0"/></radialGradient><radialGradient id="_Radial45" cx="0" cy="0" r="1" gradientUnits="userSpaceOnUse" gradientTransform="matrix(-0,51.968753,-26.886876,-0,220.395985,252.229153)"><stop offset="0" style="stop-color:#ff50e5;stop-opacity:1"/><stop offset="0.61" style="stop-color:#ff50e5;stop-opacity:0.83"/><stop offset="0.82" style="stop-color:#ff50e5;stop-opacity:0.43"/><stop offset="1" style="stop-color:#ff50e5;stop-opacity:0"/></radialGradient><radialGradient id="_Radial46" cx="0" cy="0" r="1" gradientUnits="userSpaceOnUse" gradientTransform="matrix(0.604891,50.125464,-30.122984,0.363509,237.104814,244.145127)"><stop offset="0" style="stop-color:#ff50e5;stop-opacity:1"/><stop offset="1" style="stop-color:#ff50e5;stop-opacity:0"/></radialGradient><radialGradient id="_Radial47" cx="0" cy="0" r="1" gradientUnits="userSpaceOnUse" gradientTransform="matrix(60.037743,45.433206,-13.92494,18.401054,301.593353,233.701261)"><stop offset="0" style="stop-color:#ff50e5;stop-opacity:1"/><stop offset="0.52" style="stop-color:#ff50e5;stop-opacity:0.76"/><stop offset="1" style="stop-color:#ff50e5;stop-opacity:0"/></radialGradient><radialGradient id="_Radial48" cx="0" cy="0" r="1" gradientUnits="userSpaceOnUse" gradientTransform="matrix(60.037743,45.433206,-13.92494,18.401054,301.060011,227.034501)"><stop offset="0" style="stop-color:#ff50e5;stop-opacity:1"/><stop offset="0.51" style="stop-color:#ff50e5;stop-opacity:0.26"/><stop offset="1" style="stop-color:#ff50e5;stop-opacity:0"/></radialGradient><radialGradient id="_Radial49" cx="0" cy="0" r="1" gradientUnits="userSpaceOnUse" gradientTransform="matrix(59.014948,59.79211,-28.683354,28.310431,293.353195,260.354996)"><stop offset="0" style="stop-color:#ff50e5;stop-opacity:1"/><stop offset="0.52" style="stop-color:#ff50e5;stop-opacity:0.76"/><stop offset="1" style="stop-color:#ff50e5;stop-opacity:0"/></radialGradient><radialGradient id="_Radial50" cx="0" cy="0" r="1" gradientUnits="userSpaceOnUse" gradientTransform="matrix(14.391311,-26.392305,-44.816069,-24.437412,227.975629,238.151365)"><stop offset="0" style="stop-color:#ff50e5;stop-opacity:1"/><stop offset="0.65" style="stop-color:#ff50e5;stop-opacity:0.85"/><stop offset="1" style="stop-color:#ff50e5;stop-opacity:0"/></radialGradient><radialGradient id="_Radial51" cx="0" cy="0" r="1" gradientUnits="userSpaceOnUse" gradientTransform="matrix(14.391311,-26.392305,-44.816069,-24.437412,294.250476,236.363872)"><stop offset="0" style="stop-color:#ff50e5;stop-opacity:1"/><stop offset="0.65" style="stop-color:#ff50e5;stop-opacity:0.86"/><stop offset="1" style="stop-color:#ff50e5;stop-opacity:0"/></radialGradient><radialGradient id="_Radial52" cx="0" cy="0" r="1" gradientUnits="userSpaceOnUse" gradientTransform="matrix(3.16167,-29.894259,-57.08292,-6.037168,279.374714,214.274235)"><stop offset="0" style="stop-color:#ff50e5;stop-opacity:1"/><stop offset="0.64" style="stop-color:#ff50e5;stop-opacity:0.85"/><stop offset="0.83" style="stop-color:#ff50e5;stop-opacity:0.45"/><stop offset="1" style="stop-color:#ff50e5;stop-opacity:0"/></radialGradient><radialGradient id="_Radial53" cx="0" cy="0" r="1" gradientUnits="userSpaceOnUse" gradientTransform="matrix(55.384834,0.554255,-0.284305,28.409566,283.003812,190.443772)"><stop offset="0" style="stop-color:#ff50e5;stop-opacity:1"/><stop offset="1" style="stop-color:#ff50e5;stop-opacity:0"/></radialGradient><radialGradient id="_Radial54" cx="0" cy="0" r="1" gradientUnits="userSpaceOnUse" gradientTransform="matrix(-8.959774,54.771035,-107.510428,-19.985284,289.389711,136.247257)"><stop offset="0" style="stop-color:#ff50e5;stop-opacity:1"/><stop offset="1" style="stop-color:#ff50e5;stop-opacity:0"/></radialGradient><radialGradient id="_Radial55" cx="0" cy="0" r="1" gradientUnits="userSpaceOnUse" gradientTransform="matrix(55.231283,-5.446103,1.291307,16.815235,340.057186,161.314277)"><stop offset="0" style="stop-color:#ff50e5;stop-opacity:1"/><stop offset="1" style="stop-color:#ff50e5;stop-opacity:0"/></radialGradient><radialGradient id="_Radial57" cx="0" cy="0" r="1" gradientUnits="userSpaceOnUse" gradientTransform="matrix(-2.600216,-39.626528,75.153434,-4.931404,333.41458,149.286702)"><stop offset="0" style="stop-color:#4300c0;stop-opacity:0.6"/><stop offset="0.49" style="stop-color:#4300c0;stop-opacity:0.15"/><stop offset="1" style="stop-color:#4300c0;stop-opacity:0"/></radialGradient><radialGradient id="_Radial58" cx="0" cy="0" r="1" gradientUnits="userSpaceOnUse" gradientTransform="matrix(23.637519,0.128273,-0.065605,12.089247,313.408844,161.543595)"><stop offset="0" style="stop-color:#ff50e5;stop-opacity:0.61"/><stop offset="0.61" style="stop-color:#ff50e5;stop-opacity:0.51"/><stop offset="0.82" style="stop-color:#ff50e5;stop-opacity:0.26"/><stop offset="1" style="stop-color:#ff50e5;stop-opacity:0"/></radialGradient><radialGradient id="_Radial59" cx="0" cy="0" r="1" gradientUnits="userSpaceOnUse" gradientTransform="matrix(37.243983,1.042451,-0.50616,18.083696,280.711272,190.763233)"><stop offset="0" style="stop-color:#ff50e5;stop-opacity:1"/><stop offset="0.58" style="stop-color:#ff50e5;stop-opacity:0.81"/><stop offset="0.8" style="stop-color:#ff50e5;stop-opacity:0.4"/><stop offset="1" style="stop-color:#ff50e5;stop-opacity:0"/></radialGradient><radialGradient id="_Radial60" cx="0" cy="0" r="1" gradientUnits="userSpaceOnUse" gradientTransform="matrix(77.899743,2.946417,-0.995572,26.321626,265.459271,134.331751)"><stop offset="0" style="stop-color:#ff50e5;stop-opacity:1"/><stop offset="1" style="stop-color:#ff50e5;stop-opacity:0"/></radialGradient><radialGradient id="_Radial61" cx="0" cy="0" r="1" gradientUnits="userSpaceOnUse" gradientTransform="matrix(-33.923926,30.696543,-24.168784,-26.709752,309.408677,145.197989)"><stop offset="0" style="stop-color:#ff50e5;stop-opacity:1"/><stop offset="0.55" style="stop-color:#ff50e5;stop-opacity:0.79"/><stop offset="1" style="stop-color:#ff50e5;stop-opacity:0"/></radialGradient><radialGradient id="_Radial62" cx="0" cy="0" r="1" gradientUnits="userSpaceOnUse" gradientTransform="matrix(-2.839912,10.605693,-34.795573,-9.31726,272.638563,156.494354)"><stop offset="0" style="stop-color:#ff50e5;stop-opacity:1"/><stop offset="0.47" style="stop-color:#ff50e5;stop-opacity:0.73"/><stop offset="1" style="stop-color:#ff50e5;stop-opacity:0"/></radialGradient><radialGradient id="_Radial63" cx="0" cy="0" r="1" gradientUnits="userSpaceOnUse" gradientTransform="matrix(37.091657,35.271143,-35.271208,37.091589,282.387484,108.805867)"><stop offset="0" style="stop-color:#ff50e5;stop-opacity:1"/><stop offset="0.47" style="stop-color:#ff50e5;stop-opacity:0.72"/><stop offset="1" style="stop-color:#ff50e5;stop-opacity:0"/></radialGradient><radialGradient id="_Radial64" cx="0" cy="0" r="1" gradientUnits="userSpaceOnUse" gradientTransform="matrix(37.091657,35.271143,-35.271208,37.091589,293.320991,68.538637)"><stop offset="0" style="stop-color:#ff50e5;stop-opacity:1"/><stop offset="0.47" style="stop-color:#ff50e5;stop-opacity:0.72"/><stop offset="1" style="stop-color:#ff50e5;stop-opacity:0"/></radialGradient><radialGradient id="_Radial65" cx="0" cy="0" r="1" gradientUnits="userSpaceOnUse" gradientTransform="matrix(9.764941,23.379072,-69.152653,28.883486,225.119518,82.283695)"><stop offset="0" style="stop-color:#ff50e5;stop-opacity:1"/><stop offset="0.47" style="stop-color:#ff50e5;stop-opacity:0.72"/><stop offset="1" style="stop-color:#ff50e5;stop-opacity:0"/></radialGradient><radialGradient id="_Radial66" cx="0" cy="0" r="1" gradientUnits="userSpaceOnUse" gradientTransform="matrix(47.145181,-34.732498,35.131607,47.686749,273.022266,111.617703)"><stop offset="0" style="stop-color:#ff50e5;stop-opacity:1"/><stop offset="1" style="stop-color:#ff50e5;stop-opacity:0"/></radialGradient><radialGradient id="_Radial67" cx="0" cy="0" r="1" gradientUnits="userSpaceOnUse" gradientTransform="matrix(23.727829,-53.535022,6.778292,3.004268,284.183206,82.110764)"><stop offset="0" style="stop-color:#ff50e5;stop-opacity:1"/><stop offset="1" style="stop-color:#ff50e5;stop-opacity:0"/></radialGradient><radialGradient id="_Radial68" cx="0" cy="0" r="1" gradientUnits="userSpaceOnUse" gradientTransform="matrix(14.391311,26.392305,-44.816069,24.437412,234.836895,80.803201)"><stop offset="0" style="stop-color:#ff50e5;stop-opacity:1"/><stop offset="0.51" style="stop-color:#ff50e5;stop-opacity:0.76"/><stop offset="1" style="stop-color:#ff50e5;stop-opacity:0"/></radialGradient><linearGradient id="_Linear69" x1="0" y1="0" x2="1" y2="0" gradientUnits="userSpaceOnUse" gradientTransform="matrix(54.007059,-0.151628,0.151628,54.00696,164.864109,78.818798)"><stop offset="0" style="stop-color:#0015ca;stop-opacity:1"/><stop offset="1" style="stop-color:#4300c0;stop-opacity:1"/></linearGradient><radialGradient id="_Radial70" cx="0" cy="0" r="1" gradientUnits="userSpaceOnUse" gradientTransform="matrix(32.229111,8.378415,-16.192628,62.287686,166.322173,59.538616)"><stop offset="0" style="stop-color:#38ffff;stop-opacity:1"/><stop offset="0.46" style="stop-color:#38ffff;stop-opacity:0.72"/><stop offset="1" style="stop-color:#38ffff;stop-opacity:0"/></radialGradient><radialGradient id="_Radial71" cx="0" cy="0" r="1" gradientUnits="userSpaceOnUse" gradientTransform="matrix(45.657526,-4.369133,8.444049,88.240154,223.840799,63.815315)"><stop offset="0" style="stop-color:#ff50e5;stop-opacity:0.8"/><stop offset="1" style="stop-color:#ff50e5;stop-opacity:0"/></radialGradient><linearGradient id="_Linear72" x1="0" y1="0" x2="1" y2="0" gradientUnits="userSpaceOnUse" gradientTransform="matrix(6.255027,0.681262,-0.681264,6.255016,190.801405,39.391948)"><stop offset="0" style="stop-color:#0015ca;stop-opacity:0.36"/><stop offset="1" style="stop-color:#0015ca;stop-opacity:0"/></linearGradient><radialGradient id="_Radial73" cx="0" cy="0" r="1" gradientUnits="userSpaceOnUse" gradientTransform="matrix(9.049006,-0.174765,0.67557,34.97973,192.703822,42.426106)"><stop offset="0" style="stop-color:#38ffff;stop-opacity:0.2"/><stop offset="1" style="stop-color:#38ffff;stop-opacity:0"/></radialGradient><radialGradient id="_Radial74" cx="0" cy="0" r="1" gradientUnits="userSpaceOnUse" gradientTransform="matrix(0.223699,19.573628,-75.663865,0.864728,195.339408,37.887946)"><stop offset="0" style="stop-color:#38ffff;stop-opacity:0.09"/><stop offset="0.67" style="stop-color:#38ffff;stop-opacity:0.08"/><stop offset="0.85" style="stop-color:#38ffff;stop-opacity:0.04"/><stop offset="1" style="stop-color:#38ffff;stop-opacity:0"/></radialGradient><radialGradient id="_Radial75" cx="0" cy="0" r="1" gradientUnits="userSpaceOnUse" gradientTransform="matrix(30.174457,-3.003793,5.805312,58.316754,223.537456,73.160803)"><stop offset="0" style="stop-color:#ff50e5;stop-opacity:1"/><stop offset="0.65" style="stop-color:#ff50e5;stop-opacity:0.86"/><stop offset="1" style="stop-color:#ff50e5;stop-opacity:0"/></radialGradient><radialGradient id="_Radial76" cx="0" cy="0" r="1" gradientUnits="userSpaceOnUse" gradientTransform="matrix(30.228582,10.735866,-20.748779,58.421359,161.32998,66.588139)"><stop offset="0" style="stop-color:#38ffff;stop-opacity:1"/><stop offset="0.65" style="stop-color:#38ffff;stop-opacity:0.86"/><stop offset="1" style="stop-color:#38ffff;stop-opacity:0"/></radialGradient></defs></svg>