<?xml version="1.0" encoding="UTF-8" standalone="no"?><!DOCTYPE svg PUBLIC "-//W3C//DTD SVG 1.1//EN" "http://www.w3.org/Graphics/SVG/1.1/DTD/svg11.dtd"><svg width="100%" height="100%" viewBox="0 0 512 512" version="1.1" xmlns="http://www.w3.org/2000/svg" xmlns:xlink="http://www.w3.org/1999/xlink" xml:space="preserve" xmlns:serif="http://www.serif.com/" style="fill-rule:evenodd;clip-rule:evenodd;stroke-linejoin:round;stroke-miterlimit:2;"><rect id="fill" x="0" y="0" width="512" height="512" style="fill:none;"/><g id="icon-fill" serif:id="icon fill"><g id="shape"><path id="sclera" d="M130,236.01c80.466,-92 171.593,-92.052 252,-0c17.47,20 17.47,20 -0,40c-80.363,92 -171.534,92 -252,-0c-17.493,-20 -17.493,-20 0,-40Zm126,-47.52c-38.634,0 -70,30.246 -70,67.5c-0,37.255 31.366,67.5 70,67.5c38.634,0 70,-30.245 70,-67.5c-0,-37.254 -31.366,-67.5 -70,-67.5Z" style="fill:url(#_Linear1);"/><path id="pupil" d="M292.918,257.963l-34.945,34.946c-1.089,1.088 -2.857,1.088 -3.946,-0l-34.945,-34.946c-1.089,-1.089 -1.089,-2.857 -0,-3.945l34.945,-34.946c1.089,-1.089 2.857,-1.089 3.946,0l34.945,34.946c1.089,1.088 1.089,2.856 0,3.945Z" style="fill:url(#_Linear2);"/></g><g id="coloring"><g id="sclera1" serif:id="sclera"><g id="left"><clipPath id="_clip3"><path d="M256,345.01c-42.884,-0.014 -85.779,-23.014 -126,-69c-17.493,-20 -17.493,-20 0,-40c40.226,-45.993 83.116,-69.005 126,-69.02l-0,21.5c-38.634,0 -70,30.246 -70,67.5c-0,37.255 31.366,67.5 70,67.5l-0,21.52Z"/></clipPath><g clip-path="url(#_clip3)"><path id="outer" d="M130,236.01c80.466,-92 171.593,-92.052 252,-0c17.47,20 17.47,20 -0,40c-80.363,92 -171.534,92 -252,-0c-17.493,-20 -17.493,-20 0,-40Zm126,-47.52c-38.634,0 -70,30.246 -70,67.5c-0,37.255 31.366,67.5 70,67.5c38.634,0 70,-30.245 70,-67.5c-0,-37.254 -31.366,-67.5 -70,-67.5Z" style="fill:url(#_Radial4);"/><path id="outer1" serif:id="outer" d="M130,236.01c80.466,-92 171.593,-92.052 252,-0c17.47,20 17.47,20 -0,40c-80.363,92 -171.534,92 -252,-0c-17.493,-20 -17.493,-20 0,-40Zm126,-47.52c-38.634,0 -70,30.246 -70,67.5c-0,37.255 31.366,67.5 70,67.5c38.634,0 70,-30.245 70,-67.5c-0,-37.254 -31.366,-67.5 -70,-67.5Z" style="fill:url(#_Radial5);"/><path id="inner" d="M130,236.01c80.466,-92 171.593,-92.052 252,-0c17.47,20 17.47,20 -0,40c-80.363,92 -171.534,92 -252,-0c-17.493,-20 -17.493,-20 0,-40Zm126,-47.52c-38.634,0 -70,30.246 -70,67.5c-0,37.255 31.366,67.5 70,67.5c38.634,0 70,-30.245 70,-67.5c-0,-37.254 -31.366,-67.5 -70,-67.5Z" style="fill:url(#_Radial6);"/><path id="side" d="M130,236.01c80.466,-92 171.593,-92.052 252,-0c17.47,20 17.47,20 -0,40c-80.363,92 -171.534,92 -252,-0c-17.493,-20 -17.493,-20 0,-40Zm126,-47.52c-38.634,0 -70,30.246 -70,67.5c-0,37.255 31.366,67.5 70,67.5c38.634,0 70,-30.245 70,-67.5c-0,-37.254 -31.366,-67.5 -70,-67.5Z" style="fill:url(#_Radial7);"/></g></g><g id="right"><clipPath id="_clip8"><path d="M256,166.99c42.898,-0.014 85.789,22.986 126,69.02c17.47,20 17.47,20 -0,40c-40.193,46.013 -83.091,69.013 -126,69l-0,-21.52c38.634,0 70,-30.245 70,-67.5c-0,-37.254 -31.366,-67.5 -70,-67.5l-0,-21.5Z"/></clipPath><g clip-path="url(#_clip8)"><path id="inner1" serif:id="inner" d="M130,236.01c80.466,-92 171.593,-92.052 252,-0c17.47,20 17.47,20 -0,40c-80.363,92 -171.534,92 -252,-0c-17.493,-20 -17.493,-20 0,-40Zm126,-47.52c-38.634,0 -70,30.246 -70,67.5c-0,37.255 31.366,67.5 70,67.5c38.634,0 70,-30.245 70,-67.5c-0,-37.254 -31.366,-67.5 -70,-67.5Z" style="fill:url(#_Radial9);"/><path id="side1" serif:id="side" d="M381.983,236.01c-80.466,-92 -171.592,-92.052 -252,-0c-17.47,20 -17.47,20 0,40c80.363,92 171.534,92 252,-0c17.493,-20 17.493,-20 0,-40Zm-126,-47.52c38.634,0 70,30.246 70,67.5c0,37.255 -31.366,67.5 -70,67.5c-38.634,0 -70,-30.245 -70,-67.5c0,-37.254 31.366,-67.5 70,-67.5Z" style="fill:url(#_Radial10);"/><path id="outer2" serif:id="outer" d="M381.983,236.01c-80.466,-92 -171.592,-92.052 -252,-0c-17.47,20 -17.47,20 0,40c80.363,92 171.534,92 252,-0c17.493,-20 17.493,-20 0,-40Zm-126,-47.52c38.634,0 70,30.246 70,67.5c0,37.255 -31.366,67.5 -70,67.5c-38.634,0 -70,-30.245 -70,-67.5c0,-37.254 31.366,-67.5 70,-67.5Z" style="fill:url(#_Radial11);"/><path id="outer3" serif:id="outer" d="M381.983,236.01c-80.466,-92 -171.592,-92.052 -252,-0c-17.47,20 -17.47,20 0,40c80.363,92 171.534,92 252,-0c17.493,-20 17.493,-20 0,-40Zm-126,-47.52c38.634,0 70,30.246 70,67.5c0,37.255 -31.366,67.5 -70,67.5c-38.634,0 -70,-30.245 -70,-67.5c0,-37.254 31.366,-67.5 70,-67.5Z" style="fill:url(#_Radial12);"/></g></g><g id="middle"><path id="sclera2" serif:id="sclera" d="M130,236.01c80.466,-92 171.593,-92.052 252,-0c17.47,20 17.47,20 -0,40c-80.363,92 -171.534,92 -252,-0c-17.493,-20 -17.493,-20 0,-40Zm126,-47.52c-38.634,0 -70,30.246 -70,67.5c-0,37.255 31.366,67.5 70,67.5c38.634,0 70,-30.245 70,-67.5c-0,-37.254 -31.366,-67.5 -70,-67.5Z" style="fill:url(#_Linear13);"/></g></g><g id="pupil1" serif:id="pupil"><path id="right1" serif:id="right" d="M292.918,257.963l-34.945,34.946c-1.089,1.088 -2.857,1.088 -3.946,-0l-34.945,-34.946c-1.089,-1.089 -1.089,-2.857 -0,-3.945l34.945,-34.946c1.089,-1.089 2.857,-1.089 3.946,0l34.945,34.946c1.089,1.088 1.089,2.856 0,3.945Z" style="fill:url(#_Radial14);"/><path id="left1" serif:id="left" d="M219.082,257.963l34.945,34.946c1.089,1.088 2.857,1.088 3.946,-0l34.945,-34.946c1.089,-1.089 1.089,-2.857 0,-3.945l-34.945,-34.946c-1.089,-1.089 -2.857,-1.089 -3.946,0l-34.945,34.946c-1.089,1.088 -1.089,2.856 -0,3.945Z" style="fill:url(#_Radial15);"/></g></g><g id="outline"><clipPath id="_clip16"><path d="M130,236.01c80.466,-92 171.593,-92.052 252,-0c17.47,20 17.47,20 -0,40c-80.363,92 -171.534,92 -252,-0c-17.493,-20 -17.493,-20 0,-40Zm1.045,0.914c-4.33,4.951 -7.581,8.662 -9.747,11.757c-1.979,2.828 -3.029,5.066 -3.029,7.329c0,2.262 1.05,4.5 3.029,7.328c2.166,3.095 5.417,6.806 9.747,11.757c39.913,45.634 82.439,68.526 124.994,68.526c42.554,-0 85.054,-22.892 124.915,-68.525c4.325,-4.951 7.572,-8.662 9.735,-11.757c1.976,-2.828 3.025,-5.067 3.025,-7.329c-0,-2.263 -1.049,-4.501 -3.025,-7.33c-2.163,-3.094 -5.41,-6.805 -9.735,-11.757c-39.883,-45.658 -82.383,-68.55 -124.932,-68.544c-42.549,0.007 -85.064,22.911 -124.977,68.545Zm124.955,-49.822c39.414,-0 71.389,30.882 71.389,68.888c-0,38.007 -31.975,68.889 -71.389,68.889c-39.414,0 -71.389,-30.882 -71.389,-68.889c0,-38.006 31.975,-68.888 71.389,-68.888Zm-0,1.388c-38.634,0 -70,30.246 -70,67.5c-0,37.255 31.366,67.5 70,67.5c38.634,0 70,-30.245 70,-67.5c-0,-37.254 -31.366,-67.5 -70,-67.5Zm36.918,69.473l-34.945,34.946c-1.089,1.088 -2.857,1.088 -3.946,-0l-34.945,-34.946c-1.089,-1.089 -1.089,-2.857 -0,-3.945l34.945,-34.946c1.089,-1.089 2.857,-1.089 3.946,0l34.945,34.946c1.089,1.088 1.089,2.856 0,3.945Zm-0.982,-0.982c0.547,-0.547 0.547,-1.434 0,-1.981l-34.945,-34.946c-0.547,-0.546 -1.435,-0.546 -1.982,0l-34.945,34.946c-0.547,0.547 -0.547,1.434 -0,1.981l34.945,34.945c0.547,0.547 1.435,0.547 1.982,0l34.945,-34.945Z"/></clipPath><g clip-path="url(#_clip16)"><g opacity="0.5"><rect x="0" y="-0.01" width="512" height="512" style="fill:url(#_Linear17);"/><path d="M512,-0.01l-0,512l-512,0l0,-512l512,0Zm-1.389,1.389l-509.222,0l-0,509.223l509.222,-0l0,-509.223Z"/><rect x="0" y="-0.01" width="512" height="512" style="fill:url(#_Radial18);"/><path d="M512,-0.01l-0,512l-512,0l0,-512l512,0Zm-1.389,1.389l-509.222,0l-0,509.223l509.222,-0l0,-509.223Z"/><rect x="0" y="-0.01" width="512" height="512" style="fill:url(#_Linear19);"/><path d="M512,-0.01l-0,512l-512,0l0,-512l512,0Zm-1.389,1.389l-509.222,0l-0,509.223l509.222,-0l0,-509.223Z"/><rect x="0" y="-0.01" width="512" height="512" style="fill:url(#_Radial20);"/><path d="M512,-0.01l-0,512l-512,0l0,-512l512,0Zm-1.389,1.389l-509.222,0l-0,509.223l509.222,-0l0,-509.223Z"/></g></g></g></g><defs><linearGradient id="_Linear1" x1="0" y1="0" x2="1" y2="0" gradientUnits="userSpaceOnUse" gradientTransform="matrix(278.222,0,0,178.469,116.881,255.99)"><stop offset="0" style="stop-color:#ff39c8;stop-opacity:1"/><stop offset="0" style="stop-color:#4300c0;stop-opacity:1"/><stop offset="1" style="stop-color:#0015ca;stop-opacity:1"/><stop offset="1" style="stop-color:#30f4eb;stop-opacity:1"/></linearGradient><linearGradient id="_Linear2" x1="0" y1="0" x2="1" y2="0" gradientUnits="userSpaceOnUse" gradientTransform="matrix(277.491,0,-1.42109e-14,178,117.254,255.99)"><stop offset="0" style="stop-color:#ff39c8;stop-opacity:1"/><stop offset="0" style="stop-color:#4300c0;stop-opacity:1"/><stop offset="1" style="stop-color:#0015ca;stop-opacity:1"/><stop offset="1" style="stop-color:#30f4eb;stop-opacity:1"/></linearGradient><radialGradient id="_Radial4" cx="0" cy="0" r="1" gradientUnits="userSpaceOnUse" gradientTransform="matrix(191.49,-0.758515,0.758515,191.49,299.151,166.99)"><stop offset="0" style="stop-color:#30f4eb;stop-opacity:0"/><stop offset="0.67" style="stop-color:#31f5ee;stop-opacity:0.13"/><stop offset="0.85" style="stop-color:#34f9f6;stop-opacity:0.52"/><stop offset="1" style="stop-color:#38ffff;stop-opacity:1"/></radialGradient><radialGradient id="_Radial5" cx="0" cy="0" r="1" gradientUnits="userSpaceOnUse" gradientTransform="matrix(202.289,0,0,202.289,290.58,364.57)"><stop offset="0" style="stop-color:#30f4eb;stop-opacity:0"/><stop offset="0.67" style="stop-color:#31f5ee;stop-opacity:0.13"/><stop offset="0.85" style="stop-color:#34f9f6;stop-opacity:0.52"/><stop offset="1" style="stop-color:#38ffff;stop-opacity:1"/></radialGradient><radialGradient id="_Radial6" cx="0" cy="0" r="1" gradientUnits="userSpaceOnUse" gradientTransform="matrix(-79.7261,0.479687,-0.592589,-98.491,245.833,256)"><stop offset="0" style="stop-color:#30f4eb;stop-opacity:1"/><stop offset="0.67" style="stop-color:#30f4eb;stop-opacity:0.87"/><stop offset="0.85" style="stop-color:#30f4eb;stop-opacity:0.48"/><stop offset="1" style="stop-color:#30f4eb;stop-opacity:0"/></radialGradient><radialGradient id="_Radial7" cx="0" cy="0" r="1" gradientUnits="userSpaceOnUse" gradientTransform="matrix(107.379,0,0,66.7925,256,255.99)"><stop offset="0" style="stop-color:#38ffff;stop-opacity:1"/><stop offset="0.66" style="stop-color:#37fdfc;stop-opacity:0.86"/><stop offset="0.85" style="stop-color:#34f9f4;stop-opacity:0.47"/><stop offset="1" style="stop-color:#30f4eb;stop-opacity:0"/></radialGradient><radialGradient id="_Radial9" cx="0" cy="0" r="1" gradientUnits="userSpaceOnUse" gradientTransform="matrix(59.6269,0,0,78.0015,278,255.99)"><stop offset="0" style="stop-color:#ff39c8;stop-opacity:1"/><stop offset="0.65" style="stop-color:#ff39c8;stop-opacity:0.86"/><stop offset="1" style="stop-color:#ff39c8;stop-opacity:0"/></radialGradient><radialGradient id="_Radial10" cx="0" cy="0" r="1" gradientUnits="userSpaceOnUse" gradientTransform="matrix(92.2545,-0.00981244,-0.00840294,-79.0027,255.992,255.99)"><stop offset="0" style="stop-color:#ff39c8;stop-opacity:1"/><stop offset="0.67" style="stop-color:#ff39c8;stop-opacity:0.87"/><stop offset="0.85" style="stop-color:#ff39c8;stop-opacity:0.48"/><stop offset="1" style="stop-color:#ff39c8;stop-opacity:0"/></radialGradient><radialGradient id="_Radial11" cx="0" cy="0" r="1" gradientUnits="userSpaceOnUse" gradientTransform="matrix(-221.22,-0.379257,0.379257,-221.22,200.609,364.352)"><stop offset="0" style="stop-color:#ff39c8;stop-opacity:0"/><stop offset="0.67" style="stop-color:#ff39c8;stop-opacity:0.13"/><stop offset="0.85" style="stop-color:#ff39c8;stop-opacity:0.52"/><stop offset="1" style="stop-color:#ff39c8;stop-opacity:1"/></radialGradient><radialGradient id="_Radial12" cx="0" cy="0" r="1" gradientUnits="userSpaceOnUse" gradientTransform="matrix(-203.775,2.49552e-14,-2.49552e-14,-203.775,218.265,154.096)"><stop offset="0" style="stop-color:#ff39c8;stop-opacity:0"/><stop offset="0.67" style="stop-color:#ff39c8;stop-opacity:0.13"/><stop offset="0.85" style="stop-color:#ff39c8;stop-opacity:0.52"/><stop offset="1" style="stop-color:#ff39c8;stop-opacity:1"/></radialGradient><linearGradient id="_Linear13" x1="0" y1="0" x2="1" y2="0" gradientUnits="userSpaceOnUse" gradientTransform="matrix(219.96,1.38581,-0.888943,141.096,73.7746,256)"><stop offset="0" style="stop-color:#0015ca;stop-opacity:0"/><stop offset="0.48" style="stop-color:#0d11c8;stop-opacity:0.19"/><stop offset="0.66" style="stop-color:#2808c4;stop-opacity:0.6"/><stop offset="0.83" style="stop-color:#4300c0;stop-opacity:1"/><stop offset="1" style="stop-color:#4300c0;stop-opacity:0"/></linearGradient><radialGradient id="_Radial14" cx="0" cy="0" r="1" gradientUnits="userSpaceOnUse" gradientTransform="matrix(59.7347,0,0,59.7347,234,256)"><stop offset="0" style="stop-color:#ff39c8;stop-opacity:0"/><stop offset="0.58" style="stop-color:#ff39c8;stop-opacity:0.19"/><stop offset="0.8" style="stop-color:#ff39c8;stop-opacity:0.6"/><stop offset="1" style="stop-color:#ff39c8;stop-opacity:1"/></radialGradient><radialGradient id="_Radial15" cx="0" cy="0" r="1" gradientUnits="userSpaceOnUse" gradientTransform="matrix(-59.7347,1.06581e-14,-1.42109e-14,-59.7347,278,255.99)"><stop offset="0" style="stop-color:#30f4eb;stop-opacity:0"/><stop offset="0.58" style="stop-color:#30f4eb;stop-opacity:0.19"/><stop offset="0.8" style="stop-color:#30f4eb;stop-opacity:0.6"/><stop offset="1" style="stop-color:#30f4eb;stop-opacity:1"/></radialGradient><linearGradient id="_Linear17" x1="0" y1="0" x2="1" y2="0" gradientUnits="userSpaceOnUse" gradientTransform="matrix(139.111,0.00957983,-0.00957983,139.111,116.881,255.99)"><stop offset="0" style="stop-color:#38ffff;stop-opacity:1"/><stop offset="1" style="stop-color:#30f4eb;stop-opacity:0"/></linearGradient><radialGradient id="_Radial18" cx="0" cy="0" r="1" gradientUnits="userSpaceOnUse" gradientTransform="matrix(37.7347,0,0,139.111,218.265,255.99)"><stop offset="0" style="stop-color:#38ffff;stop-opacity:1"/><stop offset="0.65" style="stop-color:#37fdfc;stop-opacity:0.86"/><stop offset="1" style="stop-color:#30f4eb;stop-opacity:0"/></radialGradient><linearGradient id="_Linear19" x1="0" y1="0" x2="1" y2="0" gradientUnits="userSpaceOnUse" gradientTransform="matrix(-143.47,-8.12836e-14,8.12836e-14,-143.47,399.47,255.99)"><stop offset="0" style="stop-color:#ff39c8;stop-opacity:1"/><stop offset="1" style="stop-color:#ff39c8;stop-opacity:0"/></linearGradient><radialGradient id="_Radial20" cx="0" cy="0" r="1" gradientUnits="userSpaceOnUse" gradientTransform="matrix(-37.7347,4.62117e-15,-1.757e-14,-143.47,293.735,255.99)"><stop offset="0" style="stop-color:#ff39c8;stop-opacity:1"/><stop offset="0.65" style="stop-color:#ff39c8;stop-opacity:0.86"/><stop offset="1" style="stop-color:#ff39c8;stop-opacity:0"/></radialGradient></defs></svg>